<?xml version="1.0" encoding="utf-8"?>
<!-- Generator: Adobe Illustrator 21.1.0, SVG Export Plug-In . SVG Version: 6.00 Build 0)  -->
<svg version="1.1" id="artwork" xmlns="http://www.w3.org/2000/svg" xmlns:xlink="http://www.w3.org/1999/xlink" x="0px" y="0px"
	 viewBox="0 0 202 60" style="enable-background:new 0 0 202 60;" xml:space="preserve">
<style type="text/css">
	.st0{fill:#FFFFFF;stroke:#FFFFFF;stroke-width:0.2;stroke-miterlimit:10;}
	.st1{fill:#FFFFFF;}
	.st2{fill:url(#SVGID_1_);}
	.st3{fill:url(#SVGID_2_);}
	.st4{fill:url(#SVGID_3_);}
	.st5{fill:url(#SVGID_4_);}
	.st6{opacity:0.2;enable-background:new    ;}
	.st7{opacity:0.12;enable-background:new    ;}
	.st8{opacity:0.25;fill:#FFFFFF;enable-background:new    ;}
</style>
<g>
	<g>
		<path d="M194.5,60H7.5C3.4,60,0,56.6,0,52.5v-45C0,3.4,3.4,0,7.5,0h187c4.1,0,7.5,3.4,7.5,7.5v45C202,56.6,198.6,60,194.5,60z"/>
	</g>
	<g>
		<g>
			<g>
				<path d="M194.5,1.2c3.5,0,6.3,2.8,6.3,6.3v45c0,3.5-2.8,6.3-6.3,6.3H7.5c-3.5,0-6.3-2.8-6.3-6.3v-45C1.2,4,4,1.2,7.5,1.2H194.5
					 M194.5,0H7.5C3.4,0,0,3.4,0,7.5v45C0,56.6,3.4,60,7.5,60h187c4.1,0,7.5-3.4,7.5-7.5v-45C202,3.4,198.6,0,194.5,0L194.5,0z"/>
			</g>
		</g>
	</g>
	<g>
		<path class="st0" d="M71,15.4c0,1.3-0.4,2.3-1.1,3c-0.8,0.9-1.9,1.3-3.3,1.3c-1.3,0-2.4-0.4-3.3-1.4c-0.9-0.9-1.4-2-1.4-3.4
			c0-1.3,0.5-2.4,1.4-3.4c0.9-0.9,2-1.4,3.3-1.4c0.6,0,1.3,0.1,1.8,0.4c0.6,0.3,1.1,0.6,1.4,1l-0.8,1c-0.6-0.7-1.4-1.1-2.5-1.1
			c-0.9,0-1.8,0.3-2.5,1c-0.7,0.7-1,1.5-1,2.6s0.3,1.9,1,2.6c0.7,0.7,1.5,1,2.5,1s1.8-0.3,2.5-1c0.4-0.4,0.7-1,0.8-1.8h-3.3v-1.1
			h4.4C70.9,14.9,71,15.1,71,15.4z"/>
		<path class="st0" d="M77.8,11.6h-4.1v2.9h3.7v1.1h-3.7v2.9h4.1v1.1h-5.2v-9h5.2V11.6z"/>
		<path class="st0" d="M82.7,19.5h-1.2v-7.9H79v-1.1h6.2v1.1h-2.5V19.5z"/>
		<path class="st0" d="M89.7,19.5v-9h1.2v9H89.7z"/>
		<path class="st0" d="M96,19.5h-1.2v-7.9h-2.5v-1.1h6.2v1.1H96V19.5z"/>
		<path class="st0" d="M110.1,18.3c-0.9,0.9-2,1.4-3.3,1.4s-2.4-0.5-3.3-1.4s-1.3-2-1.3-3.3s0.4-2.4,1.3-3.3s2-1.4,3.3-1.4
			s2.4,0.5,3.3,1.4s1.3,2,1.3,3.3C111.5,16.3,111,17.4,110.1,18.3z M104.4,17.6c0.7,0.7,1.5,1,2.4,1s1.8-0.3,2.4-1
			c0.7-0.7,1-1.5,1-2.6s-0.3-1.9-1-2.6s-1.5-1-2.4-1s-1.8,0.3-2.4,1c-0.7,0.7-1,1.5-1,2.6S103.7,16.9,104.4,17.6z"/>
		<path class="st0" d="M113.1,19.5v-9h1.4l4.4,7l0,0v-1.7v-5.3h1.2v9h-1.2l-4.6-7.3l0,0v1.7v5.6C114.3,19.5,113.1,19.5,113.1,19.5z"
			/>
	</g>
	<path class="st1" d="M102,32.6c-3.5,0-6.4,2.7-6.4,6.4c0,3.7,2.9,6.4,6.4,6.4s6.4-2.7,6.4-6.4C108.3,35.3,105.5,32.6,102,32.6z
		 M102,42.9c-1.9,0-3.6-1.6-3.6-3.9s1.7-3.9,3.6-3.9s3.6,1.6,3.6,3.9C105.5,41.3,103.9,42.9,102,42.9z M88,32.6
		c-3.5,0-6.4,2.7-6.4,6.4c0,3.7,2.9,6.4,6.4,6.4s6.4-2.7,6.4-6.4C94.4,35.3,91.5,32.6,88,32.6z M88,42.9c-1.9,0-3.6-1.6-3.6-3.9
		s1.7-3.9,3.6-3.9s3.6,1.6,3.6,3.9S89.9,42.9,88,42.9z M71.4,34.6v2.7h6.5c-0.2,1.5-0.7,2.6-1.5,3.4c-0.9,0.9-2.4,2-5,2
		c-4,0-7.1-3.2-7.1-7.2s3.1-7.2,7.1-7.2c2.1,0,3.7,0.8,4.9,1.9l1.9-1.9c-1.6-1.5-3.8-2.7-6.8-2.7c-5.4,0-10,4.4-10,9.9
		s4.6,9.9,10,9.9c2.9,0,5.2-1,6.9-2.8c1.8-1.8,2.3-4.3,2.3-6.3c0-0.6,0-1.2-0.1-1.7C80.5,34.6,71.4,34.6,71.4,34.6z M139.2,36.7
		c-0.5-1.4-2.1-4.1-5.4-4.1c-3.3,0-6,2.6-6,6.4c0,3.6,2.7,6.4,6.3,6.4c2.9,0,4.6-1.8,5.3-2.8l-2.2-1.4c-0.7,1.1-1.7,1.8-3.1,1.8
		c-1.4,0-2.4-0.7-3.1-1.9l8.5-3.5L139.2,36.7z M130.6,38.8c-0.1-2.5,1.9-3.7,3.3-3.7c1.1,0,2,0.6,2.4,1.4L130.6,38.8z M123.6,45h2.8
		V26.2h-2.8V45z M119.1,34.1L119.1,34.1c-0.7-0.7-1.9-1.4-3.4-1.4c-3.2,0-6.1,2.8-6.1,6.4s2.9,6.4,6.1,6.4c1.5,0,2.7-0.7,3.4-1.4
		h0.1V45c0,2.4-1.3,3.7-3.4,3.7c-1.7,0-2.8-1.2-3.2-2.3l-2.4,1c0.7,1.7,2.6,3.8,5.6,3.8c3.3,0,6.1-1.9,6.1-6.6V33h-2.7L119.1,34.1
		L119.1,34.1z M115.9,42.9c-1.9,0-3.5-1.6-3.5-3.8c0-2.2,1.6-3.9,3.5-3.9s3.4,1.6,3.4,3.9C119.2,41.3,117.8,42.9,115.9,42.9z
		 M152.3,26.2h-6.7V45h2.8v-7.1h3.9c3.1,0,6.1-2.2,6.1-5.8S155.4,26.2,152.3,26.2z M152.4,35.3h-4v-6.4h4c2.1,0,3.3,1.7,3.3,3.2
		C155.7,33.5,154.5,35.3,152.4,35.3z M169.7,32.6c-2,0-4.1,0.9-5,2.9l2.5,1c0.5-1,1.5-1.4,2.6-1.4c1.4,0,2.9,0.9,2.9,2.4v0.2
		c-0.5-0.3-1.6-0.7-2.9-0.7c-2.7,0-5.4,1.5-5.4,4.2c0,2.5,2.2,4.1,4.6,4.1c1.9,0,2.9-0.8,3.6-1.8h0.1v1.4h2.7v-7.2
		C175.3,34.5,172.9,32.6,169.7,32.6z M169.3,42.9c-0.9,0-2.2-0.5-2.2-1.6c0-1.4,1.6-2,3-2c1.2,0,1.8,0.3,2.6,0.6
		C172.4,41.6,170.9,42.9,169.3,42.9z M185.2,33l-3.2,8.1h-0.1l-3.3-8.1h-3l5,11.4l-2.8,6.3h2.9l7.7-17.7H185.2z M160,45h2.8V26.2
		H160V45z"/>
	<g>
		
			<linearGradient id="SVGID_1_" gradientUnits="userSpaceOnUse" x1="32.6479" y1="701.5521" x2="7.4746" y2="726.7255" gradientTransform="matrix(1 0 0 1 0 -688.5)">
			<stop  offset="0" style="stop-color:#00A0FF"/>
			<stop  offset="6.574450e-03" style="stop-color:#00A1FF"/>
			<stop  offset="0.2601" style="stop-color:#00BEFF"/>
			<stop  offset="0.5122" style="stop-color:#00D2FF"/>
			<stop  offset="0.7604" style="stop-color:#00DFFF"/>
			<stop  offset="1" style="stop-color:#00E3FF"/>
		</linearGradient>
		<path class="st2" d="M15.6,11.3c-0.4,0.5-0.7,1.2-0.7,2.1v33.2c0,0.9,0.3,1.6,0.7,2.1l0.1,0.1l18.5-18.6V30v-0.2L15.7,11.2
			L15.6,11.3z"/>
		
			<linearGradient id="SVGID_2_" gradientUnits="userSpaceOnUse" x1="50.6261" y1="718.5" x2="14.4204" y2="718.5" gradientTransform="matrix(1 0 0 1 0 -688.5)">
			<stop  offset="0" style="stop-color:#FFE000"/>
			<stop  offset="0.4087" style="stop-color:#FFBD00"/>
			<stop  offset="0.7754" style="stop-color:#FFA500"/>
			<stop  offset="1" style="stop-color:#FF9C00"/>
		</linearGradient>
		<path class="st3" d="M40.4,36.4l-6.2-6.2V30v-0.2l6.2-6.2l0.1,0.1l7.3,4.2c2.1,1.2,2.1,3.1,0,4.3L40.4,36.4L40.4,36.4z"/>
		
			<linearGradient id="SVGID_3_" gradientUnits="userSpaceOnUse" x1="37.156" y1="721.944" x2="3.0608" y2="756.0393" gradientTransform="matrix(1 0 0 1 0 -688.5)">
			<stop  offset="0" style="stop-color:#FF3A44"/>
			<stop  offset="1" style="stop-color:#C31162"/>
		</linearGradient>
		<path class="st4" d="M40.6,36.3L34.3,30L15.7,48.7c0.7,0.7,1.8,0.8,3.1,0.1L40.6,36.3"/>
		
			<linearGradient id="SVGID_4_" gradientUnits="userSpaceOnUse" x1="10.8955" y1="688.7955" x2="26.1205" y2="704.0204" gradientTransform="matrix(1 0 0 1 0 -688.5)">
			<stop  offset="0" style="stop-color:#32A071"/>
			<stop  offset="6.850000e-02" style="stop-color:#2DA771"/>
			<stop  offset="0.4762" style="stop-color:#15CF74"/>
			<stop  offset="0.8009" style="stop-color:#06E775"/>
			<stop  offset="1" style="stop-color:#00F076"/>
		</linearGradient>
		<path class="st5" d="M40.6,23.7L18.7,11.2c-1.3-0.7-2.4-0.6-3.1,0.1L34.3,30L40.6,23.7z"/>
		<g>
			<path class="st6" d="M40.4,36.2L18.7,48.6c-1.2,0.7-2.3,0.6-3,0l0,0l-0.1,0.1l0,0l0.1,0.1l0,0c0.7,0.6,1.8,0.7,3,0l21.9-12.5
				L40.4,36.2z"/>
			<path class="st7" d="M15.6,48.5c-0.4-0.5-0.7-1.2-0.7-2.1v0.2c0,0.9,0.3,1.6,0.7,2.1l0.1-0.1L15.6,48.5z"/>
		</g>
		<path class="st7" d="M47.9,31.9l-7.5,4.2l0.1,0.1l7.3-4.2c1-0.6,1.6-1.4,1.6-2.2l0,0C49.4,30.7,48.9,31.4,47.9,31.9z"/>
		<path class="st8" d="M18.7,11.4L47.9,28c0.9,0.5,1.5,1.2,1.6,1.9l0,0c0-0.8-0.5-1.6-1.6-2.2L18.7,11.2c-2.1-1.2-3.8-0.2-3.8,2.2
			v0.2C14.9,11.2,16.6,10.2,18.7,11.4z"/>
	</g>
</g>
</svg>
