<?xml version="1.0" encoding="utf-8"?>
<!-- Generator: Adobe Illustrator 21.1.0, SVG Export Plug-In . SVG Version: 6.00 Build 0)  -->
<svg version="1.1" id="Isolation_Mode" xmlns="http://www.w3.org/2000/svg" xmlns:xlink="http://www.w3.org/1999/xlink" x="0px"
	 y="0px" viewBox="0 0 97.7 90.7" style="enable-background:new 0 0 97.7 90.7;" xml:space="preserve">
<style type="text/css">
	.st0{fill:#414141;}
	.st1{fill:url(#SVGID_1_);}
</style>
<g>
	<g>
		<path class="st0" d="M90.2,56.5h-12c-0.6,0-1,0.4-1,1s0.4,1,1,1h12c2.2,0,4,1.5,4,3.3V79h-16c-0.6,0-1,0.4-1,1s0.4,1,1,1h17
			c0.6,0,1-0.4,1-1V61.8C96.2,58.8,93.5,56.5,90.2,56.5z"/>
		<path class="st0" d="M84.2,53.5c5,0,9-4,9-9s-4-9-9-9s-9,4-9,9S79.2,53.5,84.2,53.5z M84.2,37.5c3.9,0,7,3.1,7,7s-3.1,7-7,7
			s-7-3.1-7-7S80.3,37.5,84.2,37.5z"/>
	</g>
	<g>
		<path class="st0" d="M8.2,58.5h12c0.6,0,1-0.4,1-1s-0.4-1-1-1h-12c-3.3,0-6,2.4-6,5.3V80c0,0.6,0.4,1,1,1h17c0.6,0,1-0.4,1-1
			s-0.4-1-1-1h-16V61.8C4.2,59.9,6,58.5,8.2,58.5z"/>
		<path class="st0" d="M14.2,53.5c5,0,9-4,9-9s-4-9-9-9s-9,4-9,9S9.2,53.5,14.2,53.5z M14.2,37.5c3.9,0,7,3.1,7,7s-3.1,7-7,7
			s-7-3.1-7-7S10.3,37.5,14.2,37.5z"/>
	</g>
	<g>
		<g>
			<path class="st0" d="M67.4,51.5h-10c-0.6,0-1,0.4-1,1s0.4,1,1,1h10c3.2,0,5.8,2.6,5.8,5.8v24.1h-48V59.2c0-3.2,2.6-5.8,5.8-5.8
				h10c0.6,0,1-0.4,1-1s-0.4-1-1-1h-10c-4.3,0-7.8,3.5-7.8,7.8v25.1c0,0.6,0.4,1,1,1c0,0,0.1,0,0.1,0h49.8c0,0,0.1,0,0.1,0
				c0.6,0,1-0.4,1-1V59.2C75.2,55,71.7,51.5,67.4,51.5z"/>
			<path class="st0" d="M49.6,44c9.6,0,17.5-7.8,17.5-17.5C67.1,16.8,59.2,9,49.6,9s-17.5,7.8-17.5,17.5C32.1,36.1,39.9,44,49.6,44z
				 M49.6,11c8.5,0,15.5,6.9,15.5,15.5S58.1,42,49.6,42s-15.5-7-15.5-15.5S41,11,49.6,11z"/>
		</g>
		<linearGradient id="SVGID_1_" gradientUnits="userSpaceOnUse" x1="22.0573" y1="27.3944" x2="77.0573" y2="27.3944">
			<stop  offset="0" style="stop-color:#39BBD7"/>
			<stop  offset="1" style="stop-color:#389DD7"/>
		</linearGradient>
		<path class="st1" d="M74.6,21h-1c-0.4,0-0.8,0.1-1.1,0.3C70,11,60.7,3.3,49.6,3.3S29.1,11,26.7,21.3C26.3,21.1,26,21,25.6,21h-1
			c-1.4,0-2.5,1.1-2.5,2.5v6c0,1.4,1.1,2.5,2.5,2.5h1c1.4,0,2.5-1.1,2.5-2.5v-3c0-11.7,9.6-21.2,21.5-21.2s21.5,9.5,21.5,21.2
			c0,9.9-7,18.4-16.7,20.6c-0.4-0.9-1.3-1.6-2.3-1.6h-5c-1.4,0-2.5,1.1-2.5,2.5v1c0,1.4,1.1,2.5,2.5,2.5h5c1.3,0,2.4-1,2.5-2.4
			c9-1.9,15.9-8.8,17.9-17.4c0.3,0.2,0.7,0.3,1.1,0.3h1c1.4,0,2.5-1.1,2.5-2.5v-6C77.1,22.1,75.9,21,74.6,21z M26.1,29.5
			c0,0.3-0.2,0.5-0.5,0.5h-1c-0.3,0-0.5-0.2-0.5-0.5v-6c0-0.3,0.2-0.5,0.5-0.5h1c0.3,0,0.5,0.2,0.5,0.5V29.5z M52.6,49
			c0,0.3-0.2,0.5-0.5,0.5h-5c-0.3,0-0.5-0.2-0.5-0.5v-1c0-0.3,0.2-0.5,0.5-0.5h5c0.3,0,0.5,0.2,0.5,0.5V49z M75.1,29.5
			c0,0.3-0.2,0.5-0.5,0.5h-1c-0.3,0-0.5-0.2-0.5-0.5v-6c0-0.3,0.2-0.5,0.5-0.5h1c0.3,0,0.5,0.2,0.5,0.5V29.5z"/>
	</g>
</g>
</svg>
