<?xml version="1.0" encoding="utf-8"?>
<!-- Generator: Adobe Illustrator 21.1.0, SVG Export Plug-In . SVG Version: 6.00 Build 0)  -->
<svg version="1.1" id="Isolation_Mode" xmlns="http://www.w3.org/2000/svg" xmlns:xlink="http://www.w3.org/1999/xlink" x="0px"
	 y="0px" viewBox="0 0 185.7 67.3" style="enable-background:new 0 0 185.7 67.3;" xml:space="preserve">
<style type="text/css">
	.st0{fill:#414141;}
	.st1{fill:url(#SVGID_1_);}
	.st2{fill:url(#SVGID_2_);}
	.st3{fill:url(#SVGID_3_);}
	.st4{fill:url(#SVGID_4_);}
	.st5{fill:url(#SVGID_5_);}
</style>
<g>
	<g>
		<path class="st0" d="M26.4,21.4c0.2,0.1,0.3,0.1,0.5,0.1c0.4,0,0.7-0.2,0.9-0.5l1.4-2.5l13.3-1.9c0.5-0.1,0.9-0.6,0.8-1.1
			c-0.1-0.5-0.6-0.9-1.1-0.8l-13.8,2c-0.3,0-0.6,0.2-0.7,0.5L26,20C25.8,20.5,25.9,21.1,26.4,21.4z"/>
		<path class="st0" d="M74.6,16.5l7.7,1.4c0.1,0,0.1,0,0.2,0c0.5,0,0.9-0.3,1-0.8c0.1-0.5-0.3-1.1-0.8-1.2l-7.7-1.4
			c-0.5-0.1-1.1,0.3-1.2,0.8C73.7,15.9,74,16.4,74.6,16.5z"/>
		<path class="st0" d="M183.8,62.8l-17.9-31.9c-0.3-0.5-0.9-0.7-1.4-0.4c-0.5,0.3-0.7,0.9-0.4,1.4L181,61.9l-44.3-7.4l-7.3-26.7
			c-0.1-0.5-0.7-0.8-1.2-0.7c-0.5,0.1-0.8,0.7-0.7,1.2l7.2,26.3L94,63.7V37c0-0.6-0.4-1-1-1s-1,0.4-1,1v26.7l-40.9-9L55,40.9
			c0.1-0.5-0.2-1.1-0.7-1.2c-0.5-0.2-1.1,0.2-1.2,0.7l-4,14.2L4.8,62L16,42.1c0.3-0.5,0.1-1.1-0.4-1.4c-0.5-0.3-1.1-0.1-1.4,0.4
			L2,62.9c-0.2,0.3-0.2,0.8,0.1,1.1c0.2,0.3,0.5,0.4,0.8,0.4c0.1,0,0.1,0,0.2,0l46.8-7.9l42.9,9.5c0.1,0,0.1,0,0.2,0c0,0,0,0,0,0
			c0,0,0,0,0,0s0,0,0,0c0,0,0,0,0,0c0.1,0,0.1,0,0.2,0l42.7-9.5l46.8,7.9c0.1,0,0.1,0,0.2,0c0.3,0,0.6-0.2,0.8-0.4
			C183.9,63.5,184,63.1,183.8,62.8z"/>
		<path class="st0" d="M104,17.4l19.5-3.5l1.5,5.6c0.1,0.4,0.5,0.7,1,0.7c0.1,0,0.2,0,0.3,0c0.5-0.1,0.8-0.7,0.7-1.2l-1.4-5
			l16.1,2.3c0.5,0.1,1.1-0.3,1.1-0.8c0.1-0.5-0.3-1.1-0.8-1.1l-17.6-2.5c-0.1,0-0.2,0-0.3,0c0,0,0,0,0,0l-20.4,3.7
			c-0.5,0.1-0.9,0.6-0.8,1.2C102.9,17.2,103.4,17.5,104,17.4z"/>
	</g>
	<g>
		<g>
			<g>
				<linearGradient id="SVGID_1_" gradientUnits="userSpaceOnUse" x1="46.2532" y1="24.5055" x2="71.2644" y2="24.5055">
					<stop  offset="0" style="stop-color:#39BBD7"/>
					<stop  offset="1" style="stop-color:#389DD7"/>
				</linearGradient>
				<path class="st1" d="M58.8,41.9c-0.3,0-0.7-0.2-0.9-0.5l-2.1-3.4l0,0l-7.9-13c-2.2-3.6-2.3-7.9-0.3-11.6
					c2.1-3.9,6.1-6.3,10.6-6.4c0.3,0,0.6,0,0.9,0c4.5,0.1,8.5,2.6,10.6,6.4c2,3.7,1.9,8-0.3,11.6l-9.9,16.3
					C59.4,41.8,59.1,41.9,58.8,41.9z M57.6,37l1.2,2l9.1-14.9c1.8-3,1.9-6.6,0.2-9.6c-1.8-3.3-5.1-5.3-8.9-5.4c-0.3,0-0.5,0-0.8,0
					c-3.8,0.1-7.2,2.1-8.9,5.4c-1.7,3.1-1.6,6.6,0.2,9.6L57.6,37z"/>
			</g>
			<g>
				<linearGradient id="SVGID_2_" gradientUnits="userSpaceOnUse" x1="50.6357" y1="19.4157" x2="66.8823" y2="19.4157">
					<stop  offset="0" style="stop-color:#39BBD7"/>
					<stop  offset="1" style="stop-color:#389DD7"/>
				</linearGradient>
				<path class="st2" d="M58.8,27.5c-4.5,0-8.1-3.6-8.1-8.1s3.6-8.1,8.1-8.1c4.5,0,8.1,3.6,8.1,8.1S63.2,27.5,58.8,27.5z M58.8,13.3
					c-3.4,0-6.1,2.7-6.1,6.1s2.7,6.1,6.1,6.1s6.1-2.7,6.1-6.1S62.1,13.3,58.8,13.3z"/>
			</g>
			<g>
				<linearGradient id="SVGID_3_" gradientUnits="userSpaceOnUse" x1="57.7588" y1="19.4157" x2="59.7588" y2="19.4157">
					<stop  offset="0" style="stop-color:#39BBD7"/>
					<stop  offset="1" style="stop-color:#389DD7"/>
				</linearGradient>
				<path class="st3" d="M58.8,23.7c-0.6,0-1-0.4-1-1v-6.6c0-0.6,0.4-1,1-1s1,0.4,1,1v6.6C59.8,23.3,59.3,23.7,58.8,23.7z"/>
			</g>
			<g>
				<linearGradient id="SVGID_4_" gradientUnits="userSpaceOnUse" x1="54.4707" y1="19.4157" x2="63.0474" y2="19.4157">
					<stop  offset="0" style="stop-color:#39BBD7"/>
					<stop  offset="1" style="stop-color:#389DD7"/>
				</linearGradient>
				<path class="st4" d="M62,20.4h-6.6c-0.6,0-1-0.4-1-1s0.4-1,1-1H62c0.6,0,1,0.4,1,1S62.6,20.4,62,20.4z"/>
			</g>
		</g>
	</g>
	<path class="st0" d="M30.5,27.2c-1.5-2.7-4.2-4.4-7.4-4.5c-0.2,0-0.5,0-0.7,0c-3.1,0.1-5.9,1.8-7.4,4.5c-1.4,2.6-1.3,5.6,0.2,8.1
		l3.8,6.3c0,0,0,0,0,0c0,0.1,0.1,0.1,0.1,0.1c0,0,0.1,0.1,0.1,0.1c0,0,0,0,0,0c0.1,0.1,0.2,0.1,0.3,0.1c0,0,0,0,0,0
		c0.1,0,0.1,0,0.2,0c0,0,0.1,0,0.1,0c0,0,0,0,0.1,0c0.1,0,0.2-0.1,0.3-0.1c0,0,0,0,0,0c0,0,0,0,0,0c0.1-0.1,0.2-0.1,0.2-0.2
		c0,0,0,0,0.1-0.1c0,0,0,0,0,0l2.5-4.2c0.8-0.1,1.3-0.6,1.7-1.3l2.5-4.3c0.4-0.7,0.5-1.6,0.1-2.4c-0.3-0.8-0.9-1.3-1.7-1.6
		c-0.1,0-0.1,0-0.2,0c-0.1,0-0.1,0-0.2,0c-0.2-0.2-0.5-0.3-0.8-0.3c-0.6,0-1.2,0.5-1.2,1.2c0,0.7,0.5,1.2,1.2,1.2
		c0.2,0,0.4-0.1,0.5-0.1c0,0,0,0,0,0c0.3,0.1,0.4,0.3,0.4,0.4c0.1,0.2,0.1,0.5,0,0.7l-2.5,4.3c-0.1,0.2-0.2,0.3-0.6,0.3
		s-0.5-0.1-0.6-0.4l-2.5-4.3c-0.1-0.2-0.1-0.5,0-0.7c0-0.1,0.2-0.3,0.5-0.4c0.2,0.1,0.3,0.1,0.5,0.1c0.6,0,1.2-0.5,1.2-1.2
		c0-0.7-0.5-1.2-1.2-1.2c-0.3,0-0.6,0.1-0.8,0.3c-0.1,0-0.1,0-0.2,0c-0.1,0-0.1,0-0.2,0c-0.8,0.2-1.4,0.8-1.7,1.6
		c-0.3,0.8-0.3,1.7,0.2,2.4l2.5,4.3c0.2,0.4,0.5,0.7,0.8,0.9l-1.3,2.1l-3-4.9c-1.1-1.9-1.2-4.1-0.1-6.1c1.1-2.1,3.2-3.3,5.7-3.4
		c0.2,0,0.3,0,0.5,0c2.4,0.1,4.5,1.4,5.7,3.4c1,1.9,1,4.2-0.2,6.1l-5.8,9.5l-0.5-0.8c-0.3-0.5-0.9-0.6-1.4-0.3
		c-0.5,0.3-0.6,0.9-0.3,1.4l1.4,2.2c0.2,0.3,0.5,0.5,0.9,0.5s0.7-0.2,0.9-0.5l6.6-10.9C31.9,32.8,31.9,29.8,30.5,27.2z"/>
	<path class="st0" d="M125.9,34.2c-1.5-2.7-4.2-4.4-7.4-4.5l-0.3,0l-0.3,0c-3.1,0.1-5.9,1.8-7.4,4.5c-1.4,2.6-1.3,5.6,0.2,8.1
		l3.8,6.3c0,0,0,0,0,0c0,0.1,0.1,0.1,0.1,0.1c0,0,0.1,0.1,0.1,0.1c0,0,0,0,0,0c0.1,0.1,0.2,0.1,0.3,0.1c0,0,0,0,0,0
		c0.1,0,0.1,0,0.2,0c0,0,0.1,0,0.1,0c0,0,0.1,0,0.1,0c0.1,0,0.2-0.1,0.3-0.1c0,0,0,0,0,0c0,0,0,0,0,0c0.1-0.1,0.2-0.1,0.2-0.2
		c0,0,0,0,0.1-0.1c0,0,0,0,0,0l2.5-4.2c0.8-0.1,1.3-0.6,1.7-1.3l2.5-4.3c0.4-0.7,0.5-1.6,0.1-2.4c-0.3-0.8-0.9-1.3-1.7-1.6
		c-0.1,0-0.1,0-0.2-0.1c-0.1,0-0.1,0-0.2,0c-0.2-0.2-0.5-0.3-0.8-0.3c-0.6,0-1.2,0.5-1.2,1.2s0.5,1.2,1.2,1.2c0.2,0,0.4-0.1,0.5-0.1
		c0,0,0,0,0,0c0.3,0.1,0.4,0.3,0.4,0.4c0.1,0.2,0.1,0.5,0,0.7l-2.5,4.3c-0.1,0.2-0.2,0.3-0.6,0.3s-0.5-0.1-0.6-0.4l-2.5-4.3
		c-0.1-0.2-0.1-0.5,0-0.7c0-0.1,0.2-0.3,0.4-0.4c0,0,0,0,0,0c0.2,0.1,0.3,0.1,0.5,0.1c0.6,0,1.2-0.5,1.2-1.2s-0.5-1.2-1.2-1.2
		c-0.3,0-0.6,0.1-0.8,0.3c-0.1,0-0.1,0-0.2,0c-0.1,0-0.1,0-0.2,0.1c-0.8,0.2-1.4,0.8-1.7,1.6c-0.3,0.8-0.3,1.7,0.2,2.4l2.5,4.3
		c0.2,0.4,0.5,0.7,0.8,0.9l-1.3,2.1l-3-4.9c-1.1-1.9-1.2-4.1-0.2-6.1c1.1-2.1,3.2-3.3,5.7-3.4l0.3,0l0.3,0c2.4,0.1,4.5,1.4,5.7,3.4
		c1,1.9,1,4.2-0.2,6.1l-5.8,9.5l-0.5-0.8c-0.3-0.5-0.9-0.6-1.4-0.3c-0.5,0.3-0.6,0.9-0.3,1.4l1.4,2.2c0.2,0.3,0.5,0.5,0.9,0.5
		s0.7-0.2,0.9-0.5l6.6-10.9C127.2,39.8,127.3,36.7,125.9,34.2z"/>
	<path class="st0" d="M100.7,6.5c-1.5-2.7-4.2-4.4-7.4-4.5c-0.2,0-0.5,0-0.7,0c-3.1,0.1-5.9,1.8-7.4,4.5c-1.4,2.6-1.3,5.6,0.2,8.1
		l3.8,6.3c0,0,0,0,0,0c0,0.1,0.1,0.1,0.1,0.1c0,0,0.1,0.1,0.1,0.1c0,0,0,0,0,0c0.1,0.1,0.2,0.1,0.3,0.1c0,0,0,0,0,0
		c0.1,0,0.1,0,0.2,0c0,0,0.1,0,0.1,0c0,0,0,0,0.1,0c0.1,0,0.2-0.1,0.3-0.1c0,0,0,0,0,0c0,0,0,0,0,0c0.1-0.1,0.2-0.1,0.2-0.2
		c0,0,0,0,0.1-0.1c0,0,0,0,0,0l2.5-4.2c0.8-0.1,1.3-0.6,1.7-1.3l2.5-4.3c0.4-0.7,0.5-1.6,0.1-2.4c-0.3-0.8-0.9-1.3-1.7-1.6
		c-0.1,0-0.1,0-0.2,0c-0.1,0-0.1,0-0.2,0c-0.2-0.2-0.5-0.3-0.8-0.3C94.5,6.8,94,7.3,94,8c0,0.7,0.5,1.2,1.2,1.2
		c0.2,0,0.4-0.1,0.5-0.1c0,0,0,0,0,0c0.3,0.1,0.4,0.3,0.4,0.4c0.1,0.2,0.1,0.5,0,0.7l-2.5,4.3c-0.1,0.2-0.2,0.3-0.6,0.3
		s-0.5-0.1-0.6-0.4l-2.5-4.3c-0.1-0.2-0.1-0.5,0-0.7c0-0.1,0.2-0.3,0.5-0.4c0.2,0.1,0.3,0.1,0.5,0.1C91.5,9.2,92,8.6,92,8
		c0-0.7-0.5-1.2-1.2-1.2c-0.3,0-0.6,0.1-0.8,0.3c-0.1,0-0.1,0-0.2,0c-0.1,0-0.1,0-0.2,0C89,7.4,88.3,8,88,8.7
		c-0.3,0.8-0.3,1.7,0.2,2.4l2.5,4.3c0.2,0.4,0.5,0.7,0.8,0.9l-1.3,2.1l-3-4.9c-1.1-1.9-1.2-4.1-0.1-6.1c1.1-2.1,3.2-3.3,5.7-3.4
		c0.2,0,0.3,0,0.5,0c2.4,0.1,4.5,1.4,5.7,3.4c1,1.9,1,4.2-0.2,6.1L93,23.1l-0.5-0.8c-0.3-0.5-0.9-0.6-1.4-0.3
		c-0.5,0.3-0.6,0.9-0.3,1.4l1.4,2.2c0.2,0.3,0.5,0.5,0.9,0.5s0.7-0.2,0.9-0.5l6.6-10.9C102,12.1,102.1,9.1,100.7,6.5z"/>
	<linearGradient id="SVGID_5_" gradientUnits="userSpaceOnUse" x1="145.1745" y1="19.3796" x2="170.1856" y2="19.3796">
		<stop  offset="0" style="stop-color:#39BBD7"/>
		<stop  offset="1" style="stop-color:#389DD7"/>
	</linearGradient>
	<path class="st5" d="M168.8,8.4c-2.1-3.9-6.1-6.3-10.6-6.4c-0.3,0-0.6,0-0.9,0c-4.5,0.1-8.5,2.5-10.6,6.4c-2,3.7-1.9,8,0.3,11.6
		l5.8,9.5c0,0,0,0,0,0c0,0.1,0.1,0.1,0.1,0.1c0,0,0.1,0.1,0.1,0.1c0,0,0,0,0,0c0.1,0.1,0.2,0.1,0.3,0.1c0,0,0,0,0.1,0
		c0.1,0,0.1,0,0.2,0c0,0,0.1,0,0.1,0c0,0,0.1,0,0.1,0c0.1,0,0.2-0.1,0.3-0.1c0,0,0,0,0,0c0,0,0,0,0,0c0.1-0.1,0.2-0.1,0.2-0.2
		c0,0,0,0,0.1-0.1c0,0,0,0,0,0l3.9-6.4c1.1-0.2,1.9-0.7,2.5-1.7l3.7-6.5c0.5-1,0.6-2.2,0.2-3.2c-0.4-1-1.2-1.7-2.2-2.1
		c-0.1,0-0.1,0-0.2-0.1c0,0,0,0-0.1,0c-0.3-0.4-0.7-0.7-1.3-0.7c-0.8,0-1.5,0.7-1.5,1.6s0.7,1.6,1.5,1.6c0.4,0,0.7-0.2,1-0.4
		c0.4,0.1,0.7,0.5,0.9,0.9c0.2,0.5,0.2,1-0.1,1.5l-3.7,6.5c-0.3,0.5-0.6,0.8-1.3,0.8c-0.8,0-1.1-0.3-1.3-0.8l-3.7-6.4
		c-0.3-0.5-0.3-1-0.1-1.5c0.2-0.4,0.5-0.7,0.9-0.9c0.3,0.2,0.6,0.4,1,0.4c0.8,0,1.5-0.7,1.5-1.6s-0.7-1.6-1.5-1.6
		c-0.5,0-1,0.3-1.3,0.7c0,0,0,0-0.1,0c-0.1,0-0.2,0-0.2,0.1c-1,0.3-1.8,1.1-2.2,2.1c-0.4,1-0.4,2.2,0.2,3.2l3.7,6.4
		c0.4,0.7,0.9,1.2,1.5,1.5l-2.6,4.3l-4.9-8.1c-1.8-3-1.9-6.6-0.2-9.6c1.8-3.3,5.1-5.3,8.9-5.4c0.3,0,0.5,0,0.8,0
		c3.8,0.1,7.2,2.1,8.9,5.4c1.7,3.1,1.6,6.6-0.2,9.6l-9.1,14.9l-1.2-2c-0.3-0.5-0.9-0.6-1.4-0.3c-0.5,0.3-0.6,0.9-0.3,1.4l2.1,3.4
		c0.2,0.3,0.5,0.5,0.9,0.5s0.7-0.2,0.9-0.5l9.9-16.3C170.6,16.4,170.8,12.1,168.8,8.4z"/>
</g>
</svg>
