<?xml version="1.0" encoding="utf-8"?>
<!-- Generator: Adobe Illustrator 21.1.0, SVG Export Plug-In . SVG Version: 6.00 Build 0)  -->
<svg version="1.1" id="Layer_1" xmlns="http://www.w3.org/2000/svg" xmlns:xlink="http://www.w3.org/1999/xlink" x="0px" y="0px"
	 viewBox="0 0 30 38" style="enable-background:new 0 0 30 38;" xml:space="preserve">
<style type="text/css">
	.st0{fill:url(#SVGID_1_);}
</style>
<linearGradient id="SVGID_1_" gradientUnits="userSpaceOnUse" x1="15" y1="0" x2="15" y2="38">
	<stop  offset="0" style="stop-color:#39BBD7"/>
	<stop  offset="1" style="stop-color:#389DD7"/>
</linearGradient>
<path class="st0" d="M23.4,0H6.6C3,0,0,3,0,6.7v17.1c0,3.7,3,6.7,6.6,6.7h3.7c0,0,0,0,0,0c0,0,0.1,0,0.1,0c0,0,0,0,0.1,0
	c0.1,0,0.2-0.1,0.3-0.1c0,0,0,0,0,0c0,0,0,0,0,0c0.1-0.1,0.1-0.1,0.2-0.2c0,0,0,0,0,0c0,0,0,0,0,0l4.5-7.2c1.2-0.1,2.1-0.7,2.8-1.8
	l4.2-7.1c0.6-1,0.7-2.2,0.2-3.3c-0.4-1.1-1.3-1.9-2.4-2.2c0,0-0.1,0-0.1,0c-0.3-0.6-0.9-1-1.6-1c-0.9,0-1.7,0.8-1.7,1.7
	c0,1,0.8,1.7,1.7,1.7c0.5,0,1-0.2,1.3-0.6c0.5,0.2,0.9,0.6,1.1,1.1c0.2,0.6,0.2,1.2-0.1,1.7l-4.2,7.1c-0.3,0.6-0.7,0.9-1.7,0.9
	c-1,0-1.4-0.4-1.7-1l-4.2-7.1C8.8,12.6,8.8,12,9,11.4c0.2-0.5,0.6-0.9,1.1-1.1c0.3,0.4,0.8,0.6,1.3,0.6c0.9,0,1.7-0.8,1.7-1.7
	c0-1-0.8-1.7-1.7-1.7c-0.7,0-1.3,0.4-1.6,1c0,0-0.1,0-0.1,0c-1.1,0.3-1.9,1.1-2.4,2.2C6.9,11.8,7,13,7.6,14.1l4.2,7.1
	c0.4,0.8,1,1.3,1.8,1.6l-3.2,5.1l-5.7-9.3c-2-3.3-2.2-7.1-0.4-10.4C6.1,4.4,10,2,14.5,1.9c0.3,0,0.6,0,0.9,0C20,2,23.9,4.4,25.8,8.2
	c1.8,3.4,1.6,7.2-0.4,10.4L15,35.3l-1.5-2.5c-0.3-0.4-0.8-0.6-1.3-0.3c-0.4,0.3-0.5,0.8-0.3,1.3l2.3,3.7c0.2,0.3,0.5,0.4,0.8,0.4
	c0.3,0,0.6-0.2,0.8-0.4l4.3-7h3.3c3.6,0,6.6-3,6.6-6.7V6.7C30,3,27,0,23.4,0z M3,19.6l5.6,9.1H6.6c-2.6,0-4.8-2.2-4.8-4.9V17
	C2.1,17.9,2.5,18.8,3,19.6z M2.6,7.3C2.3,7.9,2,8.5,1.8,9.1V6.7C1.8,4,4,1.9,6.6,1.9h1.2C5.6,3.1,3.8,5,2.6,7.3z M22.2,1.9h1.2
	c2.6,0,4.8,2.2,4.8,4.9v2.3c-0.2-0.6-0.4-1.2-0.7-1.8C26.2,5,24.4,3.1,22.2,1.9z M23.4,28.7h-2.1l5.7-9.1c0.5-0.8,0.9-1.7,1.2-2.6
	v6.9C28.2,26.5,26,28.7,23.4,28.7z"/>
</svg>
