<?xml version="1.0" encoding="utf-8"?>
<!-- Generator: Adobe Illustrator 21.1.0, SVG Export Plug-In . SVG Version: 6.00 Build 0)  -->
<svg version="1.1" id="Layer_1" xmlns="http://www.w3.org/2000/svg" xmlns:xlink="http://www.w3.org/1999/xlink" x="0px" y="0px"
	 viewBox="0 0 100.1 283" style="enable-background:new 0 0 100.1 283;" xml:space="preserve">
<style type="text/css">
	.st0{fill:#AB6728;}
	.st1{fill:#8E5222;}
	.st2{fill:#F09A6D;}
	.st3{fill:#433F3A;}
	.st4{fill:#66A6D1;}
	.st5{fill:#F9A982;}
	.st6{fill:#80B7E2;}
	.st7{fill:#EEF5FC;}
	.st8{fill:#F9A983;}
	.st9{fill:#EDF5FC;}
	.st10{fill:#DFE5ED;}
	.st11{fill:#222D21;}
	.st12{fill:#FFFFFF;}
	.st13{fill:#764627;}
	.st14{fill:#C77736;}
	.st15{fill:#F06D70;}
	.st16{fill:#A94C54;}
</style>
<g>
	<path class="st0" d="M87.8,60.9c-6.8,4.9-14.9,4.2-20.5,2.8c-4-1-6.7-2.3-6.7-2.3s-10-4.1-11.2-9.5c-1.2-5.3-2.6-6.3,0.9-25
		c0,0-0.2-0.3-0.5-0.8c0,0,0,0,0,0c-1.1-1.8-3.7-6.4-3.9-10.9c-0.1-1.3,0.1-2.6,0.5-3.8c2.1-6.1,7.2-9,16.9-7.9
		c0.7,0.1,1.3,0.2,2,0.3c0,0,2.1-2.1,5.8-3.2c0.3-0.1,0.7-0.2,1-0.3c2.5-0.6,5.6-0.6,9.2,0.5c6.1,2,10.5,7.8,12.8,14.4
		c0.2,0.6,0.4,1.2,0.6,1.9c1.1,3.5,1.5,7.1,1.4,10.4C95.7,37.7,99.3,52.6,87.8,60.9z"/>
	<path class="st1" d="M72.1,55.6c0,0-3,5.4-4.8,8.2c-4-1-6.7-2.3-6.7-2.3s-10-4.1-11.2-9.5c-1.2-5.3-2.6-6.3,0.9-25l3.7-6.3
		c0,0,7,3.3,8.5,5.1c1.5,1.8,8.7,17.7,8.7,17.7L72.1,55.6z"/>
	<g>
		<path class="st2" d="M93.1,231c-1.1-24-14.8-45.7-14.8-45.7l-7.9,1.7l2.5,25.6c0-0.1,13.9,42,13.1,54.1c-0.2,3.5-4,7.1-4.3,7.4
			c0,0,0,0,0,0c9.6-0.8,14.1-13.3,14.1-13.3S94.1,255,93.1,231z"/>
		<path class="st3" d="M100.1,283h-3.4c0,0-1.5-10.3-1.6-10.3c0,0.2-3.2,6.8-4.5,9.3c-0.3,0.6-0.9,1-1.6,1H69.2c0,0-0.8-0.9,0-1.5
			c0.8-0.6,12.5-7.4,12.5-7.4c9.6-0.8,14.1-13.3,14.1-13.3c0.1-0.2,0.3-0.5,0.4-0.7c0.8-0.1,3,1.1,3,2.5
			C99.4,265.3,100,279,100.1,283z"/>
	</g>
	<path class="st4" d="M84.5,257.4l11.3-5.6c-2.3-3.2,4.2-37.6-24.6-82.1c-3.3-5.2-7.2-10.5-11.6-15.9l-9.7,0.8
		C65.4,193.7,79.7,230.3,84.5,257.4z"/>
	<g>
		<path class="st5" d="M79.6,187.6l-5.4-2.3l-12.3,5.5c0,0,6.2,54.4-13.9,84c0,0,8.2,3.9,15.6-13.6c0.1-0.3,0.2-0.5,0.3-0.8
			C71.8,242.1,80.6,218.7,79.6,187.6z"/>
		<path class="st3" d="M65.1,283h-3.3c0,0-0.6-10.3-0.6-10.3c0,0.2-3.9,6.8-5.3,9.3c-0.4,0.6-1,1-1.7,1H33.8c0,0-0.9-0.9,0-1.5
			c0.9-0.6,14.2-6.6,14.2-6.6s8.2,3.9,15.6-13.6c0.1-0.3,0.2-0.5,0.3-0.8c0.8-0.1,2.3,0.9,2.3,2.3C66.5,265.3,65,279,65.1,283z"/>
	</g>
	<path class="st6" d="M53.2,263.2l13.2-5c10.7-24.3,16.6-64.9,23.8-108.9l-28,2.6C62.2,152,63.9,215.3,53.2,263.2z"/>
	<path class="st4" d="M59.5,158.6c0,0,26-2.2,30.4-4.1C89.9,158.5,57,163.9,59.5,158.6z"/>
	<path class="st2" d="M19,102.5c0,0-2.7-1.6-3.7-2.9s-2.8-1.9-3.5-1c-0.7,0.9,0.9,2.5,1.9,3.2c0,0-9.3,0.4-12.4,2.4
		c0,0-2.7,2.1-0.4,4.8s6.3,2.5,6.3,2.5s9.5,0,13.6-3L19,102.5z"/>
	<path class="st4" d="M49.1,82.2c2.8,0.1,5.7,0.1,8.5,0.3l1.5-19.9c0,0-10.7,1.2-9.8,18.4L49.1,82.2z"/>
	<path class="st2" d="M48.3,88.4l-0.6,4.9c0,0,3,16.6-28.7,9.2l-0.3,7.2c1.7-1.6,20.7,6.4,35.4-0.4l1-2.7L57,90.1
		C54.1,90.1,50.6,89.2,48.3,88.4z"/>
	<path class="st6" d="M84.4,103.1l-2.1,6.2c10.5,10.9,13.4,33.6,13.5,41.5c0,1.5-0.9,2.9-2.4,3.4c-17.4,5.9-43.3,4.9-44.4,2.9
		c-0.4-0.8,0.2-7,1.1-14.5c0-0.1,0-0.2,0-0.2c0.1-0.8,0.2-1.7,0.3-2.5c0.6-4.9,1.4-10.2,2-14.7c0,0,0,0,0-0.1
		c1-6.6,1.7-11.6,1.7-11.6c-0.1-11.6-6.7-20.2-6.7-20.2s-1.5-3.1-1.3-4.8c0.2-3.1,2.4-6.7,2.4-6.7c3.5-5.7,6.9-11.3,9.2-17.5
		c0.5-1.3,1.4-2.3,2.6-2.9c6-3.2,11.1-3.5,14.2-3.2c0.9,0.1,1.6,0.2,2.1,0.3c0.8,0.2,1.3,0.4,1.3,0.4s0.9,0.2,2.3,0.4
		c0.6,0.1,1.4,0.2,2.1,0.4c1.2,0.2,2.5,0.4,3.9,0.7c1.2,0.2,2.4,0.4,3.5,0.6c1.3,0.2,2.5,0.4,3.4,0.5c5,0.6,4.9,8,4.9,8
		s0.2,21.8,0,26.5c-0.2,4.7-2.9,8.1-6,8.5c-0.6,0.1-1.3,0-2-0.2c-1.1-0.3-2.2-0.9-3.2-1.4c-0.3-0.2-0.6-0.4-0.8-0.5
		c-0.8-0.5-1.3-0.9-1.3-0.9L84.4,103.1z"/>
	<g>
		<path class="st4" d="M62.1,110.9c-0.1,3.1-0.5,7.1-0.8,11.2c-0.8,10.6-1.7,27.6-0.9,36.5c-0.2,0-0.7,0-0.9,0
			c-0.9-9-0.1-25.7,0.7-36.6c0.3-4.2,0.6-8.1,0.8-11.2c0.5-10.7-1-26-1-26.1c-0.1-0.3,0.1-0.6,0.4-0.6c0.3-0.1,0.6,0.1,0.6,0.4
			C61,84.6,62.6,100,62.1,110.9z"/>
	</g>
	<path class="st7" d="M59.1,72.6c-1.4,7.2,0,10.5,1,12.5c0.3,0.7,0.3,1.2,0.3,1.2l0.6-0.8c2.6-7.1,11.5-12.8,11.5-12.8H59.1z"/>
	<path class="st4" d="M94.2,97.7c-0.4,1.2-1.8,5.3-3.7,6.6c-1.5-0.4-3-1.3-4-2c-2.8-4.4-6.1-15.9-6-43c2.4,0.4,5.1,0.9,8.4,1.4
		c1,11,4.3,32.1,5.3,36.2C94.3,97.3,94.2,97.5,94.2,97.7z"/>
	<path class="st6" d="M82.6,59.8L82,67.6l-4.2-2c0,0-4.1-3.1-4.4-3.1c0-0.2,0.8-2.5,1.4-4.3c0.9,0.1,1.6,0.2,2.1,0.3
		c0.8,0.2,1.3,0.4,1.3,0.4s0.9,0.2,2.3,0.4C81.1,59.5,81.8,59.6,82.6,59.8z"/>
	<path class="st2" d="M68.9,51.9l0.4,8.6c0,0-6.9,0.2-8.2,4.4c-1.2,4.3-2,7.6-2,7.6h13.4l5.4-6.9c0,0-5.8-3.3,1.9-14.9L68.9,51.9z"
		/>
	<path class="st8" d="M80.8,49.1c-3.3,2.5-17,4.8-18.4,4.2c-1.5-0.6-1.6-2.4-4.7-7.4c-3.1-5-4.3-9.6-3.7-12.7s0-12.6,0-12.6L64,8.6
		c0.3,6.9,4.4,11.1,9.1,15.1c1.5,1.3,3,2.5,4.5,3.8c1.6,1.4,3.2,2.8,4.6,4.4C82.2,31.9,84.1,46.7,80.8,49.1z"/>
	<path class="st9" d="M86.7,27.9l7,5c0.6,0.5,0.8,1.3,0.4,2L82,53.2c-0.4,0.7-1.3,0.9-2,0.4l-7.3-4.7c-0.7-0.4-0.9-1.4-0.4-2
		l12.3-18.6C85.1,27.6,86,27.4,86.7,27.9z"/>
	<path class="st10" d="M87.7,28.6l7,4.9c0.6,0.5,0.8,1.3,0.4,2L82.9,53.9c-0.4,0.7-1.3,0.9-2,0.4l-7.3-4.7c-0.7-0.4-0.9-1.4-0.4-2
		L85.6,29C86.1,28.3,87,28.1,87.7,28.6z"/>
	<path class="st2" d="M86.6,52.2c0,0,1.6-2.5,2.9-3.5c1.3-0.9,1.9-2.6,1.1-3.3c-0.8-0.7-2.4,0.8-3.1,1.8c0,0,0.2-8.6-1.7-11.6
		c0,0-1.9-2.6-4.5-0.5c-2.6,2.1-2.5,6-2.5,6s-0.6,8.7,2.2,12.7L86.6,52.2z"/>
	<g>
		<circle class="st11" cx="56.1" cy="81.1" r="3"/>
		<circle class="st12" cx="55.8" cy="80.9" r="2.7"/>
		<circle class="st11" cx="55.7" cy="80.6" r="2.2"/>
		<path class="st11" d="M69.2,58.8c-2,0.1-4,1.1-5.3,2.6c-1.4,1.5-2.3,3.6-2.7,5.6c-0.4,2.2-1,4.4-1.8,6.5c-0.4,1.1-0.9,2.1-1.3,3.1
			c-0.5,1-0.9,2-1.1,2.9l-1.8-0.5c0.3-1.2,0.9-2.2,1.4-3.2c0.5-1,1-1.9,1.5-2.9c0.9-2,1.6-4,2.1-6.2c0.5-2.2,1.4-4.4,3-6.2
			c1.6-1.7,3.7-2.8,6.1-3C69.2,57.9,69.2,58.5,69.2,58.8z"/>
		<g>
			<path class="st11" d="M73.3,74.7l-1.1,0c0.1-3.9,1.7-5.2,3.4-6.6c1.1-0.9,2.2-1.8,3.1-3.7c0.5-1.2,0.6-2.2,0.2-3
				c-0.7-1.4-2.5-2.1-3-2.3c0.1-0.4,0.1-0.8,0.2-1c0.6,0.2,2.9,1,3.8,2.9c0.5,1.2,0.5,2.5-0.2,4c-1,2-2.3,3.1-3.4,4
				C74.6,70.2,73.4,71.3,73.3,74.7z"/>
		</g>
		<g>
			<path class="st12" d="M78.4,76.9l-6,10.7l0,0c-0.3,0.6-0.6,1-1.1,1.4c-0.4,0.4-1,0.7-1.6,0.9c-0.6,0.1-1.3,0.1-1.8,0
				c-0.3-0.1-0.6-0.2-0.8-0.3c-0.3-0.1-0.5-0.3-0.8-0.4l0.4-0.7c0.4,0.3,0.9,0.5,1.4,0.6c0.5,0.1,0.9,0.1,1.4,0
				c0.4-0.1,0.9-0.4,1.2-0.7c0.3-0.3,0.7-0.8,0.9-1.2l0,0l0,0l5.8-10.8L78.4,76.9z"/>
		</g>
		<g>
			<path class="st12" d="M73.3,74.9l-0.6,12.7l0-0.1c0,0.4,0.2,0.8,0.4,1.2c0.2,0.4,0.4,0.7,0.8,1c0.3,0.3,0.7,0.5,1.1,0.6
				c0.4,0.1,0.8,0.1,1.3,0.1l0.1,0.9c-0.5,0-1,0-1.6-0.1c-0.5-0.1-1-0.4-1.5-0.7c-0.4-0.3-0.8-0.8-1-1.3c-0.2-0.5-0.4-1-0.5-1.5l0,0
				l0,0l0.4-12.7L73.3,74.9z"/>
		</g>
		<g>
			<circle class="st11" cx="72.7" cy="74.6" r="0.9"/>
		</g>
		<g>
			<circle class="st11" cx="78.1" cy="76.2" r="0.9"/>
		</g>
		<g>
			<path class="st11" d="M78.6,76.3l-1.1-0.1c0-0.1,0.7-7.1,0-9.6l1-0.3C79.3,69,78.6,76,78.6,76.3z"/>
		</g>
		<g>
			
				<ellipse transform="matrix(0.1373 -0.9905 0.9905 0.1373 -24.0832 153.8669)" class="st12" cx="76.3" cy="90.8" rx="1.1" ry="1.7"/>
		</g>
		<g>
			
				<ellipse transform="matrix(0.1373 -0.9905 0.9905 0.1373 -24.0832 153.8669)" class="st11" cx="76.3" cy="90.8" rx="0.9" ry="1.4"/>
		</g>
		<g>
			
				<ellipse transform="matrix(0.3792 -0.9253 0.9253 0.3792 -40.7989 116.698)" class="st12" cx="66.6" cy="88.8" rx="1.1" ry="1.7"/>
		</g>
		<g>
			
				<ellipse transform="matrix(0.3792 -0.9253 0.9253 0.3792 -40.7989 116.698)" class="st11" cx="66.6" cy="88.8" rx="0.9" ry="1.4"/>
		</g>
	</g>
	<path class="st2" d="M80.9,53.8l5.7-1.6c0,0,3.9,34.2,5.4,42c0.2,0.9,0.1,1.7-0.2,2.6c-0.9,2.3-2.8,6.7-5,5.8
		C83.7,101.4,80.1,93.7,80.9,53.8z"/>
	<path class="st13" d="M60.3,24.1v0.6c0,0.3-0.3,0.6-0.6,0.7c-1,0.1-3.3,0.5-5.7,2.7c0,0,1.1-4.4,5.5-4.6
		C60,23.4,60.3,23.7,60.3,24.1z"/>
	<path class="st13" d="M77.7,27.5c-0.1,0-0.1,0-0.2-0.1c-3.2-1.3-6.3-1.5-7.6-1.6c-0.5,0-0.8-0.4-0.8-0.9v-0.7
		c0-0.5,0.4-0.9,0.9-0.9c1.1,0,2.4,0.1,3.3,0.3C74.7,25,76.2,26.2,77.7,27.5z"/>
	<ellipse class="st11" cx="58.5" cy="31.7" rx="1.5" ry="2.3"/>
	<ellipse class="st11" cx="71.2" cy="31.7" rx="1.5" ry="2.3"/>
	<path class="st2" d="M63.5,34.4L64,39c0,0.4-0.2,0.6-0.6,0.6c-1-0.1-3.3-0.9-2.5-2.2l2.3-3.1C63.3,34.2,63.5,34.3,63.5,34.4z"/>
	<path class="st14" d="M63.3,3.6c-0.8,1.2-1.9,2.5-3.1,3.8c-4.6,4.8-9.8,7-14.3,7.9c-0.1-1.3,0.1-2.6,0.5-3.8
		C48.4,5.4,53.6,2.5,63.3,3.6z"/>
	<g>
		<path class="st15" d="M60,42.1c1.2-0.5,3.8-1,9.1,0.2c0.6,0.1,0.9,0.8,0.6,1.4c-0.6,1-1.8,2.5-3.7,3.8c-0.9,0.6-2.1,0.6-3.1,0
			c-1-0.7-2.3-1.9-3.4-4.2C59.3,42.8,59.5,42.3,60,42.1z"/>
		<path class="st9" d="M68.7,43.2c0,0-0.2,0.4-0.8,1l0,0c-0.1,0.1-0.2,0.3-0.4,0.4c-0.6,0.6-1.6,1.2-2.9,1.7c0,0-1.9-0.2-3.4-2.2v0
			c-0.2-0.3-0.4-0.6-0.6-1C60.6,43.2,62.2,41.9,68.7,43.2z"/>
		<path class="st16" d="M67.9,44.2L67.9,44.2c-0.1,0.1-0.3,0.3-0.4,0.4c-0.6,0.6-1.6,1.2-2.9,1.7c0,0-1.9-0.2-3.4-2.2v0
			C62.5,43.9,65,43.4,67.9,44.2z"/>
	</g>
	<path class="st4" d="M68.9,125.1c0,0,10.1,0.5,15.2-1.6c0,0.3,4.9,15,2.7,15.9c-2.2,0.9-11.5,4.1-14.1,2.9
		C71.2,141.6,69.3,128.2,68.9,125.1z"/>
	<path class="st4" d="M55.1,125.1c-0.4,2.6-2.3,14-3.9,14.6c-0.2,0.1-0.4,0.1-0.6,0.1c0.6-4.9,1.4-10.2,2-14.7
		C54.2,125.1,55.1,125.1,55.1,125.1z"/>
</g>
</svg>
