<?xml version="1.0" encoding="utf-8"?>
<!-- Generator: Adobe Illustrator 21.1.0, SVG Export Plug-In . SVG Version: 6.00 Build 0)  -->
<svg version="1.1" id="Layer_1" xmlns="http://www.w3.org/2000/svg" xmlns:xlink="http://www.w3.org/1999/xlink" x="0px" y="0px"
	 viewBox="0 0 363 456" style="enable-background:new 0 0 363 456;" xml:space="preserve">
<style type="text/css">
	.st0{opacity:0.3;fill:none;stroke:#39BBD7;stroke-width:2;stroke-linecap:round;stroke-linejoin:round;stroke-miterlimit:10;}
	.st1{opacity:0.3;}
	.st2{fill:none;stroke:#39BBD7;stroke-width:2;stroke-linecap:round;stroke-linejoin:round;stroke-miterlimit:10;}
	.st3{fill:none;stroke:#39BBD7;stroke-width:2;stroke-linecap:square;stroke-linejoin:round;stroke-miterlimit:10;}
	.st4{fill:#7B6769;}
	.st5{fill:#AFDDD2;}
	.st6{fill:#4885C5;}
	.st7{fill:#4376A5;}
	.st8{fill:#98D5C8;}
	.st9{fill:#BEE4E4;}
	.st10{fill:#694241;}
	.st11{fill:#583939;}
	.st12{fill:#7E5251;}
	.st13{fill:#B76B2A;}
	.st14{fill:#2D382A;}
	.st15{fill:#CE7C3E;}
	.st16{fill:#D37E66;}
	.st17{fill:#E78D6D;}
	.st18{fill:#764627;}
	.st19{fill:#814F30;}
	.st20{fill:#FFFFFF;}
	.st21{fill:#222D21;}
	.st22{fill:#42689B;}
	.st23{fill:#375781;}
	.st24{fill:#A56027;}
	.st25{fill:#DEE0E4;}
	.st26{fill:#BCBCBC;}
	.st27{fill:#ACABAB;}
	.st28{fill:#E68B6E;}
</style>
<g>
	<line class="st0" x1="511" y1="275" x2="511" y2="352"/>
	<line class="st0" x1="511" y1="88" x2="511" y2="164.3"/>
	<g class="st1">
		<g>
			<path class="st2" d="M503.2,237.3h-6.1c-5.2,0-9.4-4.2-9.4-9.4v-27.8c0-5.2,4.2-9.4,9.4-9.4h27.8c5.2,0,9.4,4.2,9.4,9.4v27.8
				c0,5.2-4.2,9.4-9.4,9.4h-6.3"/>
		</g>
		<g>
			<g>
				<path class="st2" d="M511,225L511,225c-2.1,0-3.3-0.9-4.1-2.3l-6.9-11.5l0,0c-1.5-2.6-0.2-6,2.7-6.8c0.1,0,0.2-0.1,0.3-0.1"/>
				<circle class="st2" cx="505" cy="204.1" r="1.9"/>
				<path class="st2" d="M511,225L511,225c2.1,0,3.3-0.9,4.1-2.3l6.9-11.5l0,0c1.5-2.6,0.2-6-2.7-6.8c-0.1,0-0.2-0.1-0.3-0.1"/>
				<circle class="st2" cx="517" cy="204.1" r="1.9"/>
			</g>
			<path class="st2" d="M503.2,237.3l-10.7-17.1c-8.1-12.7,1.5-29,17.7-29.5c0.3,0,0.5,0,0.8,0h0c0.3,0,0.5,0,0.8,0
				c16.2,0.5,25.8,16.7,17.7,29.5L511,249.3l-3.8-6"/>
			<line class="st2" x1="511" y1="225" x2="503.2" y2="237.3"/>
		</g>
	</g>
</g>
<g>
	<g class="st1">
		<g>
			<g>
				<polyline class="st3" points="283.2,207.4 283.2,29.8 141.9,29.8 141.9,207.4 				"/>
			</g>
		</g>
		<g>
			<g>
				<polyline class="st3" points="291.8,82.1 291.8,21.5 249.6,21.5 				"/>
			</g>
		</g>
		<g>
			<g>
				<polygon class="st2" points="317.9,218.5 317.9,210.3 294.4,210.3 207.6,210.3 130.1,210.3 130.1,218.5 				"/>
			</g>
		</g>
		<g>
			<g>
				<rect x="15.2" y="78.7" class="st2" width="53.4" height="70.1"/>
			</g>
		</g>
		<g>
			<g>
				<rect x="8.6" y="71.9" class="st2" width="66.8" height="83.8"/>
			</g>
		</g>
		<g>
			<line class="st2" x1="238.2" y1="68.7" x2="265.1" y2="95.6"/>
			<line class="st2" x1="174.9" y1="99.8" x2="197.6" y2="122.5"/>
			<line class="st2" x1="172.8" y1="61" x2="244.9" y2="133.1"/>
		</g>
		<polygon class="st2" points="61,120.2 52.2,110.5 47.2,115.9 32.4,99.6 22,111 22,124.7 61,124.7 		"/>
	</g>
	<g>
		<g>
			<path class="st4" d="M87.6,346.5h120.5c1.1,0,1.9,0.9,1.9,1.9v2c0,1.1-0.9,1.9-1.9,1.9H87.6c-1.1,0-1.9-0.9-1.9-1.9v-2
				C85.7,347.3,86.5,346.5,87.6,346.5z"/>
			
				<rect x="126" y="350.4" transform="matrix(-1 -4.487134e-11 4.487134e-11 -1 268.8418 765.0583)" class="st4" width="16.8" height="64.2"/>
			<path class="st4" d="M189.5,420.5c-37.7-10-75.5-10-113.2,0v7.4c37.7-7.9,75.5-7.9,113.2,0V420.5z"/>
			
				<rect x="149.9" y="418.4" transform="matrix(-1 -4.472213e-11 4.472213e-11 -1 313.685 846.2864)" class="st4" width="13.8" height="9.5"/>
			<circle class="st4" cx="156.8" cy="429.3" r="5.8"/>
			
				<rect x="109.9" y="418.4" transform="matrix(-1 -4.445922e-11 4.445922e-11 -1 233.6653 846.2864)" class="st4" width="13.8" height="9.5"/>
			<circle class="st4" cx="116.8" cy="429.3" r="5.8"/>
			<circle class="st4" cx="84.4" cy="429.3" r="5.8"/>
		</g>
		<path class="st5" d="M90.9,347.5H209c10.3,0,18.7-8.4,18.7-18.7L107.9,166.5H71.3c-4.9,0-8.9,4-8.9,8.9L77,334.8
			C77.7,342,83.7,347.5,90.9,347.5z"/>
		<path class="st6" d="M120.8,176.6l18,90.2l26.9,1.2c0,0-1.2-81.7-9.9-94.3l-8.5,0.7L120.8,176.6z"/>
		<path class="st7" d="M154.3,259.8l2,8.2h9.4c0,0-0.7-79.1-11.9-98.4l-6.5,4.7C152.8,181.9,156,217.4,154.3,259.8z"/>
		<path class="st8" d="M105,331.7c0,0,40.8,4.4,49.2-7.4L96.6,174H81.7c-4.9,0-8.9,4-8.9,8.9l15,135.3
			C88.5,323,97.1,330.8,105,331.7z"/>
		<path class="st9" d="M215.2,315.1h-58.3c-5.9,0-10.7,4.8-10.7,10.7v11c0,5.9,4.8,10.7,10.7,10.7h58.3c5.9,0,10.7-4.8,10.7-10.7
			v-11C225.9,319.9,221.1,315.1,215.2,315.1z"/>
		<path class="st10" d="M188.2,291.8l3.7,25.7l1.2,8.6l22.5-0.5c7.3,36.4,16.3,61.9,23.1,96.1H265c-5-29-14.9-91.1-19.5-110.9
			c-4.9-21-18.7-18.9-18.7-18.9H188.2z"/>
		<path class="st11" d="M191.9,317.4l1.2,8.6l22.5-0.5c7.3,36.4,16.3,61.9,23.1,96.1h8.7c-9.2-37.2-20.8-79.6-24.3-94.5
			c-2.4-10.1-7.6-9.7-7.6-9.7H191.9z"/>
		<path class="st12" d="M167.8,421.6h26c6.6-32.2,11-83.7,12.8-105.1c1.7-21.5-15.6-24.7-15.6-24.7h-73.5L100.3,315v1.6
			c0,4.9,4,8.8,8.9,8.8l66.5-0.5C177.3,356.3,174.1,388.6,167.8,421.6z"/>
		<path class="st11" d="M167.8,421.6h7c4.6-34,8.3-78.4,10-95.2c1.1-10.3-7.6-9.7-7.6-9.7H101l4.8,8.7l69.9-0.5
			C177.3,356.3,174.1,388.6,167.8,421.6z"/>
		<g>
			<path class="st13" d="M203.1,421.6H170l-1.7,10.9H214l0,0C214,426.5,209.1,421.6,203.1,421.6z"/>
			
				<rect x="168.3" y="432.5" transform="matrix(-1 -4.502766e-11 4.502766e-11 -1 382.2925 867.7682)" class="st14" width="45.6" height="2.8"/>
			<path class="st15" d="M196,427.7h9.9c0.6,0,1.1-0.5,1.1-1.1v-1.2c0-0.6-0.5-1.1-1.1-1.1H196c-0.6,0-1.1,0.5-1.1,1.1v1.2
				C194.9,427.2,195.4,427.7,196,427.7z"/>
		</g>
		<g>
			<path class="st13" d="M276.7,421.6h-33.1l-1.7,10.9h45.6l0,0C287.5,426.5,282.7,421.6,276.7,421.6z"/>
			
				<rect x="241.9" y="432.5" transform="matrix(-1 -4.494817e-11 4.494817e-11 -1 529.4428 867.7682)" class="st14" width="45.6" height="2.8"/>
			<path class="st15" d="M269.6,427.7h9.9c0.6,0,1.1-0.5,1.1-1.1v-1.2c0-0.6-0.5-1.1-1.1-1.1h-9.9c-0.6,0-1.1,0.5-1.1,1.1v1.2
				C268.5,427.2,269,427.7,269.6,427.7z"/>
		</g>
		<path class="st6" d="M162.4,262.5h58.2v-2.1c-1.1-2.9,1.9-5.2,1.9-5.2c-23.4,0.2-36.6-11.7-36.6-11.7s-1.1-39.3-4.8-57.2
			c-0.9-4.5-3.7-8.4-7.4-11.7c-10.8-9.8-29.1-14.4-29.1-14.4C157.7,179.4,162.6,218.3,162.4,262.5z"/>
		<g>
			<path class="st16" d="M117.8,131.3l2-2.9l3.8-5.5l1.2-1.7l1.1,1.9l18.9,30.8l-0.1,3.4l0,1l-0.3,6.2c0,0,0.6,10.3-9.3,9.6
				c-9.9-0.7-16.2-8.1-15.8-16.2c0-0.9,0.1-1.9,0.1-2.8c0.1-7-0.5-13.4-0.5-13.4s-0.8-3.6-2.1-6.1c-0.3-0.5-0.6-1-0.9-1.4
				L117.8,131.3z"/>
			<path class="st17" d="M123.5,119.5c0,1.1,0,2.3,0.1,3.4c0.1,1.6,0.2,3.2,0.4,4.7c1.4,10.9,5.6,20,11.2,25.2
				c2.3,2.2,4.9,3.6,7.7,4.3c0.6,0.1,1.2,0.2,1.8,0.3c0.4,0.1,0.9,0.1,1.3,0.1c16.3,0,21.4-13.5,22.3-31.3c0.1-2.1,0.2-4.4,0.2-6.6
				c0-1.7,0-3.4-0.1-5.1c0-0.1,0-0.2,0-0.3c-0.2-7-1-13.4-2.9-18.7c-0.9,0-1.8,0-2.6,0c-3.9,0-7.8,0-11.6,0c-0.6,0-1.1,0-1.7,0
				c-6.4,0.1-12.8,0-19.2,0h-2.9c-0.9,0-1.9,0-2.8-0.1c-0.5,0-0.9,0-1.4,0C122.2,101.9,123.5,110.3,123.5,119.5z"/>
			
				<ellipse transform="matrix(0.9907 -0.1364 0.1364 0.9907 -14.7969 23.7194)" class="st17" cx="165.7" cy="119.8" rx="5.2" ry="7"/>
			<path class="st18" d="M107.5,117.3c1.3,2.7,1.3,5.5,1.3,5.5l10.3,9.8c8.9-6.1,7.9-15.8,6.1-22c-1.8-6.2-1-12.1-1-12.1
				c6.4-2.1,17.9,0.6,28.9,1.8c11.1,1.2,12.2-1.8,12.2-1.8l2.5,15.2l2,2.1c0.5-9.6-0.3-18.3-1.3-22.4c-0.2-0.7-0.3-2.1-0.7-3.8
				c-1.2-6.8-4.9-19.1-22.1-19.1c-21.6,0-23.7,4.7-27.2,7.1c-1.4,1-2.2,2.6-2.6,4.1c-0.6,2.3-0.4,4.4-0.4,4.4s-3.8-0.6-8.5,6
				C102.3,98.8,106.2,114.6,107.5,117.3z"/>
			<path class="st19" d="M115.9,81.8c7.3,4,19,9.1,32.6,10.2c10.3,0.8,16.1-0.5,19.3-2.3c-1.2-6.8-4.9-19.1-22.1-19.1
				c-21.6,0-23.7,4.7-27.2,7.1C117,78.6,116.3,80.2,115.9,81.8z"/>
			<ellipse transform="matrix(0.89 -0.4559 0.4559 0.89 -45.8689 66.1261)" class="st16" cx="114.1" cy="128.1" rx="5.2" ry="8"/>
			<path class="st20" d="M158.8,136.6l-17.3,1c0,0,0.8,7.7,8.3,7.8C157.3,145.6,158.8,136.6,158.8,136.6z"/>
			<ellipse class="st21" cx="160.4" cy="118.7" rx="3" ry="3.8"/>
			<ellipse class="st21" cx="141.5" cy="120.2" rx="3" ry="3.8"/>
			<path class="st18" d="M157.1,111.4c-0.3,0.1-0.3-2.1-0.2-3.2c0-0.3,0.3-0.6,0.6-0.7c1.9-0.3,8-0.9,10.6,2.1l-0.3,4.2
				C167.8,113.8,164.8,109.6,157.1,111.4z"/>
			<path class="st18" d="M145.4,108.4l0.2,3.2c0,0.4-0.3,0.6-0.6,0.6c-2-0.1-8-0.1-13.7,4.3c-0.2,0.2-0.6,0.2-0.8,0l-1.2-1.2
				c-0.2-0.2-0.2-0.6,0-0.8c1.5-1.6,7.3-7.1,15.6-6.6C145.2,107.8,145.4,108.1,145.4,108.4z"/>
			<path class="st16" d="M151.8,120.9l1.1,8.4c0.1,0.6,0.7,1,1.3,0.9c1.9-0.5,5.9-2.9,3.8-4.9l-5.7-4.6
				C152,120.5,151.7,120.7,151.8,120.9z"/>
		</g>
		<path class="st22" d="M130.9,189.7L130.9,189.7l6.6,6.2l1.4,55l4,3.6l6.9,6.2l4.2-8.7c-0.4-10-9.8-58.5-9.8-58.5l2.5-6.2l-7.8-11
			h-3.8L130.9,189.7z"/>
		<polygon class="st23" points="131,189.7 137.5,195.9 138.9,250.8 142.9,254.5 139.6,194.6 132.3,187.9 		"/>
		<path class="st7" d="M151,174.5c0,0,0.6,6.1-4.6,16.7l-7.7-13.4L151,174.5z"/>
		<path class="st7" d="M118.9,178.3c0,0,1.5,6.4,13.4,16.8l8-17.6L118.9,178.3z"/>
		<path class="st6" d="M200.4,291.8c-16.6,0-45.5-0.1-63.5-0.1c-15.5,0-31.4,12.2-32.7,23c-0.1,0.5-0.1,0.9-0.1,1.4
			c0,0.2,0,0.4,0,0.7v0c0,6,1.6,8.5,1.6,8.6c-1.3-0.6-2.8-1.8-3.9-2.5c0,0,0,0-0.1,0c-0.3-0.2-0.6-0.5-1-0.7
			c-5.5-4.3-7.8-10.7-8.7-15.2c-0.4-1.8-0.6-3.3-0.6-4.3c0-0.2,0-0.3,0-0.4c0-0.4,0-0.6,0-0.6S83.6,225,80.7,195.2
			c-2.3-23.5,22.9-31.7,33.5-34.1c2.8-0.6,4.6-0.9,4.6-0.9c1.8,5.8,3.5,11.8,5.1,17.9c1.2,4.6,2.3,9.3,3.3,14.1
			c3.9,18.2,7,37.7,9.7,57.7c11,5.5,29,10.7,29,10.7c-0.6,0.9-0.6,1.8-0.6,1.8h-26.8c0.8,6.3,1.6,12.6,2.3,18.9
			C160.4,279.3,180.1,280.6,200.4,291.8z"/>
		<path class="st7" d="M200.3,291.8h-22.9c-9-5.3-15-8.4-31.4-11.9h24.9C186.1,285.1,196.5,289.2,200.3,291.8z"/>
		<path class="st7" d="M91.8,238.4l5.2,58.9c0,0-0.2,11.6,7.2,17.2c0,0.1,0,0.2,0,0.3c0,0.7,0,1.4,0,2.1v0c0,6,1.6,8.5,1.6,8.6
			c-1.3-0.6-2.8-1.8-3.9-2.5c0,0,0,0-0.1,0c-0.3-0.2-0.6-0.5-1-0.7c-5.5-4.3-7.8-10.7-8.7-15.2c-0.4-1.8-0.6-3.3-0.6-4.3
			c0-0.2,0-0.3,0-0.4c0-0.4,0-0.6,0-0.6S83.6,225,80.7,195.2c-2.3-23.5,22.9-31.7,33.5-34.1l0,4.1c0,0,5.3,6.6,9.7,12.9
			c1.2,4.6,2.3,9.3,3.3,14.1c-16.7-12.3-18.2-26.1-18.5-26.1c-5,1.5-15.9,4.9-20.8,16.6c-6.8,16.2,6,44.3,8.4,48.8
			c2.3,4.6,6.4,18.7,31.4,32.9h-9.8C117.8,264.6,100.3,255.2,91.8,238.4z"/>
		<path class="st6" d="M132.6,192.3l6.8-14.6l7.3,11.1c0,0,6.5-15.1,4.3-26.7c-0.2-0.9-0.8-1.6-1.6-2c-1.2-0.5-4.7-2.3-4.7-2.4
			l-0.3,6.7c0,0,0.2,2.6-1,5.2c-1.1,2.4-3.4,4.8-8.3,4.4c-1.4-0.1-2.7-0.3-4-0.7c-1-0.3-2-0.6-2.9-1.1c0,0,0,0,0,0
			c-5.8-2.8-9.2-8.4-8.9-14.4c0-0.9,0.1-1.9,0.1-2.8c-2.6,0.5-6.3,3.7-7.8,5.1c-0.4,0.4-0.7,1-0.6,1.5
			C111,165.2,112.9,178,132.6,192.3z"/>
		<path class="st7" d="M143.4,169.6c1.2-1.4,2.4-3.9,2.6-8.3c0-1.6-0.3-1.7-1.1-2.8c0,0-0.1-0.1-0.1-0.1c-0.1-0.1-0.1-0.1-0.2-0.1
			l-0.3,6.2C144.3,164.5,144.5,167.1,143.4,169.6z"/>
		<path class="st7" d="M128.2,172.3c-5.8-2.8-9.2-8.4-8.9-14.4c0-0.9,0.1-1.9,0.1-2.8c-0.7,1-0.9,1.2-1,2.7
			C117.4,168.9,127.5,172.2,128.2,172.3z"/>
		<g>
			
				<rect x="6" y="262.5" transform="matrix(-1 -4.946589e-11 4.946589e-11 -1 66.6444 541.4159)" class="st13" width="54.6" height="16.3"/>
			
				<rect x="59.8" y="262.5" transform="matrix(-1 -4.935486e-11 4.935486e-11 -1 416.2158 541.4159)" class="st24" width="296.5" height="16.3"/>
			
				<rect x="6" y="278.9" transform="matrix(-1 -4.932999e-11 4.932999e-11 -1 362.377 564.6772)" class="st25" width="350.4" height="6.9"/>
			
				<rect x="340" y="285.8" transform="matrix(-1 -4.436286e-11 4.436286e-11 -1 694.2708 721.01)" class="st26" width="14.2" height="149.4"/>
			
				<rect x="294" y="285.8" transform="matrix(-1 -4.410617e-11 4.410617e-11 -1 602.1676 721.01)" class="st27" width="14.2" height="149.4"/>
			<rect x="8.1" y="285.8" class="st26" width="14.2" height="149.4"/>
			<rect x="46.1" y="285.8" class="st27" width="14.2" height="149.4"/>
		</g>
		<path class="st7" d="M106.8,199.1c0,0,10.5,31.6,28.8,41.9l1.2,9C136.9,250,112.1,237.1,106.8,199.1z"/>
		<path class="st7" d="M173.8,174.6c4.6,9.1,4.4,45.8,3.3,87.9l43.5,0v-2.1c-1.1-2.9,1.9-5.2,1.9-5.2c-23.4,0.2-36.6-11.7-36.6-11.7
			s-1.1-39.3-4.8-57.2C180.3,181.9,177.5,177.9,173.8,174.6z"/>
		<path class="st28" d="M165,262.5l1.6-4.7c0.6-1.7,1.9-3.1,3.6-3.7l6.8-2.4c1.8-0.6,3.8-0.3,5.4,0.8l13.8,10L165,262.5z"/>
		<path class="st28" d="M218.8,262.5l1.6-4.7c0.6-1.7,1.9-3.1,3.6-3.7l6.8-2.4c1.8-0.6,3.8-0.3,5.4,0.8l13.8,10L218.8,262.5z"/>
		<g>
			<path class="st25" d="M230,244.1h107.6c4.1,0,7.4-3.3,7.4-7.4v-79.3c0-4.1-3.3-7.4-7.4-7.4H230c-4.1,0-7.4,3.3-7.4,7.4v79.3
				C222.5,240.8,225.9,244.1,230,244.1z"/>
			<path class="st26" d="M238.3,244.1h107.6c4.1,0,7.4-3.3,7.4-7.4v-79.3c0-4.1-3.3-7.4-7.4-7.4H238.3c-4.1,0-7.4,3.3-7.4,7.4v79.3
				C230.9,240.8,234.2,244.1,238.3,244.1z"/>
			<polygon class="st27" points="274.6,202.3 309.9,202.3 321.8,262.5 286.6,262.5 			"/>
			<path class="st25" d="M280.3,202.3h31.4c2.2,0,4.2,1.6,4.6,3.8l11.2,56.5h-35.3L280.3,202.3z"/>
			<path class="st27" d="M288,258.4h-15.8c-0.8,0-1.4,0.6-1.4,1.4v1.4c0,0.8,0.6,1.4,1.4,1.4H288c0.8,0,1.4-0.6,1.4-1.4v-1.4
				C289.4,259,288.8,258.4,288,258.4z"/>
			
				<rect x="175.5" y="259" transform="matrix(-1 -4.488910e-11 4.488910e-11 -1 429.821 521.5085)" class="st25" width="78.9" height="3.6"/>
		</g>
	</g>
</g>
</svg>
