<?xml version="1.0" encoding="utf-8"?>
<!-- Generator: Adobe Illustrator 21.1.0, SVG Export Plug-In . SVG Version: 6.00 Build 0)  -->
<svg version="1.1" id="Layer_1" xmlns="http://www.w3.org/2000/svg" xmlns:xlink="http://www.w3.org/1999/xlink" x="0px" y="0px"
	 viewBox="0 0 244.5 312" style="enable-background:new 0 0 244.5 312;" xml:space="preserve">
<style type="text/css">
	.st0{opacity:0.3;}
	.st1{fill:none;stroke:#39BBD7;stroke-width:2;stroke-linecap:square;stroke-linejoin:round;stroke-miterlimit:10;}
	.st2{fill:none;stroke:#39BBD7;stroke-width:2;stroke-linecap:round;stroke-linejoin:round;stroke-miterlimit:10;}
	.st3{fill:#7B6769;}
	.st4{fill:#AFDDD2;}
	.st5{fill:#4885C5;}
	.st6{fill:#4376A5;}
	.st7{fill:#98D5C8;}
	.st8{fill:#BEE4E4;}
	.st9{fill:#694241;}
	.st10{fill:#583939;}
	.st11{fill:#7E5251;}
	.st12{fill:#B76B2A;}
	.st13{fill:#2D382A;}
	.st14{fill:#CE7C3E;}
	.st15{fill:#F7F8FB;}
	.st16{fill:#D37E66;}
	.st17{fill:#E78D6D;}
	.st18{fill:#764627;}
	.st19{fill:#814F30;}
	.st20{fill:#FFFFFF;}
	.st21{fill:#222D21;}
	.st22{fill:#42689B;}
	.st23{fill:#375781;}
	.st24{fill:#DFE5ED;}
	.st25{fill:#A56027;}
	.st26{fill:#DEE0E4;}
	.st27{fill:#BCBCBC;}
	.st28{fill:#ACABAB;}
	.st29{fill:#E68B6E;}
</style>
<g>
	<g class="st0">
		<g>
			<g>
				<polyline class="st1" points="191.2,143.8 191.2,25 96.7,25 96.7,143.8 				"/>
			</g>
		</g>
		<g>
			<g>
				<polyline class="st1" points="197,60 197,19.5 168.8,19.5 				"/>
			</g>
		</g>
		<g>
			<g>
				<polygon class="st2" points="214.5,151.3 214.5,145.8 198.8,145.8 140.7,145.8 88.8,145.8 88.8,151.3 				"/>
			</g>
		</g>
		<g>
			<g>
				<rect x="12" y="57.7" class="st2" width="35.8" height="46.9"/>
			</g>
		</g>
		<g>
			<g>
				<rect x="7.5" y="53.2" class="st2" width="44.7" height="56.1"/>
			</g>
		</g>
		<g>
			<line class="st2" x1="161.1" y1="51" x2="179.1" y2="69"/>
			<line class="st2" x1="118.8" y1="71.9" x2="134" y2="87.1"/>
			<line class="st2" x1="117.4" y1="45.9" x2="165.6" y2="94.1"/>
		</g>
		<polygon class="st2" points="42.6,85.5 36.7,79 33.3,82.6 23.4,71.7 16.5,79.3 16.5,88.5 42.6,88.5 		"/>
	</g>
	<g>
		<g>
			<path class="st3" d="M61,236.9h79.4c1.1,0,1.9,0.9,1.9,1.9v0c0,1.1-0.9,1.9-1.9,1.9H61c-1.1,0-1.9-0.9-1.9-1.9v0
				C59.1,237.8,59.9,236.9,61,236.9z"/>
			
				<rect x="86.1" y="239.6" transform="matrix(-1 -4.470880e-11 4.470880e-11 -1 183.4037 522.0654)" class="st3" width="11.2" height="42.9"/>
			<path class="st3" d="M128.6,286.5c-25.2-6.7-50.5-6.7-75.7,0v4.9c25.2-5.3,50.5-5.3,75.7,0V286.5z"/>
			
				<rect x="102.1" y="285" transform="matrix(-1 -4.462576e-11 4.462576e-11 -1 213.4079 576.4144)" class="st3" width="9.3" height="6.4"/>
			<circle class="st3" cx="106.7" cy="292.3" r="3.9"/>
			
				<rect x="75.3" y="285" transform="matrix(-1 -4.462576e-11 4.462576e-11 -1 159.8674 576.4144)" class="st3" width="9.3" height="6.4"/>
			<circle class="st3" cx="79.9" cy="292.3" r="3.9"/>
			<circle class="st3" cx="58.3" cy="292.3" r="3.9"/>
		</g>
		<path class="st4" d="M62.6,237.6h79c6.9,0,12.5-5.6,12.5-12.5L74,116.5H49.5c-3.3,0-5.9,2.7-5.9,5.9l9.8,106.7
			C53.7,233.9,57.8,237.6,62.6,237.6z"/>
		<path class="st5" d="M82.6,123.2l12,60.4l18,0.8c0,0-0.8-54.7-6.6-63.1l-5.7,0.5L82.6,123.2z"/>
		<path class="st6" d="M105,178.9l1.3,5.5h6.3c0,0-0.4-52.9-7.9-65.8l-4.4,3.2C104,126.8,106.1,150.5,105,178.9z"/>
		<path class="st7" d="M72,227c0,0,27.3,2.9,33-5L66.4,121.5h-10c-3.3,0-5.9,2.7-5.9,5.9l10,90.5C61,221.2,66.7,226.4,72,227z"/>
		<path class="st8" d="M142.2,215.9h-31.9c-5.9,0-10.7,4.8-10.7,10.7v0.3c0,5.9,4.8,10.7,10.7,10.7h31.9c5.9,0,10.7-4.8,10.7-10.7
			v-0.3C152.9,220.7,148.1,215.9,142.2,215.9z"/>
		<path class="st9" d="M127.7,200.3l2.5,17.2l0.8,5.7l15-0.4c4.9,24.3,10.9,41.4,15.5,64.3h17.6c-3.3-19.4-10-60.9-13.1-74.2
			c-3.3-14-12.5-12.7-12.5-12.7H127.7z"/>
		<path class="st10" d="M130.1,217.5l0.8,5.7l15-0.4c4.9,24.3,10.9,41.4,15.5,64.3h5.8c-6.2-24.9-13.9-53.3-16.2-63.2
			c-1.6-6.8-5.1-6.5-5.1-6.5H130.1z"/>
		<path class="st11" d="M114,287.2h17.4c4.4-21.6,7.4-56,8.5-70.3c1.2-14.4-10.4-16.5-10.4-16.5h-23.7l-0.6,16.7l-0.2,5.8l14.3-0.4
			C120.4,243.5,118.2,265.1,114,287.2z"/>
		<path class="st10" d="M114,287.2h4.7c3.1-22.7,5.5-52.5,6.7-63.7c0.7-6.9-5.1-6.5-5.1-6.5h-15.1l-0.2,5.8l14.3-0.4
			C120.4,243.5,118.2,265.1,114,287.2z"/>
		<g>
			<path class="st12" d="M137.7,287.2h-22.1l-1.1,7.3h30.5v0C144.9,290.4,141.7,287.2,137.7,287.2z"/>
			
				<rect x="114.4" y="294.5" transform="matrix(-1 -4.496371e-11 4.496371e-11 -1 259.3126 590.7877)" class="st13" width="30.5" height="1.9"/>
			<path class="st14" d="M133.3,291.3h5.9c0.6,0,1.1-0.5,1.1-1.1v0c0-0.6-0.5-1.1-1.1-1.1h-5.9c-0.6,0-1.1,0.5-1.1,1.1v0
				C132.2,290.8,132.7,291.3,133.3,291.3z"/>
		</g>
		<g>
			<path class="st12" d="M186.9,287.2h-22.1l-1.1,7.3h30.5v0C194.2,290.4,190.9,287.2,186.9,287.2z"/>
			
				<rect x="163.6" y="294.5" transform="matrix(-1 -4.496371e-11 4.496371e-11 -1 357.7696 590.7877)" class="st13" width="30.5" height="1.9"/>
			<path class="st14" d="M182.5,291.3h5.9c0.6,0,1.1-0.5,1.1-1.1v0c0-0.6-0.5-1.1-1.1-1.1h-5.9c-0.6,0-1.1,0.5-1.1,1.1v0
				C181.4,290.8,181.9,291.3,182.5,291.3z"/>
		</g>
		<path class="st15" d="M110.4,180.8h38.9v-1.4c-0.7-1.9,1.3-3.5,1.3-3.5c-15.7,0.1-24.5-7.8-24.5-7.8s-0.7-26.3-3.2-38.2
			c-0.6-3-2.5-5.6-4.9-7.9c-7.2-6.6-19.4-9.6-19.4-9.6C107.3,125.1,110.6,151.1,110.4,180.8z"/>
		<g>
			<path class="st16" d="M80.5,92.9l1.3-1.9l2.6-3.7l0.8-1.1l0.8,1.2L98.6,108l-0.1,2.3l0,0.7l-0.2,4.1c0,0,0.4,6.9-6.2,6.4
				c-6.6-0.4-10.8-5.4-10.6-10.8c0-0.6,0-1.3,0-1.9c0.1-4.7-0.3-9-0.3-9s-0.5-2.4-1.4-4.1c-0.2-0.4-0.4-0.7-0.6-0.9L80.5,92.9z"/>
			<path class="st17" d="M84.4,85c0,0.8,0,1.5,0.1,2.3c0.1,1.1,0.1,2.1,0.3,3.1c0.9,7.3,3.7,13.4,7.5,16.8c1.6,1.4,3.3,2.4,5.2,2.9
				c0.4,0.1,0.8,0.2,1.2,0.2c0.3,0,0.6,0.1,0.9,0.1c10.9,0,14.3-9,14.9-20.9c0.1-1.4,0.1-2.9,0.1-4.4c0-1.1,0-2.3-0.1-3.4
				c0-0.1,0-0.1,0-0.2c-0.2-4.7-0.7-9-1.9-12.5c-0.6,0-1.2,0-1.7,0c-2.6,0-5.2,0-7.8,0c-0.4,0-0.7,0-1.1,0c-4.3,0.1-8.5,0-12.8,0h-2
				c-0.6,0-1.2,0-1.9-0.1c-0.3,0-0.6,0-0.9,0C83.5,73.3,84.4,78.9,84.4,85z"/>
			
				<ellipse transform="matrix(0.9907 -0.1364 0.1364 0.9907 -10.5777 16.1583)" class="st17" cx="112.6" cy="85.3" rx="3.5" ry="4.7"/>
			<path class="st18" d="M73.7,83.6c0.9,1.8,0.9,3.7,0.9,3.7l6.9,6.6c5.9-4.1,5.3-10.6,4.1-14.7C84.3,75,84.9,71,84.9,71
				c4.3-1.4,11.9,0.4,19.4,1.2c7.4,0.8,8.1-1.2,8.1-1.2l1.6,10.2l1.3,1.4c0.3-6.4-0.2-12.3-0.9-15c-0.1-0.5-0.2-1.4-0.4-2.6
				c-0.8-4.6-3.3-12.8-14.8-12.8c-14.4,0-15.9,3.1-18.2,4.7c-0.9,0.7-1.5,1.7-1.7,2.8c-0.4,1.5-0.3,3-0.3,3s-2.5-0.4-5.7,4
				C70.2,71.2,72.8,81.8,73.7,83.6z"/>
			<path class="st19" d="M79.3,59.8c4.9,2.6,12.7,6.1,21.8,6.8c6.9,0.6,10.8-0.4,12.9-1.6c-0.8-4.6-3.3-12.8-14.8-12.8
				c-14.4,0-15.9,3.1-18.2,4.7C80.1,57.7,79.6,58.8,79.3,59.8z"/>
			<ellipse transform="matrix(0.89 -0.4559 0.4559 0.89 -32.8154 45.607)" class="st16" cx="78.1" cy="90.8" rx="3.5" ry="5.3"/>
			<path class="st20" d="M108,96.5l-11.6,0.7c0,0,0.5,5.1,5.6,5.2C107,102.5,108,96.5,108,96.5z"/>
			<ellipse class="st21" cx="109.1" cy="84.5" rx="2" ry="2.5"/>
			<ellipse class="st21" cx="96.4" cy="85.5" rx="2" ry="2.5"/>
			<path class="st18" d="M106.9,79.6c-0.2,0-0.2-1.4-0.2-2.1c0-0.2,0.2-0.4,0.4-0.4c1.3-0.2,5.3-0.6,7.1,1.4l-0.2,2.8
				C114,81.2,112,78.4,106.9,79.6z"/>
			<path class="st18" d="M99.1,77.6l0.1,2.1c0,0.2-0.2,0.4-0.4,0.4c-1.3-0.1-5.4-0.1-9.2,2.9c-0.2,0.1-0.4,0.1-0.5,0l-0.8-0.8
				c-0.2-0.1-0.2-0.4,0-0.6c1-1.1,4.9-4.8,10.4-4.4C98.9,77.2,99.1,77.4,99.1,77.6z"/>
			<path class="st16" d="M103.3,86l0.7,5.6c0.1,0.4,0.5,0.7,0.9,0.6c1.3-0.4,4-2,2.5-3.3l-3.8-3.1C103.5,85.7,103.3,85.8,103.3,86z"
				/>
		</g>
		<path class="st22" d="M89.4,132L89.4,132l4.4,4.2l1,36.8l2.7,2.4l4.6,4.1l2.8-5.8c-0.2-6.7-6.5-39.1-6.5-39.1l1.7-4.1l-5.2-7.4
			h-2.6L89.4,132z"/>
		<polygon class="st23" points="89.4,132 93.8,136.2 94.7,172.9 97.4,175.3 95.2,135.3 90.3,130.8 		"/>
		<path class="st6" d="M102.8,121.8c0,0,0.4,4.1-3.1,11.2l-5.1-8.9L102.8,121.8z"/>
		<path class="st6" d="M81.3,124.4c0,0,1,4.3,9,11.3l5.4-11.8L81.3,124.4z"/>
		<path class="st15" d="M55.8,135.7c1.9,19.9,7.2,71.2,7.2,71.2s0.2,16.9,16.4,16.8l29.5,0c0,0-0.8-2.6-1.2-6.3
			c-0.8-7.1-0.2-18.4,10.2-24.1H96c-0.5-4.2-1-8.4-1.6-12.6h17.9c0,0,0-0.6,0.4-1.2c0,0-12.1-3.5-19.4-7.2
			c-1.8-13.4-3.8-26.4-6.5-38.6c-0.7-3.2-1.4-6.4-2.2-9.4c-1-4.1-2.2-8.1-3.4-12c0,0-1.2,0.2-3.1,0.6C71,114.5,54.2,120,55.8,135.7z
			"/>
		<path class="st24" d="M55.8,135.7c1.9,19.9,7.2,71.2,7.2,71.2s0.2,16.9,16.4,16.8l29.5,0c0,0-0.8-2.6-1.2-6.3
			c-7.3,0-21.7,0.1-29.9,0c-11.3-0.2-11-13.5-11-13.5l-3.5-39.4c5.7,11.3,17.4,17.5,17.4,17.5h6.6c-16.8-9.5-19.5-19-21-22
			c-1.6-3.1-10.2-21.8-5.6-32.7c3.3-7.8,10.6-10.1,13.9-11.1c0.2,0,1.2,9.2,12.4,17.4c-0.7-3.2-1.4-6.4-2.2-9.4
			c-2.9-4.2-6.5-8.7-6.5-8.7l0-2.8C71,114.5,54.2,120,55.8,135.7z"/>
		<path class="st5" d="M90.5,133.7L95,124l4.9,7.4c0,0,4.4-10.1,2.9-17.8c-0.1-0.6-0.5-1.1-1.1-1.3c-0.8-0.3-3.1-1.6-3.2-1.6
			l-0.2,4.5c0,0,0.1,1.8-0.7,3.4c-0.7,1.6-2.3,3.2-5.5,3c-0.9-0.1-1.8-0.2-2.7-0.5c-0.7-0.2-1.3-0.4-1.9-0.7c0,0,0,0,0,0
			c-3.9-1.9-6.1-5.6-6-9.6c0-0.6,0-1.3,0-1.9c-1.7,0.4-4.2,2.5-5.2,3.4c-0.3,0.3-0.4,0.6-0.4,1C76,115.6,77.3,124.2,90.5,133.7z"/>
		<path class="st6" d="M97.7,118.6c0.8-0.9,1.6-2.6,1.7-5.6c0-1.1-0.2-1.1-0.7-1.9c0,0-0.1,0-0.1-0.1c0,0-0.1-0.1-0.1-0.1l-0.2,4.1
			C98.3,115.1,98.4,116.9,97.7,118.6z"/>
		<path class="st6" d="M87.5,120.4c-3.9-1.9-6.1-5.6-6-9.6c0-0.6,0-1.3,0-1.9c-0.5,0.7-0.6,0.8-0.7,1.8
			C80.3,118.1,87.1,120.3,87.5,120.4z"/>
		<g>
			
				<rect x="5.8" y="180.8" transform="matrix(-1 -4.492507e-11 4.492507e-11 -1 48.1151 371.4453)" class="st12" width="36.6" height="9.9"/>
			
				<rect x="41.8" y="180.8" transform="matrix(-1 -4.490376e-11 4.490376e-11 -1 282.0104 371.4453)" class="st25" width="198.4" height="9.9"/>
			
				<rect x="5.8" y="190.7" transform="matrix(-1 -4.489399e-11 4.489399e-11 -1 245.9874 385.609)" class="st26" width="234.4" height="4.2"/>
			
				<rect x="229.3" y="194.9" transform="matrix(-1 -4.503254e-11 4.503254e-11 -1 468.0546 491.1928)" class="st27" width="9.5" height="101.4"/>
			
				<rect x="198.5" y="194.9" transform="matrix(-1 -4.503254e-11 4.503254e-11 -1 406.4292 491.1928)" class="st28" width="9.5" height="101.4"/>
			<rect x="7.2" y="194.9" class="st27" width="9.5" height="101.4"/>
			<rect x="32.6" y="194.9" class="st28" width="9.5" height="101.4"/>
		</g>
		<path class="st24" d="M73.2,138.3c0,0,7,21.2,19.3,28l0.8,6C93.3,172.4,76.7,163.7,73.2,138.3z"/>
		<path class="st24" d="M118.1,121.9l2.2,58.8h29.1v-1.4c-0.7-1.9,1.3-3.5,1.3-3.5c-15.7,0.1-24.5-7.8-24.5-7.8s-0.7-26.3-3.2-38.2
			C122.4,126.8,120.5,124.1,118.1,121.9z"/>
		<path class="st29" d="M112.1,180.8l1-3.1c0.4-1.2,1.3-2.1,2.4-2.5l4.6-1.6c1.2-0.4,2.6-0.2,3.6,0.5l9.2,6.7L112.1,180.8z"/>
		<path class="st29" d="M148.1,180.8l1-3.1c0.4-1.2,1.3-2.1,2.4-2.5l4.6-1.6c1.2-0.4,2.6-0.2,3.6,0.5l9.2,6.7L148.1,180.8z"/>
		<g>
			<path class="st26" d="M158.1,168.4h67.1c4.1,0,7.4-3.3,7.4-7.4v-48.1c0-4.1-3.3-7.4-7.4-7.4h-67.1c-4.1,0-7.4,3.3-7.4,7.4V161
				C150.7,165.1,154,168.4,158.1,168.4z"/>
			<path class="st27" d="M163.7,168.4h67.1c4.1,0,7.4-3.3,7.4-7.4v-48.1c0-4.1-3.3-7.4-7.4-7.4h-67.1c-4.1,0-7.4,3.3-7.4,7.4V161
				C156.3,165.1,159.6,168.4,163.7,168.4z"/>
			<polygon class="st28" points="185.5,140.4 209.1,140.4 217.1,180.8 193.5,180.8 			"/>
			<path class="st26" d="M189.3,140.4h21c1.5,0,2.8,1.1,3.1,2.5l7.5,37.8h-23.6L189.3,140.4z"/>
			<path class="st28" d="M194,178h-9.7c-0.8,0-1.4,0.6-1.4,1.4v0c0,0.8,0.6,1.4,1.4,1.4h9.7c0.8,0,1.4-0.6,1.4-1.4v0
				C195.4,178.6,194.8,178,194,178z"/>
			
				<rect x="119.2" y="178.4" transform="matrix(-1 -4.488733e-11 4.488733e-11 -1 291.1135 359.1083)" class="st26" width="52.8" height="2.4"/>
		</g>
	</g>
</g>
</svg>
