<?xml version="1.0" encoding="utf-8"?>
<!-- Generator: Adobe Illustrator 21.1.0, SVG Export Plug-In . SVG Version: 6.00 Build 0)  -->
<svg version="1.1" id="Layer_1" xmlns="http://www.w3.org/2000/svg" xmlns:xlink="http://www.w3.org/1999/xlink" x="0px" y="0px"
	 viewBox="0 0 234.4 244" style="enable-background:new 0 0 234.4 244;" xml:space="preserve">
<style type="text/css">
	.st0{fill:#7B6769;}
	.st1{fill:#AFDDD2;}
	.st2{fill:#4885C5;}
	.st3{fill:#4376A5;}
	.st4{fill:#98D5C8;}
	.st5{fill:#BEE4E4;}
	.st6{fill:#694241;}
	.st7{fill:#583939;}
	.st8{fill:#7E5251;}
	.st9{fill:#B76B2A;}
	.st10{fill:#2D382A;}
	.st11{fill:#CE7C3E;}
	.st12{fill:#F7F8FB;}
	.st13{fill:#D37E66;}
	.st14{fill:#E78D6D;}
	.st15{fill:#764627;}
	.st16{fill:#814F30;}
	.st17{fill:#FFFFFF;}
	.st18{fill:#222D21;}
	.st19{fill:#42689B;}
	.st20{fill:#375781;}
	.st21{fill:#DFE5ED;}
	.st22{fill:#A56027;}
	.st23{fill:#DEE0E4;}
	.st24{fill:#BCBCBC;}
	.st25{fill:#ACABAB;}
	.st26{fill:#E68B6E;}
</style>
<g>
	<g>
		<path class="st0" d="M55.2,184.6h79.4c1.1,0,1.9,0.9,1.9,1.9v0c0,1.1-0.9,1.9-1.9,1.9H55.2c-1.1,0-1.9-0.9-1.9-1.9v0
			C53.3,185.5,54.2,184.6,55.2,184.6z"/>
		
			<rect x="80.3" y="187.3" transform="matrix(-1 -4.470880e-11 4.470880e-11 -1 171.8506 417.4793)" class="st0" width="11.2" height="42.9"/>
		<path class="st0" d="M122.8,234.2c-25.2-6.7-50.5-6.7-75.7,0v4.9c25.2-5.3,50.5-5.3,75.7,0V234.2z"/>
		
			<rect x="96.3" y="232.7" transform="matrix(-1 -4.462576e-11 4.462576e-11 -1 201.8548 471.8283)" class="st0" width="9.3" height="6.4"/>
		<circle class="st0" cx="100.9" cy="240" r="3.9"/>
		
			<rect x="69.5" y="232.7" transform="matrix(-1 -4.462576e-11 4.462576e-11 -1 148.3143 471.8283)" class="st0" width="9.3" height="6.4"/>
		<circle class="st0" cx="74.2" cy="240" r="3.9"/>
		<circle class="st0" cx="52.5" cy="240" r="3.9"/>
	</g>
	<path class="st1" d="M56.8,185.3h79c6.9,0,12.5-5.6,12.5-12.5L68.2,64.2H43.7c-3.3,0-5.9,2.7-5.9,5.9l9.8,106.7
		C48,181.6,52,185.3,56.8,185.3z"/>
	<path class="st2" d="M76.8,70.9l12,60.4l18,0.8c0,0-0.8-54.7-6.6-63.1l-5.7,0.5L76.8,70.9z"/>
	<path class="st3" d="M99.2,126.6l1.3,5.5h6.3c0,0-0.4-52.9-7.9-65.8l-4.4,3.2C98.2,74.5,100.4,98.3,99.2,126.6z"/>
	<path class="st4" d="M66.3,174.7c0,0,27.3,2.9,33-5L60.6,69.2h-10c-3.3,0-5.9,2.7-5.9,5.9l10,90.5
		C55.2,168.9,60.9,174.1,66.3,174.7z"/>
	<path class="st5" d="M136.4,163.6h-31.9c-5.9,0-10.7,4.8-10.7,10.7v0.3c0,5.9,4.8,10.7,10.7,10.7h31.9c5.9,0,10.7-4.8,10.7-10.7
		v-0.3C147.1,168.4,142.3,163.6,136.4,163.6z"/>
	<path class="st6" d="M121.9,148l2.5,17.2l0.8,5.7l15-0.4c4.9,24.3,10.9,41.4,15.5,64.3h17.6c-3.3-19.4-10-60.9-13.1-74.2
		c-3.3-14-12.5-12.7-12.5-12.7H121.9z"/>
	<path class="st7" d="M124.4,165.2l0.8,5.7l15-0.4c4.9,24.3,10.9,41.4,15.5,64.3h5.8c-6.2-24.9-13.9-53.3-16.2-63.2
		c-1.6-6.8-5.1-6.5-5.1-6.5H124.4z"/>
	<path class="st8" d="M108.2,234.9h17.4c4.4-21.6,7.4-56,8.5-70.3c1.2-14.4-10.4-16.5-10.4-16.5h-23.7l-0.6,16.7l-0.2,5.8l14.3-0.4
		C114.6,191.2,112.4,212.8,108.2,234.9z"/>
	<path class="st7" d="M108.2,234.9h4.7c3.1-22.7,5.5-52.5,6.7-63.7c0.7-6.9-5.1-6.5-5.1-6.5H99.4l-0.2,5.8l14.3-0.4
		C114.6,191.2,112.4,212.8,108.2,234.9z"/>
	<g>
		<path class="st9" d="M131.9,234.9h-22.1l-1.1,7.3h30.5l0,0C139.2,238.1,135.9,234.9,131.9,234.9z"/>
		
			<rect x="108.6" y="242.2" transform="matrix(-1 -4.496371e-11 4.496371e-11 -1 247.7595 486.2016)" class="st10" width="30.5" height="1.9"/>
		<path class="st11" d="M127.5,239h5.9c0.6,0,1.1-0.5,1.1-1.1v0c0-0.6-0.5-1.1-1.1-1.1h-5.9c-0.6,0-1.1,0.5-1.1,1.1v0
			C126.4,238.5,126.9,239,127.5,239z"/>
	</g>
	<g>
		<path class="st9" d="M181.1,234.9H159l-1.1,7.3h30.5l0,0C188.4,238.1,185.1,234.9,181.1,234.9z"/>
		
			<rect x="157.8" y="242.2" transform="matrix(-1 -4.496371e-11 4.496371e-11 -1 346.2165 486.2016)" class="st10" width="30.5" height="1.9"/>
		<path class="st11" d="M176.8,239h5.9c0.6,0,1.1-0.5,1.1-1.1v0c0-0.6-0.5-1.1-1.1-1.1h-5.9c-0.6,0-1.1,0.5-1.1,1.1v0
			C175.6,238.5,176.1,239,176.8,239z"/>
	</g>
	<path class="st12" d="M104.7,128.5h38.9V127c-0.7-1.9,1.3-3.5,1.3-3.5c-15.7,0.1-24.5-7.8-24.5-7.8s-0.7-26.3-3.2-38.2
		c-0.6-3-2.5-5.6-4.9-7.9c-7.2-6.6-19.4-9.6-19.4-9.6C101.5,72.8,104.8,98.8,104.7,128.5z"/>
	<g>
		<path class="st13" d="M74.8,40.6l1.3-1.9l2.6-3.7l0.8-1.1l0.8,1.2l12.6,20.6L92.8,58l0,0.7l-0.2,4.1c0,0,0.4,6.9-6.2,6.4
			c-6.6-0.4-10.8-5.4-10.6-10.8c0-0.6,0-1.3,0-1.9c0.1-4.7-0.3-9-0.3-9s-0.5-2.4-1.4-4.1c-0.2-0.4-0.4-0.7-0.6-0.9L74.8,40.6z"/>
		<path class="st14" d="M78.6,32.8c0,0.8,0,1.5,0.1,2.3c0.1,1.1,0.1,2.1,0.3,3.1c0.9,7.3,3.7,13.4,7.5,16.8c1.6,1.4,3.3,2.4,5.2,2.9
			c0.4,0.1,0.8,0.2,1.2,0.2c0.3,0,0.6,0.1,0.9,0.1c10.9,0,14.3-9,14.9-20.9c0.1-1.4,0.1-2.9,0.1-4.4c0-1.1,0-2.3-0.1-3.4
			c0-0.1,0-0.1,0-0.2c-0.2-4.7-0.7-9-1.9-12.5c-0.6,0-1.2,0-1.7,0c-2.6,0-5.2,0-7.8,0c-0.4,0-0.7,0-1.1,0c-4.3,0.1-8.5,0-12.8,0h-2
			c-0.6,0-1.2,0-1.9-0.1c-0.3,0-0.6,0-0.9,0C77.8,21,78.6,26.6,78.6,32.8z"/>
		<ellipse transform="matrix(0.9907 -0.1364 0.1364 0.9907 -3.4984 14.8815)" class="st14" cx="106.8" cy="33" rx="3.5" ry="4.7"/>
		<path class="st15" d="M67.9,31.3c0.9,1.8,0.9,3.7,0.9,3.7l6.9,6.6c5.9-4.1,5.3-10.6,4.1-14.7c-1.2-4.1-0.7-8.1-0.7-8.1
			c4.3-1.4,11.9,0.4,19.4,1.2c7.4,0.8,8.1-1.2,8.1-1.2l1.6,10.2l1.3,1.4c0.3-6.4-0.2-12.3-0.9-15c-0.1-0.5-0.2-1.4-0.4-2.6
			C107.4,8.2,105,0,93.4,0C79,0,77.6,3.1,75.2,4.7c-0.9,0.7-1.5,1.7-1.7,2.8c-0.4,1.5-0.3,3-0.3,3s-2.5-0.4-5.7,4
			C64.4,18.9,67,29.5,67.9,31.3z"/>
		<path class="st16" d="M73.5,7.5c4.9,2.6,12.7,6.1,21.8,6.8c6.9,0.6,10.8-0.4,12.9-1.6C107.4,8.2,105,0,93.4,0
			C79,0,77.6,3.1,75.2,4.7C74.3,5.4,73.8,6.5,73.5,7.5z"/>
		<ellipse transform="matrix(0.89 -0.4559 0.4559 0.89 -9.6095 37.2224)" class="st13" cx="72.3" cy="38.5" rx="3.5" ry="5.3"/>
		<path class="st17" d="M102.2,44.2l-11.6,0.7c0,0,0.5,5.1,5.6,5.2C101.3,50.2,102.2,44.2,102.2,44.2z"/>
		<ellipse class="st18" cx="103.3" cy="32.2" rx="2" ry="2.5"/>
		<ellipse class="st18" cx="90.7" cy="33.2" rx="2" ry="2.5"/>
		<path class="st15" d="M101.1,27.3c-0.2,0-0.2-1.4-0.2-2.1c0-0.2,0.2-0.4,0.4-0.4c1.3-0.2,5.3-0.6,7.1,1.4l-0.2,2.8
			C108.2,28.9,106.3,26.1,101.1,27.3z"/>
		<path class="st15" d="M93.3,25.3l0.1,2.1c0,0.2-0.2,0.4-0.4,0.4c-1.3-0.1-5.4-0.1-9.2,2.9c-0.2,0.1-0.4,0.1-0.5,0l-0.8-0.8
			c-0.2-0.1-0.2-0.4,0-0.6c1-1.1,4.9-4.8,10.4-4.4C93.1,24.9,93.3,25.1,93.3,25.3z"/>
		<path class="st13" d="M97.5,33.7l0.7,5.6c0.1,0.4,0.5,0.7,0.9,0.6c1.3-0.4,4-2,2.5-3.3l-3.8-3.1C97.7,33.4,97.5,33.5,97.5,33.7z"
			/>
	</g>
	<path class="st19" d="M83.6,79.7L83.6,79.7l4.4,4.2l1,36.8l2.7,2.4l4.6,4.1l2.8-5.8c-0.2-6.7-6.5-39.1-6.5-39.1l1.7-4.1L89,70.8
		h-2.6L83.6,79.7z"/>
	<polygon class="st20" points="83.6,79.7 88,83.9 88.9,120.6 91.6,123 89.4,83 84.5,78.5 	"/>
	<path class="st3" d="M97,69.5c0,0,0.4,4.1-3.1,11.2l-5.1-8.9L97,69.5z"/>
	<path class="st3" d="M75.5,72.1c0,0,1,4.3,9,11.3l5.4-11.8L75.5,72.1z"/>
	<path class="st12" d="M50,83.4c1.9,19.9,7.2,71.2,7.2,71.2s0.2,16.9,16.4,16.8l29.5,0c0,0-0.8-2.6-1.2-6.3
		c-0.8-7.1-0.2-18.4,10.2-24.1H90.2c-0.5-4.2-1-8.4-1.6-12.6h17.9c0,0,0-0.6,0.4-1.2c0,0-12.1-3.5-19.4-7.2
		c-1.8-13.4-3.8-26.4-6.5-38.6c-0.7-3.2-1.4-6.4-2.2-9.4c-1-4.1-2.2-8.1-3.4-12c0,0-1.2,0.2-3.1,0.6C65.3,62.2,48.5,67.7,50,83.4z"
		/>
	<path class="st21" d="M50,83.4c1.9,19.9,7.2,71.2,7.2,71.2s0.2,16.9,16.4,16.8l29.5,0c0,0-0.8-2.6-1.2-6.3c-7.3,0-21.7,0.1-29.9,0
		c-11.3-0.2-11-13.5-11-13.5l-3.5-39.4c5.7,11.3,17.4,17.5,17.4,17.5h6.6c-16.8-9.5-19.5-19-21-22c-1.6-3.1-10.2-21.8-5.6-32.7
		C58.1,67.3,65.4,65,68.7,64c0.2,0,1.2,9.2,12.4,17.4c-0.7-3.2-1.4-6.4-2.2-9.4c-2.9-4.2-6.5-8.7-6.5-8.7l0-2.8
		C65.3,62.2,48.5,67.7,50,83.4z"/>
	<path class="st2" d="M84.7,81.4l4.5-9.7l4.9,7.4c0,0,4.4-10.1,2.9-17.8c-0.1-0.6-0.5-1.1-1.1-1.3c-0.8-0.3-3.1-1.6-3.2-1.6
		l-0.2,4.5c0,0,0.1,1.8-0.7,3.4c-0.7,1.6-2.3,3.2-5.5,3c-0.9-0.1-1.8-0.2-2.7-0.5c-0.7-0.2-1.3-0.4-1.9-0.7c0,0,0,0,0,0
		c-3.9-1.9-6.1-5.6-6-9.6c0-0.6,0-1.3,0-1.9c-1.7,0.4-4.2,2.5-5.2,3.4c-0.3,0.3-0.4,0.6-0.4,1C70.2,63.3,71.5,71.9,84.7,81.4z"/>
	<path class="st3" d="M91.9,66.3c0.8-0.9,1.6-2.6,1.7-5.6c0-1.1-0.2-1.1-0.7-1.9c0,0-0.1,0-0.1-0.1c0,0-0.1-0.1-0.1-0.1l-0.2,4.1
		C92.6,62.8,92.7,64.6,91.9,66.3z"/>
	<path class="st3" d="M81.7,68.1c-3.9-1.9-6.1-5.6-6-9.6c0-0.6,0-1.3,0-1.9c-0.5,0.7-0.6,0.8-0.7,1.8C74.6,65.8,81.3,68,81.7,68.1z"
		/>
	<g>
		
			<rect x="0" y="128.5" transform="matrix(-1 -4.492507e-11 4.492507e-11 -1 36.562 266.8592)" class="st9" width="36.6" height="9.9"/>
		
			<rect x="36" y="128.5" transform="matrix(-1 -4.490376e-11 4.490376e-11 -1 270.4573 266.8592)" class="st22" width="198.4" height="9.9"/>
		
			<rect x="0" y="138.4" transform="matrix(-1 -4.489399e-11 4.489399e-11 -1 234.4343 281.0229)" class="st23" width="234.4" height="4.2"/>
		
			<rect x="223.5" y="142.6" transform="matrix(-1 -4.503254e-11 4.503254e-11 -1 456.5015 386.6067)" class="st24" width="9.5" height="101.4"/>
		
			<rect x="192.7" y="142.6" transform="matrix(-1 -4.503254e-11 4.503254e-11 -1 394.8761 386.6067)" class="st25" width="9.5" height="101.4"/>
		<rect x="1.4" y="142.6" class="st24" width="9.5" height="101.4"/>
		<rect x="26.8" y="142.6" class="st25" width="9.5" height="101.4"/>
	</g>
	<path class="st21" d="M67.5,86c0,0,7,21.2,19.3,28l0.8,6C87.6,120.1,71,111.4,67.5,86z"/>
	<path class="st21" d="M112.3,69.6l2.2,58.8h29.1V127c-0.7-1.9,1.3-3.5,1.3-3.5c-15.7,0.1-24.5-7.8-24.5-7.8s-0.7-26.3-3.2-38.2
		C116.6,74.5,114.7,71.9,112.3,69.6z"/>
	<path class="st26" d="M106.4,128.5l1-3.1c0.4-1.2,1.3-2.1,2.4-2.5l4.6-1.6c1.2-0.4,2.6-0.2,3.6,0.5l9.2,6.7L106.4,128.5z"/>
	<path class="st26" d="M142.4,128.5l1-3.1c0.4-1.2,1.3-2.1,2.4-2.5l4.6-1.6c1.2-0.4,2.6-0.2,3.6,0.5l9.2,6.7L142.4,128.5z"/>
	<g>
		<path class="st23" d="M152.3,116.1h67.1c4.1,0,7.4-3.3,7.4-7.4V60.6c0-4.1-3.3-7.4-7.4-7.4h-67.1c-4.1,0-7.4,3.3-7.4,7.4v48.1
			C144.9,112.8,148.2,116.1,152.3,116.1z"/>
		<path class="st24" d="M157.9,116.1H225c4.1,0,7.4-3.3,7.4-7.4V60.6c0-4.1-3.3-7.4-7.4-7.4h-67.1c-4.1,0-7.4,3.3-7.4,7.4v48.1
			C150.5,112.8,153.8,116.1,157.9,116.1z"/>
		<polygon class="st25" points="179.7,88.2 203.3,88.2 211.3,128.5 187.7,128.5 		"/>
		<path class="st23" d="M183.5,88.2h21c1.5,0,2.8,1.1,3.1,2.5l7.5,37.8h-23.6L183.5,88.2z"/>
		<path class="st25" d="M188.2,125.7h-9.7c-0.8,0-1.4,0.6-1.4,1.4v0c0,0.8,0.6,1.4,1.4,1.4h9.7c0.8,0,1.4-0.6,1.4-1.4v0
			C189.6,126.3,189,125.7,188.2,125.7z"/>
		
			<rect x="113.4" y="126.1" transform="matrix(-1 -4.488733e-11 4.488733e-11 -1 279.5604 254.5222)" class="st23" width="52.8" height="2.4"/>
	</g>
</g>
</svg>
