<?xml version="1.0" encoding="utf-8"?>
<!-- Generator: Adobe Illustrator 21.1.0, SVG Export Plug-In . SVG Version: 6.00 Build 0)  -->
<svg version="1.1" id="Layer_1" xmlns="http://www.w3.org/2000/svg" xmlns:xlink="http://www.w3.org/1999/xlink" x="0px" y="0px"
	 viewBox="0 0 140 140" style="enable-background:new 0 0 140 140;" xml:space="preserve">
<style type="text/css">
	.st0{fill:#7B6769;}
	.st1{fill:#AFDDD2;}
	.st2{fill:#4885C5;}
	.st3{fill:#4376A5;}
	.st4{fill:#98D5C8;}
	.st5{fill:#BEE4E4;}
	.st6{fill:#694241;}
	.st7{fill:#583939;}
	.st8{fill:#7E5251;}
	.st9{fill:#B76B2A;}
	.st10{fill:#2D382A;}
	.st11{fill:#CE7C3E;}
	.st12{fill:#D37E66;}
	.st13{fill:#E78D6D;}
	.st14{fill:#764627;}
	.st15{fill:#814F30;}
	.st16{fill:#FFFFFF;}
	.st17{fill:#222D21;}
	.st18{fill:#42689B;}
	.st19{fill:#375781;}
	.st20{fill:#A56027;}
	.st21{fill:#DEE0E4;}
	.st22{fill:#BCBCBC;}
	.st23{fill:#ACABAB;}
	.st24{fill:#E68B6E;}
</style>
<g>
	<g>
		<path class="st0" d="M35.4,196.4h79.4c1.1,0,1.9,0.9,1.9,1.9v0c0,1.1-0.9,1.9-1.9,1.9H35.4c-1.1,0-1.9-0.9-1.9-1.9v0
			C33.5,197.2,34.4,196.4,35.4,196.4z"/>
		
			<rect x="60.5" y="199" transform="matrix(-1 -4.470880e-11 4.470880e-11 -1 132.2312 441.006)" class="st0" width="11.2" height="42.9"/>
		<path class="st0" d="M103,245.9c-25.2-6.7-50.5-6.7-75.7,0v4.9c25.2-5.3,50.5-5.3,75.7,0V245.9z"/>
		
			<rect x="76.5" y="244.5" transform="matrix(-1 -4.482205e-11 4.482205e-11 -1 162.2355 495.3549)" class="st0" width="9.3" height="6.4"/>
		<circle class="st0" cx="81.1" cy="251.8" r="3.9"/>
		
			<rect x="49.7" y="244.5" transform="matrix(-1 -4.482205e-11 4.482205e-11 -1 108.695 495.3549)" class="st0" width="9.3" height="6.4"/>
		<circle class="st0" cx="54.3" cy="251.8" r="3.9"/>
		<circle class="st0" cx="32.7" cy="251.8" r="3.9"/>
	</g>
	<path class="st1" d="M37,197.1h79c6.9,0,12.5-5.6,12.5-12.5L48.4,76H23.9c-3.3,0-5.9,2.7-5.9,5.9l9.8,106.7
		C28.2,193.4,32.2,197.1,37,197.1z"/>
	<path class="st2" d="M57,82.7l12,60.4l18,0.8c0,0-0.8-54.7-6.6-63.1l-5.7,0.5L57,82.7z"/>
	<path class="st3" d="M79.4,138.4l1.3,5.5H87c0,0-0.4-52.9-7.9-65.8l-4.4,3.2C78.4,86.3,80.6,110,79.4,138.4z"/>
	<path class="st4" d="M46.4,186.5c0,0,27.3,2.9,33-5L40.8,81h-10c-3.3,0-5.9,2.7-5.9,5.9l10,90.5C35.4,180.6,41.1,185.9,46.4,186.5z
		"/>
	<path class="st5" d="M116.6,175.4H84.7c-5.9,0-10.7,4.8-10.7,10.7v0.3c0,5.9,4.8,10.7,10.7,10.7h31.9c5.9,0,10.7-4.8,10.7-10.7
		v-0.3C127.3,180.2,122.5,175.4,116.6,175.4z"/>
	<path class="st6" d="M102.1,159.8l2.5,17.2l0.8,5.7l15-0.4c4.9,24.3,10.9,41.4,15.5,64.3h17.6c-3.3-19.4-10-60.9-13.1-74.2
		c-3.3-14-12.5-12.7-12.5-12.7H102.1z"/>
	<path class="st7" d="M104.6,177l0.8,5.7l15-0.4c4.9,24.3,10.9,41.4,15.5,64.3h5.8c-6.2-24.9-13.9-53.3-16.2-63.2
		c-1.6-6.8-5.1-6.5-5.1-6.5H104.6z"/>
	<path class="st8" d="M88.4,246.6h17.4c4.4-21.6,7.4-56,8.5-70.3c1.2-14.4-10.4-16.5-10.4-16.5H54.8l-11.5,15.6v1.1
		c0,3.3,2.7,5.9,5.9,5.9l44.5-0.3C94.8,202.9,92.6,224.6,88.4,246.6z"/>
	<path class="st7" d="M88.4,246.6h4.7c3.1-22.7,5.5-52.5,6.7-63.7c0.7-6.9-5.1-6.5-5.1-6.5h-51l3.2,5.8l46.8-0.3
		C94.8,202.9,92.6,224.6,88.4,246.6z"/>
	<g>
		<path class="st9" d="M112.1,246.6H89.9l-1.1,7.3h30.5l0,0C119.3,249.9,116.1,246.6,112.1,246.6z"/>
		
			<rect x="88.8" y="253.9" transform="matrix(-1 -4.490420e-11 4.490420e-11 -1 208.1402 509.7282)" class="st10" width="30.5" height="1.9"/>
		<path class="st11" d="M107.7,250.7h5.9c0.6,0,1.1-0.5,1.1-1.1v0c0-0.6-0.5-1.1-1.1-1.1h-5.9c-0.6,0-1.1,0.5-1.1,1.1v0
			C106.6,250.2,107.1,250.7,107.7,250.7z"/>
	</g>
	<g>
		<path class="st9" d="M161.3,246.6h-22.1l-1.1,7.3h30.5l0,0C168.6,249.9,165.3,246.6,161.3,246.6z"/>
		
			<rect x="138" y="253.9" transform="matrix(-1 -4.490420e-11 4.490420e-11 -1 306.5972 509.7282)" class="st10" width="30.5" height="1.9"/>
		<path class="st11" d="M156.9,250.7h5.9c0.6,0,1.1-0.5,1.1-1.1v0c0-0.6-0.5-1.1-1.1-1.1h-5.9c-0.6,0-1.1,0.5-1.1,1.1v0
			C155.8,250.2,156.3,250.7,156.9,250.7z"/>
	</g>
	<path class="st2" d="M84.8,140.2h38.9v-1.4c-0.7-1.9,1.3-3.5,1.3-3.5c-15.7,0.1-24.5-7.8-24.5-7.8s-0.7-26.3-3.2-38.2
		c-0.6-3-2.5-5.6-4.9-7.9C85.3,74.8,73,71.8,73,71.8C81.7,84.6,85,110.6,84.8,140.2z"/>
	<g>
		<path class="st12" d="M55,52.4l1.3-1.9l2.6-3.7l0.8-1.1l0.8,1.2L73,67.5L73,69.8l0,0.7l-0.2,4.1c0,0,0.4,6.9-6.2,6.4
			c-6.6-0.4-10.8-5.4-10.6-10.8c0-0.6,0-1.3,0-1.9c0.1-4.7-0.3-9-0.3-9s-0.5-2.4-1.4-4.1c-0.2-0.4-0.4-0.7-0.6-0.9L55,52.4z"/>
		<path class="st13" d="M58.8,44.5c0,0.8,0,1.5,0.1,2.3c0.1,1.1,0.1,2.1,0.3,3.1c0.9,7.3,3.7,13.4,7.5,16.8c1.6,1.4,3.3,2.4,5.2,2.9
			c0.4,0.1,0.8,0.2,1.2,0.2c0.3,0,0.6,0.1,0.9,0.1c10.9,0,14.3-9,14.9-20.9c0.1-1.4,0.1-2.9,0.1-4.4c0-1.1,0-2.3-0.1-3.4
			c0-0.1,0-0.1,0-0.2c-0.2-4.7-0.7-9-1.9-12.5c-0.6,0-1.2,0-1.7,0c-2.6,0-5.2,0-7.8,0c-0.4,0-0.7,0-1.1,0c-4.3,0.1-8.5,0-12.8,0h-2
			c-0.6,0-1.2,0-1.9-0.1c-0.3,0-0.6,0-0.9,0C58,32.7,58.8,38.4,58.8,44.5z"/>
		<ellipse transform="matrix(0.9907 -0.1364 0.1364 0.9907 -5.2882 12.2892)" class="st13" cx="87" cy="44.7" rx="3.5" ry="4.7"/>
		<path class="st14" d="M48.1,43c0.9,1.8,0.9,3.7,0.9,3.7l6.9,6.6c5.9-4.1,5.3-10.6,4.1-14.7c-1.2-4.1-0.7-8.1-0.7-8.1
			c4.3-1.4,11.9,0.4,19.4,1.2c7.4,0.8,8.1-1.2,8.1-1.2l1.6,10.2l1.3,1.4c0.3-6.4-0.2-12.3-0.9-15c-0.1-0.5-0.2-1.4-0.4-2.6
			c-0.8-4.6-3.3-12.8-14.8-12.8c-14.4,0-15.9,3.1-18.2,4.7c-0.9,0.7-1.5,1.7-1.7,2.8c-0.4,1.5-0.3,3-0.3,3s-2.5-0.4-5.7,4
			C44.6,30.7,47.2,41.2,48.1,43z"/>
		<path class="st15" d="M53.7,19.3c4.9,2.6,12.7,6.1,21.8,6.8c6.9,0.6,10.8-0.4,12.9-1.6c-0.8-4.6-3.3-12.8-14.8-12.8
			c-14.4,0-15.9,3.1-18.2,4.7C54.5,17.1,54,18.2,53.7,19.3z"/>
		<ellipse transform="matrix(0.89 -0.4559 0.4559 0.89 -17.1512 29.4846)" class="st12" cx="52.5" cy="50.3" rx="3.5" ry="5.3"/>
		<path class="st16" d="M82.4,55.9l-11.6,0.7c0,0,0.5,5.1,5.6,5.2C81.4,62,82.4,55.9,82.4,55.9z"/>
		<ellipse class="st17" cx="83.5" cy="44" rx="2" ry="2.5"/>
		<ellipse class="st17" cx="70.8" cy="45" rx="2" ry="2.5"/>
		<path class="st14" d="M81.3,39.1c-0.2,0-0.2-1.4-0.2-2.1c0-0.2,0.2-0.4,0.4-0.4c1.3-0.2,5.3-0.6,7.1,1.4l-0.2,2.8
			C88.4,40.7,86.5,37.9,81.3,39.1z"/>
		<path class="st14" d="M73.5,37.1l0.1,2.1c0,0.2-0.2,0.4-0.4,0.4c-1.3-0.1-5.4-0.1-9.2,2.9c-0.2,0.1-0.4,0.1-0.5,0l-0.8-0.8
			c-0.2-0.1-0.2-0.4,0-0.6c1-1.1,4.9-4.8,10.4-4.4C73.3,36.7,73.5,36.9,73.5,37.1z"/>
		<path class="st12" d="M77.7,45.5l0.7,5.6c0.1,0.4,0.5,0.7,0.9,0.6c1.3-0.4,4-2,2.5-3.3L78,45.3C77.9,45.2,77.7,45.3,77.7,45.5z"/>
	</g>
	<path class="st18" d="M63.8,91.5L63.8,91.5l4.4,4.2l1,36.8l2.7,2.4l4.6,4.1l2.8-5.8C79,126.4,72.7,94,72.7,94l1.7-4.1l-5.2-7.4
		h-2.6L63.8,91.5z"/>
	<polygon class="st19" points="63.8,91.5 68.2,95.6 69.1,132.4 71.8,134.8 69.6,94.8 64.7,90.3 	"/>
	<path class="st3" d="M77.2,81.3c0,0,0.4,4.1-3.1,11.2L69,83.6L77.2,81.3z"/>
	<path class="st3" d="M55.7,83.8c0,0,1,4.3,9,11.3l5.4-11.8L55.7,83.8z"/>
	<path class="st2" d="M110.2,159.8c-11.1,0-30.5,0-42.5,0c-10.3,0-21,8.2-21.9,15.4c0,0.3-0.1,0.6-0.1,0.9c0,0.1,0,0.3,0,0.4v0
		c0,4,1.1,5.7,1.1,5.8c-0.9-0.4-1.9-1.2-2.6-1.7c0,0,0,0,0,0c-0.2-0.2-0.4-0.3-0.6-0.5c-3.7-2.9-5.2-7.1-5.8-10.2
		c-0.3-1.2-0.4-2.2-0.4-2.9c0-0.1,0-0.2,0-0.3c0-0.3,0-0.4,0-0.4s-5.3-51.3-7.2-71.2C28.7,79.4,45.5,74,52.6,72.4
		c1.9-0.4,3.1-0.6,3.1-0.6c1.2,3.9,2.4,7.9,3.4,12c0.8,3.1,1.5,6.2,2.2,9.5c2.6,12.2,4.7,25.3,6.5,38.6c7.3,3.7,19.4,7.2,19.4,7.2
		c-0.4,0.6-0.4,1.2-0.4,1.2H68.9c0.5,4.2,1,8.4,1.5,12.6C83.5,151.4,96.7,152.3,110.2,159.8z"/>
	<path class="st3" d="M110.2,159.8H94.9c-6-3.6-10-5.6-21-8h16.7C100.7,155.3,107.7,158.1,110.2,159.8z"/>
	<path class="st3" d="M37.6,124.1l3.5,39.4c0,0-0.1,7.7,4.8,11.5c0,0.1,0,0.1,0,0.2c0,0.5,0,1,0,1.4v0c0,4,1.1,5.7,1.1,5.8
		c-0.9-0.4-1.9-1.2-2.6-1.7c0,0,0,0,0,0c-0.2-0.2-0.4-0.3-0.6-0.5c-3.7-2.9-5.2-7.2-5.8-10.2c-0.3-1.2-0.4-2.2-0.4-2.9
		c0-0.1,0-0.2,0-0.3c0-0.3,0-0.4,0-0.4s-5.3-51.3-7.2-71.2C28.7,79.4,45.5,74,52.6,72.4l0,2.8c0,0,3.6,4.4,6.5,8.7
		c0.8,3.1,1.5,6.2,2.2,9.5C50.1,85,49.1,75.8,48.9,75.8c-3.4,1-10.6,3.3-13.9,11.1c-4.6,10.8,4,29.6,5.6,32.7c1.5,3,4.3,12.5,21,22
		H55C55,141.6,43.3,135.3,37.6,124.1z"/>
	<path class="st2" d="M64.9,93.2l4.5-9.7l4.9,7.4c0,0,4.4-10.1,2.9-17.8c-0.1-0.6-0.5-1.1-1.1-1.3c-0.8-0.3-3.1-1.6-3.2-1.6
		l-0.2,4.5c0,0,0.1,1.8-0.7,3.4c-0.7,1.6-2.3,3.2-5.5,3c-0.9-0.1-1.8-0.2-2.7-0.5c-0.7-0.2-1.3-0.4-1.9-0.7c0,0,0,0,0,0
		c-3.9-1.9-6.1-5.6-6-9.6c0-0.6,0-1.3,0-1.9c-1.7,0.4-4.2,2.5-5.2,3.4c-0.3,0.3-0.4,0.6-0.4,1C50.4,75.1,51.7,83.7,64.9,93.2z"/>
	<path class="st3" d="M72.1,78.1c0.8-0.9,1.6-2.6,1.7-5.6c0-1.1-0.2-1.1-0.7-1.9c0,0-0.1,0-0.1-0.1c0,0-0.1-0.1-0.1-0.1l-0.2,4.1
		C72.8,74.6,72.9,76.4,72.1,78.1z"/>
	<path class="st3" d="M61.9,79.8c-3.9-1.9-6.1-5.6-6-9.6c0-0.6,0-1.3,0-1.9c-0.5,0.7-0.6,0.8-0.7,1.8C54.8,77.6,61.5,79.7,61.9,79.8
		z"/>
	<g>
		
			<rect x="-19.8" y="140.2" transform="matrix(-1 -4.945256e-11 4.945256e-11 -1 -3.0573 291.3687)" class="st9" width="36.6" height="10.9"/>
		
			<rect x="16.2" y="140.2" transform="matrix(-1 -4.935930e-11 4.935930e-11 -1 230.8379 291.3687)" class="st20" width="198.4" height="10.9"/>
		
			<rect x="-19.8" y="151.1" transform="matrix(-1 -4.933222e-11 4.933222e-11 -1 194.8149 306.9326)" class="st21" width="234.4" height="4.6"/>
		
			<rect x="203.7" y="155.8" transform="matrix(-1 -4.445745e-11 4.445745e-11 -1 416.8822 411.5335)" class="st22" width="9.5" height="100"/>
		
			<rect x="172.9" y="155.8" transform="matrix(-1 -4.407420e-11 4.407420e-11 -1 355.2567 411.5335)" class="st23" width="9.5" height="100"/>
		<rect x="-18.4" y="155.8" class="st22" width="9.5" height="100"/>
		<rect x="7" y="155.8" class="st23" width="9.5" height="100"/>
	</g>
	<path class="st3" d="M47.7,97.8c0,0,7,21.2,19.3,28l0.8,6C67.8,131.8,51.2,123.2,47.7,97.8z"/>
	<path class="st3" d="M92.5,81.4c3.1,6.1,2.9,30.7,2.2,58.8l29.1,0v-1.4c-0.7-1.9,1.3-3.5,1.3-3.5c-15.7,0.1-24.5-7.8-24.5-7.8
		s-0.7-26.3-3.2-38.2C96.8,86.2,94.9,83.6,92.5,81.4z"/>
	<path class="st24" d="M86.6,140.2l1-3.1c0.4-1.2,1.3-2.1,2.4-2.5l4.6-1.6c1.2-0.4,2.6-0.2,3.6,0.5l9.2,6.7L86.6,140.2z"/>
	<path class="st24" d="M122.5,140.2l1-3.1c0.4-1.2,1.3-2.1,2.4-2.5l4.6-1.6c1.2-0.4,2.6-0.2,3.6,0.5l9.2,6.7L122.5,140.2z"/>
	<g>
		<path class="st21" d="M132.5,127.9h67.1c4.1,0,7.4-3.3,7.4-7.4V72.4c0-4.1-3.3-7.4-7.4-7.4h-67.1c-4.1,0-7.4,3.3-7.4,7.4v48.1
			C125.1,124.6,128.4,127.9,132.5,127.9z"/>
		<path class="st22" d="M138.1,127.9h67.1c4.1,0,7.4-3.3,7.4-7.4V72.4c0-4.1-3.3-7.4-7.4-7.4h-67.1c-4.1,0-7.4,3.3-7.4,7.4v48.1
			C130.7,124.6,134,127.9,138.1,127.9z"/>
		<polygon class="st23" points="159.9,99.9 183.5,99.9 191.5,140.2 167.9,140.2 		"/>
		<path class="st21" d="M163.7,99.9h21c1.5,0,2.8,1.1,3.1,2.5l7.5,37.8h-23.6L163.7,99.9z"/>
		<path class="st23" d="M168.4,137.5h-9.7c-0.8,0-1.4,0.6-1.4,1.4v0c0,0.8,0.6,1.4,1.4,1.4h9.7c0.8,0,1.4-0.6,1.4-1.4v0
			C169.8,138.1,169.2,137.5,168.4,137.5z"/>
		
			<rect x="93.6" y="137.8" transform="matrix(-1 -4.488733e-11 4.488733e-11 -1 239.941 278.0488)" class="st21" width="52.8" height="2.4"/>
	</g>
</g>
</svg>
