<?xml version="1.0" encoding="utf-8"?>
<!-- Generator: Adobe Illustrator 21.1.0, SVG Export Plug-In . SVG Version: 6.00 Build 0)  -->
<svg version="1.1" id="Layer_1" xmlns="http://www.w3.org/2000/svg" xmlns:xlink="http://www.w3.org/1999/xlink" x="0px" y="0px"
	 viewBox="0 0 271.5 263.9" style="enable-background:new 0 0 271.5 263.9;" xml:space="preserve">
<style type="text/css">
	.st0{opacity:0.3;}
	.st1{fill:none;stroke:#39BBD7;stroke-width:2;stroke-linecap:square;stroke-linejoin:round;stroke-miterlimit:10;}
	.st2{fill:none;stroke:#39BBD7;stroke-width:2;stroke-linecap:round;stroke-linejoin:round;stroke-miterlimit:10;}
	.st3{fill:#7B6769;}
	.st4{fill:#AFDDD2;}
	.st5{fill:#4885C5;}
	.st6{fill:#4376A5;}
	.st7{fill:#98D5C8;}
	.st8{fill:#BEE4E4;}
	.st9{fill:#694241;}
	.st10{fill:#583939;}
	.st11{fill:#7E5251;}
	.st12{fill:#B76B2A;}
	.st13{fill:#2D382A;}
	.st14{fill:#CE7C3E;}
	.st15{fill:#D37E66;}
	.st16{fill:#E78D6D;}
	.st17{fill:#764627;}
	.st18{fill:#814F30;}
	.st19{fill:#FFFFFF;}
	.st20{fill:#222D21;}
	.st21{fill:#42689B;}
	.st22{fill:#375781;}
	.st23{fill:#A56027;}
	.st24{fill:#DEE0E4;}
	.st25{fill:#BCBCBC;}
	.st26{fill:#ACABAB;}
	.st27{fill:#E68B6E;}
	.st28{fill:#AB6728;}
	.st29{fill:#8E5222;}
	.st30{fill:#F09A6D;}
	.st31{fill:#433F3A;}
	.st32{fill:#66A6D1;}
	.st33{fill:#F9A982;}
	.st34{fill:#80B7E2;}
	.st35{fill:#EEF5FC;}
	.st36{fill:#F9A983;}
	.st37{fill:#EDF5FC;}
	.st38{fill:#DFE5ED;}
	.st39{fill:#C77736;}
	.st40{fill:#F06D70;}
	.st41{fill:#A94C54;}
	.st42{opacity:0.3;fill:none;stroke:#39BBD7;stroke-width:2;stroke-linecap:round;stroke-linejoin:round;stroke-miterlimit:10;}
</style>
<g>
	<g class="st0">
		<g>
			<g>
				<polyline class="st1" points="1038,111.5 1038,-7.3 943.5,-7.3 943.5,111.5 				"/>
			</g>
		</g>
		<g>
			<g>
				<polyline class="st1" points="1043.8,27.8 1043.8,-12.8 1015.6,-12.8 				"/>
			</g>
		</g>
		<g>
			<g>
				<polygon class="st2" points="1061.2,119 1061.2,113.5 1045.6,113.5 987.5,113.5 935.6,113.5 935.6,119 				"/>
			</g>
		</g>
		<g>
			<g>
				<rect x="858.8" y="25.5" class="st2" width="35.8" height="46.9"/>
			</g>
		</g>
		<g>
			<g>
				<rect x="854.3" y="20.9" class="st2" width="44.7" height="56.1"/>
			</g>
		</g>
		<g>
			<line class="st2" x1="1007.9" y1="18.8" x2="1025.9" y2="36.7"/>
			<line class="st2" x1="965.6" y1="39.6" x2="980.8" y2="54.8"/>
			<line class="st2" x1="964.2" y1="13.6" x2="1012.4" y2="61.8"/>
		</g>
		<polygon class="st2" points="889.4,53.2 883.5,46.7 880.1,50.3 870.2,39.4 863.3,47.1 863.3,56.3 889.4,56.3 		"/>
	</g>
	<g>
		<g>
			<path class="st3" d="M907.8,204.6h79.4c1.1,0,1.9,0.9,1.9,1.9v0c0,1.1-0.9,1.9-1.9,1.9h-79.4c-1.1,0-1.9-0.9-1.9-1.9v0
				C905.9,205.5,906.7,204.6,907.8,204.6z"/>
			
				<rect x="932.9" y="207.3" transform="matrix(-1 -4.470880e-11 4.470880e-11 -1 1876.9951 457.4793)" class="st3" width="11.2" height="42.9"/>
			<path class="st3" d="M975.4,254.2c-25.2-6.7-50.5-6.7-75.7,0v4.9c25.2-5.3,50.5-5.3,75.7,0V254.2z"/>
			
				<rect x="948.9" y="252.7" transform="matrix(-1 -4.462576e-11 4.462576e-11 -1 1906.9994 511.8283)" class="st3" width="9.3" height="6.4"/>
			<circle class="st3" cx="953.5" cy="260" r="3.9"/>
			
				<rect x="922.1" y="252.7" transform="matrix(-1 -4.462576e-11 4.462576e-11 -1 1853.4589 511.8283)" class="st3" width="9.3" height="6.4"/>
			<circle class="st3" cx="926.7" cy="260" r="3.9"/>
			<circle class="st3" cx="905" cy="260" r="3.9"/>
		</g>
		<path class="st4" d="M909.4,205.3h79c6.9,0,12.5-5.6,12.5-12.5L920.8,84.2h-24.5c-3.3,0-5.9,2.7-5.9,5.9l9.8,106.7
			C900.5,201.6,904.6,205.3,909.4,205.3z"/>
		<path class="st5" d="M929.4,90.9l12,60.4l18,0.8c0,0-0.8-54.7-6.6-63.1l-5.7,0.5L929.4,90.9z"/>
		<path class="st6" d="M951.8,146.6l1.3,5.5h6.3c0,0-0.4-52.9-7.9-65.8l-4.4,3.2C950.8,94.5,952.9,118.3,951.8,146.6z"/>
		<path class="st7" d="M918.8,194.7c0,0,27.3,2.9,33-5L913.2,89.2h-10c-3.3,0-5.9,2.7-5.9,5.9l10,90.5
			C907.8,188.9,913.5,194.1,918.8,194.7z"/>
		<path class="st8" d="M989,183.6h-31.9c-5.9,0-10.7,4.8-10.7,10.7v0.3c0,5.9,4.8,10.7,10.7,10.7H989c5.9,0,10.7-4.8,10.7-10.7v-0.3
			C999.7,188.4,994.9,183.6,989,183.6z"/>
		<path class="st9" d="M974.5,168l2.5,17.2l0.8,5.7l15-0.4c4.9,24.3,10.9,41.4,15.5,64.3h17.6c-3.3-19.4-10-60.9-13.1-74.2
			c-3.3-14-12.5-12.7-12.5-12.7H974.5z"/>
		<path class="st10" d="M976.9,185.2l0.8,5.7l15-0.4c4.9,24.3,10.9,41.4,15.5,64.3h5.8c-6.2-24.9-13.9-53.3-16.2-63.2
			c-1.6-6.8-5.1-6.5-5.1-6.5H976.9z"/>
		<path class="st11" d="M960.8,254.9h17.4c4.4-21.6,7.4-56,8.5-70.3c1.2-14.4-10.4-16.5-10.4-16.5h-49.2l-11.5,15.6v1.1
			c0,3.3,2.7,5.9,5.9,5.9l44.5-0.3C967.2,211.2,965,232.8,960.8,254.9z"/>
		<path class="st10" d="M960.8,254.9h4.7c3.1-22.7,5.5-52.5,6.7-63.7c0.7-6.9-5.1-6.5-5.1-6.5h-51l3.2,5.8l46.8-0.3
			C967.2,211.2,965,232.8,960.8,254.9z"/>
		<g>
			<path class="st12" d="M984.4,254.9h-22.1l-1.1,7.3h30.5l0,0C991.7,258.1,988.5,254.9,984.4,254.9z"/>
			
				<rect x="961.2" y="262.2" transform="matrix(-1 -4.496371e-11 4.496371e-11 -1 1952.9041 526.2015)" class="st13" width="30.5" height="1.9"/>
			<path class="st14" d="M980.1,259h5.9c0.6,0,1.1-0.5,1.1-1.1v0c0-0.6-0.5-1.1-1.1-1.1h-5.9c-0.6,0-1.1,0.5-1.1,1.1v0
				C979,258.5,979.5,259,980.1,259z"/>
		</g>
		<g>
			<path class="st12" d="M1033.7,254.9h-22.1l-1.1,7.3h30.5l0,0C1041,258.1,1037.7,254.9,1033.7,254.9z"/>
			
				<rect x="1010.4" y="262.2" transform="matrix(-1 -4.496371e-11 4.496371e-11 -1 2051.3611 526.2015)" class="st13" width="30.5" height="1.9"/>
			<path class="st14" d="M1029.3,259h5.9c0.6,0,1.1-0.5,1.1-1.1v0c0-0.6-0.5-1.1-1.1-1.1h-5.9c-0.6,0-1.1,0.5-1.1,1.1v0
				C1028.2,258.5,1028.7,259,1029.3,259z"/>
		</g>
		<path class="st5" d="M957.2,148.5h38.9V147c-0.7-1.9,1.3-3.5,1.3-3.5c-15.7,0.1-24.5-7.8-24.5-7.8s-0.7-26.3-3.2-38.2
			c-0.6-3-2.5-5.6-4.9-7.9c-7.2-6.6-19.4-9.6-19.4-9.6C954.1,92.8,957.3,118.8,957.2,148.5z"/>
		<g>
			<path class="st15" d="M927.3,60.6l1.3-1.9l2.6-3.7l0.8-1.1l0.8,1.2l12.6,20.6l-0.1,2.3l0,0.7l-0.2,4.1c0,0,0.4,6.9-6.2,6.4
				c-6.6-0.4-10.8-5.4-10.6-10.8c0-0.6,0-1.3,0-1.9c0.1-4.7-0.3-9-0.3-9s-0.5-2.4-1.4-4.1c-0.2-0.4-0.4-0.7-0.6-0.9L927.3,60.6z"/>
			<path class="st16" d="M931.2,52.8c0,0.8,0,1.5,0.1,2.3c0.1,1.1,0.1,2.1,0.3,3.1c0.9,7.3,3.7,13.4,7.5,16.8
				c1.6,1.4,3.3,2.4,5.2,2.9c0.4,0.1,0.8,0.2,1.2,0.2c0.3,0,0.6,0.1,0.9,0.1c10.9,0,14.3-9,14.9-20.9c0.1-1.4,0.1-2.9,0.1-4.4
				c0-1.1,0-2.3-0.1-3.4c0-0.1,0-0.1,0-0.2c-0.2-4.7-0.7-9-1.9-12.5c-0.6,0-1.2,0-1.7,0c-2.6,0-5.2,0-7.8,0c-0.4,0-0.7,0-1.1,0
				c-4.3,0.1-8.5,0-12.8,0h-2c-0.6,0-1.2,0-1.9-0.1c-0.3,0-0.6,0-0.9,0C930.3,41,931.2,46.6,931.2,52.8z"/>
			<ellipse transform="matrix(0.9907 -0.1364 0.1364 0.9907 1.7429 131.3681)" class="st16" cx="959.4" cy="53" rx="3.5" ry="4.7"/>
			<path class="st17" d="M920.5,51.3c0.9,1.8,0.9,3.7,0.9,3.7l6.9,6.6c5.9-4.1,5.3-10.6,4.1-14.7c-1.2-4.1-0.7-8.1-0.7-8.1
				c4.3-1.4,11.9,0.4,19.4,1.2c7.4,0.8,8.1-1.2,8.1-1.2l1.6,10.2l1.3,1.4c0.3-6.4-0.2-12.3-0.9-15c-0.1-0.5-0.2-1.4-0.4-2.6
				C960,28.2,957.5,20,946,20c-14.4,0-15.9,3.1-18.2,4.7c-0.9,0.7-1.5,1.7-1.7,2.8c-0.4,1.5-0.3,3-0.3,3s-2.5-0.4-5.7,4
				C917,38.9,919.6,49.5,920.5,51.3z"/>
			<path class="st18" d="M926.1,27.5c4.9,2.6,12.7,6.1,21.8,6.8c6.9,0.6,10.8-0.4,12.9-1.6C960,28.2,957.5,20,946,20
				c-14.4,0-15.9,3.1-18.2,4.7C926.9,25.4,926.4,26.5,926.1,27.5z"/>
			<ellipse transform="matrix(0.89 -0.4559 0.4559 0.89 75.035 428.1218)" class="st15" cx="924.9" cy="58.5" rx="3.5" ry="5.3"/>
			<path class="st19" d="M954.8,64.2l-11.6,0.7c0,0,0.5,5.1,5.6,5.2C953.8,70.2,954.8,64.2,954.8,64.2z"/>
			<ellipse class="st20" cx="955.9" cy="52.2" rx="2" ry="2.5"/>
			<ellipse class="st20" cx="943.2" cy="53.2" rx="2" ry="2.5"/>
			<path class="st17" d="M953.7,47.3c-0.2,0-0.2-1.4-0.2-2.1c0-0.2,0.2-0.4,0.4-0.4c1.3-0.2,5.3-0.6,7.1,1.4l-0.2,2.8
				C960.8,48.9,958.8,46.1,953.7,47.3z"/>
			<path class="st17" d="M945.9,45.3l0.1,2.1c0,0.2-0.2,0.4-0.4,0.4c-1.3-0.1-5.4-0.1-9.2,2.9c-0.2,0.1-0.4,0.1-0.5,0l-0.8-0.8
				c-0.2-0.1-0.2-0.4,0-0.6c1-1.1,4.9-4.8,10.4-4.4C945.7,44.9,945.9,45.1,945.9,45.3z"/>
			<path class="st15" d="M950.1,53.7l0.7,5.6c0.1,0.4,0.5,0.7,0.9,0.6c1.3-0.4,4-2,2.5-3.3l-3.8-3.1
				C950.3,53.4,950.1,53.5,950.1,53.7z"/>
		</g>
		<path class="st21" d="M936.2,99.7L936.2,99.7l4.4,4.2l1,36.8l2.7,2.4l4.6,4.1l2.8-5.8c-0.2-6.7-6.5-39.1-6.5-39.1l1.7-4.1
			l-5.2-7.4H939L936.2,99.7z"/>
		<polygon class="st22" points="936.2,99.7 940.6,103.9 941.5,140.6 944.2,143 942,103 937.1,98.5 		"/>
		<path class="st6" d="M949.6,89.5c0,0,0.4,4.1-3.1,11.2l-5.1-8.9L949.6,89.5z"/>
		<path class="st6" d="M928.1,92.1c0,0,1,4.3,9,11.3l5.4-11.8L928.1,92.1z"/>
		<path class="st5" d="M982.6,168c-11.1,0-30.5,0-42.5,0c-10.3,0-21,8.2-21.9,15.4c0,0.3-0.1,0.6-0.1,0.9c0,0.1,0,0.3,0,0.4v0
			c0,4,1.1,5.7,1.1,5.8c-0.9-0.4-1.9-1.2-2.6-1.7c0,0,0,0,0,0c-0.2-0.2-0.4-0.3-0.6-0.5c-3.7-2.9-5.2-7.1-5.8-10.2
			c-0.3-1.2-0.4-2.2-0.4-2.9c0-0.1,0-0.2,0-0.3c0-0.3,0-0.4,0-0.4s-5.3-51.3-7.2-71.2C901,87.7,917.8,82.2,925,80.6
			c1.9-0.4,3.1-0.6,3.1-0.6c1.2,3.9,2.4,7.9,3.4,12c0.8,3.1,1.5,6.2,2.2,9.5c2.6,12.2,4.7,25.3,6.5,38.6c7.3,3.7,19.4,7.2,19.4,7.2
			c-0.4,0.6-0.4,1.2-0.4,1.2h-17.9c0.5,4.2,1,8.4,1.5,12.6C955.9,159.6,969.1,160.5,982.6,168z"/>
		<path class="st6" d="M982.6,168h-15.4c-6-3.6-10-5.6-21-8h16.7C973,163.5,980,166.3,982.6,168z"/>
		<path class="st6" d="M910,132.3l3.5,39.4c0,0-0.1,7.7,4.8,11.5c0,0.1,0,0.1,0,0.2c0,0.5,0,1,0,1.4v0c0,4,1.1,5.7,1.1,5.8
			c-0.9-0.4-1.9-1.2-2.6-1.7c0,0,0,0,0,0c-0.2-0.2-0.4-0.3-0.6-0.5c-3.7-2.9-5.2-7.2-5.8-10.2c-0.3-1.2-0.4-2.2-0.4-2.9
			c0-0.1,0-0.2,0-0.3c0-0.3,0-0.4,0-0.4s-5.3-51.3-7.2-71.2C901,87.7,917.8,82.2,925,80.6l0,2.8c0,0,3.6,4.4,6.5,8.7
			c0.8,3.1,1.5,6.2,2.2,9.5C922.5,93.2,921.5,84,921.3,84c-3.4,1-10.6,3.3-13.9,11.1c-4.6,10.8,4,29.6,5.6,32.7
			c1.5,3,4.3,12.5,21,22h-6.6C927.4,149.8,915.7,143.5,910,132.3z"/>
		<path class="st5" d="M937.3,101.4l4.5-9.7l4.9,7.4c0,0,4.4-10.1,2.9-17.8c-0.1-0.6-0.5-1.1-1.1-1.3c-0.8-0.3-3.1-1.6-3.2-1.6
			l-0.2,4.5c0,0,0.1,1.8-0.7,3.4c-0.7,1.6-2.3,3.2-5.5,3c-0.9-0.1-1.8-0.2-2.7-0.5c-0.7-0.2-1.3-0.4-1.9-0.7c0,0,0,0,0,0
			c-3.9-1.9-6.1-5.6-6-9.6c0-0.6,0-1.3,0-1.9c-1.7,0.4-4.2,2.5-5.2,3.4c-0.3,0.3-0.4,0.6-0.4,1C922.8,83.3,924.1,91.9,937.3,101.4z"
			/>
		<path class="st6" d="M944.5,86.3c0.8-0.9,1.6-2.6,1.7-5.6c0-1.1-0.2-1.1-0.7-1.9c0,0-0.1,0-0.1-0.1c0,0-0.1-0.1-0.1-0.1l-0.2,4.1
			C945.1,82.8,945.2,84.6,944.5,86.3z"/>
		<path class="st6" d="M934.3,88.1c-3.9-1.9-6.1-5.6-6-9.6c0-0.6,0-1.3,0-1.9c-0.5,0.7-0.6,0.8-0.7,1.8
			C927.1,85.8,933.9,88,934.3,88.1z"/>
		<g>
			
				<rect x="852.6" y="148.5" transform="matrix(-1 -4.940283e-11 4.940283e-11 -1 1741.7065 307.842)" class="st12" width="36.6" height="10.9"/>
			
				<rect x="888.6" y="148.5" transform="matrix(-1 -4.935042e-11 4.935042e-11 -1 1975.6018 307.842)" class="st23" width="198.4" height="10.9"/>
			
				<rect x="852.6" y="159.4" transform="matrix(-1 -4.933222e-11 4.933222e-11 -1 1939.5787 323.406)" class="st24" width="234.4" height="4.6"/>
			
				<rect x="1076.1" y="164" transform="matrix(-1 -4.445745e-11 4.445745e-11 -1 2161.646 428.0069)" class="st25" width="9.5" height="100"/>
			
				<rect x="1045.3" y="164" transform="matrix(-1 -4.426605e-11 4.426605e-11 -1 2100.0205 428.0069)" class="st26" width="9.5" height="100"/>
			<rect x="854" y="164" class="st25" width="9.5" height="100"/>
			<rect x="879.4" y="164" class="st26" width="9.5" height="100"/>
		</g>
		<path class="st6" d="M920,106c0,0,7,21.2,19.3,28l0.8,6C940.1,140.1,923.5,131.4,920,106z"/>
		<path class="st6" d="M964.9,89.6c3.1,6.1,2.9,30.7,2.2,58.8l29.1,0V147c-0.7-1.9,1.3-3.5,1.3-3.5c-15.7,0.1-24.5-7.8-24.5-7.8
			s-0.7-26.3-3.2-38.2C969.2,94.5,967.3,91.9,964.9,89.6z"/>
		<path class="st27" d="M958.9,148.5l1-3.1c0.4-1.2,1.3-2.1,2.4-2.5l4.6-1.6c1.2-0.4,2.6-0.2,3.6,0.5l9.2,6.7L958.9,148.5z"/>
		<path class="st27" d="M994.9,148.5l1-3.1c0.4-1.2,1.3-2.1,2.4-2.5l4.6-1.6c1.2-0.4,2.6-0.2,3.6,0.5l9.2,6.7L994.9,148.5z"/>
		<g>
			<path class="st24" d="M1004.9,136.1h67.1c4.1,0,7.4-3.3,7.4-7.4V80.6c0-4.1-3.3-7.4-7.4-7.4h-67.1c-4.1,0-7.4,3.3-7.4,7.4v48.1
				C997.5,132.8,1000.8,136.1,1004.9,136.1z"/>
			<path class="st25" d="M1010.5,136.1h67.1c4.1,0,7.4-3.3,7.4-7.4V80.6c0-4.1-3.3-7.4-7.4-7.4h-67.1c-4.1,0-7.4,3.3-7.4,7.4v48.1
				C1003.1,132.8,1006.4,136.1,1010.5,136.1z"/>
			<polygon class="st26" points="1032.3,108.2 1055.9,108.2 1063.9,148.5 1040.3,148.5 			"/>
			<path class="st24" d="M1036.1,108.2h21c1.5,0,2.8,1.1,3.1,2.5l7.5,37.8h-23.6L1036.1,108.2z"/>
			<path class="st26" d="M1040.8,145.7h-9.7c-0.8,0-1.4,0.6-1.4,1.4v0c0,0.8,0.6,1.4,1.4,1.4h9.7c0.8,0,1.4-0.6,1.4-1.4v0
				C1042.2,146.3,1041.6,145.7,1040.8,145.7z"/>
			
				<rect x="966" y="146.1" transform="matrix(-1 -4.488733e-11 4.488733e-11 -1 1984.705 294.5222)" class="st24" width="52.8" height="2.4"/>
		</g>
	</g>
</g>
<g>
	<g class="st0">
		<rect x="165.8" y="70.6" class="st2" width="9" height="5.3"/>
		<rect x="158.6" y="38.3" class="st2" width="9" height="24.5"/>
		<g>
			<polyline class="st2" points="75.5,148.4 75.5,101.5 98.9,101.5 98.9,124.2 124,124.2 124,148.4 149.5,148.4 149.5,24.3 
				185,24.3 185,86.1 202.7,96.5 202.7,127.5 218.7,127.5 			"/>
			<polyline class="st2" points="218.7,127.5 233.8,127.5 233.8,113.7 265.1,113.7 265.1,177.3 236.2,177.3 236.2,168.4 
				243.5,168.4 234.1,137.1 224.7,168.4 232.1,168.4 232.1,177.3 206.7,177.3 206.7,171 192.1,171 192.1,177.3 112.2,177.3 			"/>
			<polyline class="st2" points="214.4,127.5 214.4,88.1 246.3,88.1 246.3,113.7 			"/>
			<polyline class="st2" points="136.7,148.4 136.7,87.8 109.6,108.7 109.6,124.2 			"/>
			<rect x="158.6" y="115.6" class="st2" width="18.1" height="32.9"/>
			<rect x="158.6" y="97.4" class="st2" width="18.1" height="10.6"/>
			<rect x="112.2" y="162.3" class="st2" width="24.5" height="4.2"/>
			<rect x="142.6" y="162.3" class="st2" width="34.1" height="4.2"/>
			<rect x="158.6" y="82.4" class="st2" width="9" height="5.3"/>
			<rect x="220.2" y="105.3" class="st2" width="9" height="5.3"/>
			<rect x="220.2" y="93.5" class="st2" width="9" height="5.3"/>
			<polygon class="st2" points="219.4,72.7 241.3,77.9 241.3,88.1 219.4,88.1 			"/>
		</g>
		<line class="st2" x1="99.3" y1="199.2" x2="138.6" y2="199.2"/>
		<line class="st2" x1="148.8" y1="189" x2="188.1" y2="189"/>
		<line class="st2" x1="198.3" y1="199.2" x2="259" y2="199.2"/>
	</g>
	<g>
		<path class="st28" d="M88.8,56.9c-6.3,4.6-13.9,3.9-19.2,2.6c-3.7-0.9-6.2-2.2-6.2-2.2s-9.4-3.9-10.4-8.8c-1.1-5-2.4-5.9,0.8-23.3
			c0,0-0.2-0.3-0.5-0.7c0,0,0,0,0,0c-1-1.7-3.4-6-3.6-10.2c-0.1-1.2,0-2.4,0.4-3.5c2-5.7,6.7-8.4,15.8-7.4c0.6,0.1,1.2,0.2,1.9,0.3
			c0,0,2-2,5.4-3c0.3-0.1,0.6-0.2,0.9-0.2c2.3-0.5,5.2-0.6,8.6,0.5c5.7,1.9,9.8,7.3,12,13.4c0.2,0.6,0.4,1.2,0.6,1.7
			c1,3.3,1.4,6.7,1.3,9.7C96.2,35.2,99.6,49.1,88.8,56.9z"/>
		<path class="st29" d="M74.1,51.9c0,0-2.8,5-4.5,7.6c-3.7-0.9-6.2-2.2-6.2-2.2s-9.4-3.9-10.4-8.8c-1.1-5-2.4-5.9,0.8-23.3l3.4-5.9
			c0,0,6.5,3,7.9,4.7c1.4,1.7,8.1,16.6,8.1,16.6L74.1,51.9z"/>
		<g>
			<path class="st30" d="M93.7,215.6c-1-22.4-13.8-42.7-13.8-42.7l-7.3,1.6l2.3,23.9c0-0.1,12.9,39.2,12.2,50.5
				c-0.2,3.3-3.7,6.7-4,6.9c0,0,0,0,0,0c8.9-0.7,13.2-12.4,13.2-12.4S94.7,238,93.7,215.6z"/>
			<path class="st31" d="M100.3,264h-3.2c0,0-1.4-9.6-1.5-9.6c0,0.2-3,6.3-4.2,8.7c-0.3,0.6-0.9,0.9-1.5,0.9H71.4c0,0-0.8-0.8,0-1.4
				c0.8-0.5,11.7-6.9,11.7-6.9c8.9-0.7,13.2-12.4,13.2-12.4c0.1-0.2,0.3-0.4,0.4-0.6c0.7-0.1,2.8,1.1,2.8,2.3
				C99.6,247.6,100.2,260.3,100.3,264z"/>
		</g>
		<path class="st32" d="M85.7,240.2l10.5-5.3c-2.2-3,3.9-35.1-23-76.6c-3.1-4.8-6.7-9.8-10.8-14.9l-9.1,0.8
			C67.9,180.7,81.2,214.9,85.7,240.2z"/>
		<g>
			<path class="st33" d="M81.1,175l-5-2.1l-11.5,5.2c0,0,5.8,50.8-12.9,78.4c0,0,7.7,3.6,14.6-12.7c0.1-0.2,0.2-0.5,0.3-0.7
				C73.9,225.9,82.1,204.1,81.1,175z"/>
			<path class="st31" d="M67.6,264h-3.1c0,0-0.5-9.6-0.6-9.6c0,0.2-3.6,6.3-5,8.7c-0.3,0.6-0.9,0.9-1.6,0.9H38.4c0,0-0.8-0.8,0-1.4
				c0.8-0.5,13.3-6.2,13.3-6.2s7.7,3.6,14.6-12.7c0.1-0.2,0.2-0.5,0.3-0.7c0.8-0.1,2.1,0.8,2.2,2.1C69,247.6,67.5,260.3,67.6,264z"
				/>
		</g>
		<path class="st34" d="M56.5,245.6l12.3-4.6c10-22.7,15.5-60.5,22.2-101.6l-26.1,2.5C64.9,141.9,66.5,200.9,56.5,245.6z"/>
		<path class="st32" d="M62.4,148c0,0,24.3-2.1,28.4-3.8C90.7,147.9,60,152.9,62.4,148z"/>
		<path class="st30" d="M24.6,95.6c0,0-2.5-1.5-3.4-2.7c-1-1.2-2.6-1.8-3.2-1c-0.7,0.8,0.8,2.3,1.8,3c0,0-8.7,0.3-11.6,2.3
			c0,0-2.5,1.9-0.4,4.5s5.9,2.4,5.9,2.4s8.8,0,12.7-2.8L24.6,95.6z"/>
		<path class="st32" d="M52.7,76.7c2.6,0.1,5.3,0.1,7.9,0.3L62,58.4c0,0-10,1.2-9.2,17.2L52.7,76.7z"/>
		<path class="st30" d="M52,82.5l-0.6,4.6c0,0,2.8,15.5-26.8,8.6l-0.3,6.7c1.6-1.5,19.3,6,33-0.4l1-2.5l1.8-15.3
			C57.3,84.1,54.1,83.2,52,82.5z"/>
		<path class="st34" d="M85.7,96.2l-1.9,5.8c9.8,10.1,12.5,31.3,12.6,38.8c0,1.4-0.9,2.7-2.2,3.1c-16.3,5.5-40.4,4.6-41.5,2.7
			c-0.4-0.7,0.2-6.5,1-13.5c0-0.1,0-0.1,0-0.2c0.1-0.8,0.2-1.5,0.3-2.3c0.6-4.6,1.3-9.5,1.9-13.8c0,0,0,0,0,0
			c0.9-6.2,1.6-10.8,1.6-10.8c-0.1-10.8-6.3-18.8-6.3-18.8s-1.4-2.9-1.2-4.5c0.2-2.9,2.2-6.2,2.2-6.2c3.2-5.3,6.4-10.5,8.6-16.3
			c0.4-1.2,1.3-2.1,2.4-2.7c5.6-3,10.4-3.2,13.3-2.9c0.8,0.1,1.5,0.2,2,0.3c0.8,0.2,1.2,0.3,1.2,0.3s0.8,0.1,2.2,0.4
			c0.6,0.1,1.3,0.2,2,0.4c1.1,0.2,2.4,0.4,3.6,0.6c1.1,0.2,2.2,0.4,3.3,0.5c1.2,0.2,2.3,0.4,3.2,0.5c4.7,0.6,4.6,7.5,4.6,7.5
			s0.2,20.3,0,24.7c-0.2,4.4-2.7,7.5-5.6,8c-0.6,0.1-1.2,0-1.9-0.2c-1-0.3-2.1-0.8-2.9-1.3c-0.3-0.2-0.6-0.3-0.8-0.5
			c-0.7-0.5-1.2-0.8-1.2-0.8L85.7,96.2z"/>
		<g>
			<path class="st32" d="M64.8,103.5c-0.1,2.9-0.4,6.6-0.7,10.5c-0.8,9.9-1.6,25.7-0.8,34.1c-0.2,0-0.7,0-0.8,0
				c-0.8-8.4-0.1-24,0.7-34.1c0.3-3.9,0.6-7.6,0.7-10.5c0.5-10-0.9-24.3-1-24.4c-0.1-0.3,0.1-0.5,0.4-0.6c0.3,0,0.5,0.1,0.6,0.4
				C63.8,79,65.3,93.4,64.8,103.5z"/>
		</g>
		<path class="st35" d="M62,67.7c-1.3,6.7,0,9.8,0.9,11.7c0.3,0.6,0.3,1.1,0.3,1.1l0.6-0.8c2.4-6.6,10.7-12,10.7-12H62z"/>
		<path class="st32" d="M94.7,91.2c-0.4,1.2-1.7,5-3.5,6.2c-1.4-0.4-2.8-1.2-3.7-1.8c-2.6-4.1-5.7-14.9-5.6-40.1
			c2.2,0.4,4.8,0.8,7.9,1.3c1,10.2,4,30,4.9,33.8C94.8,90.8,94.8,91,94.7,91.2z"/>
		<path class="st34" d="M84,55.8l-0.6,7.4l-3.9-1.9c0,0-3.8-2.8-4.1-2.8c0-0.2,0.7-2.4,1.3-4c0.8,0.1,1.5,0.2,2,0.3
			c0.8,0.2,1.2,0.3,1.2,0.3s0.8,0.1,2.2,0.4C82.6,55.5,83.2,55.6,84,55.8z"/>
		<path class="st30" d="M71.2,48.5l0.4,8c0,0-6.5,0.2-7.6,4.1c-1.2,4-1.9,7.1-1.9,7.1h12.5l5-6.5c0,0-5.4-3.1,1.8-13.9L71.2,48.5z"
			/>
		<path class="st36" d="M82.3,45.9c-3,2.3-15.8,4.5-17.2,3.9c-1.4-0.6-1.5-2.2-4.4-6.9c-2.9-4.7-4-9-3.5-11.8c0.5-2.9,0-11.8,0-11.8
			L66.6,8c0.3,6.4,4.1,10.4,8.5,14.1c1.4,1.2,2.8,2.3,4.2,3.5c1.5,1.3,3,2.6,4.3,4.1C83.6,29.7,85.3,43.6,82.3,45.9z"/>
		<path class="st37" d="M87.8,26l6.5,4.6c0.6,0.4,0.8,1.2,0.3,1.9L83.4,49.6c-0.4,0.6-1.2,0.8-1.9,0.4l-6.8-4.4
			c-0.6-0.4-0.8-1.3-0.4-1.9l11.5-17.4C86.3,25.7,87.1,25.6,87.8,26z"/>
		<path class="st38" d="M88.7,26.7l6.5,4.6c0.6,0.4,0.8,1.2,0.4,1.9L84.3,50.3c-0.4,0.6-1.2,0.8-1.9,0.4l-6.8-4.4
			c-0.6-0.4-0.8-1.3-0.4-1.9L86.8,27C87.2,26.4,88.1,26.2,88.7,26.7z"/>
		<path class="st30" d="M87.7,48.7c0,0,1.5-2.4,2.7-3.2c1.2-0.9,1.7-2.4,1-3.1c-0.8-0.7-2.2,0.7-2.9,1.6c0,0,0.2-8-1.6-10.8
			c0,0-1.8-2.4-4.2-0.5c-2.4,2-2.4,5.6-2.4,5.6s-0.5,8.1,2,11.9L87.7,48.7z"/>
		<g>
			<circle class="st20" cx="59.2" cy="75.7" r="2.8"/>
			<circle class="st19" cx="59" cy="75.4" r="2.5"/>
			<circle class="st20" cx="58.8" cy="75.2" r="2"/>
			<path class="st20" d="M71.4,54.8c-1.8,0.1-3.7,1-5,2.4c-1.3,1.4-2.1,3.3-2.5,5.3c-0.4,2.1-0.9,4.1-1.7,6.1c-0.4,1-0.8,2-1.2,2.9
				c-0.4,0.9-0.8,1.8-1,2.7l-1.7-0.4c0.3-1.1,0.8-2.1,1.3-3c0.5-0.9,0.9-1.8,1.4-2.7c0.8-1.8,1.5-3.8,2-5.8c0.4-2.1,1.3-4.1,2.8-5.8
				c1.5-1.6,3.5-2.6,5.7-2.8C71.4,54,71.4,54.6,71.4,54.8z"/>
			<g>
				<path class="st20" d="M75.2,69.7l-1,0c0.1-3.6,1.6-4.8,3.2-6.1c1-0.8,2.1-1.7,2.9-3.4c0.5-1.1,0.6-2,0.2-2.8
					c-0.6-1.3-2.3-2-2.8-2.1c0.1-0.4,0.1-0.8,0.2-1c0.6,0.2,2.7,0.9,3.5,2.7c0.5,1.1,0.4,2.3-0.2,3.7c-0.9,1.9-2.1,2.9-3.2,3.8
					C76.5,65.5,75.3,66.5,75.2,69.7z"/>
			</g>
			<g>
				<path class="st19" d="M80.1,71.8l-5.6,10l0,0c-0.3,0.5-0.6,1-1,1.3c-0.4,0.4-0.9,0.7-1.5,0.8c-0.6,0.1-1.2,0.1-1.7,0
					c-0.3-0.1-0.5-0.2-0.8-0.3c-0.2-0.1-0.5-0.3-0.7-0.4l0.4-0.7c0.4,0.2,0.8,0.4,1.3,0.6c0.4,0.1,0.9,0.1,1.3,0
					c0.4-0.1,0.8-0.3,1.1-0.6c0.3-0.3,0.6-0.7,0.8-1.1l0,0l0,0l5.4-10L80.1,71.8z"/>
			</g>
			<g>
				<path class="st19" d="M75.3,69.9l-0.6,11.8l0-0.1c0,0.4,0.2,0.8,0.3,1.1c0.2,0.4,0.4,0.7,0.7,0.9c0.3,0.2,0.6,0.4,1,0.5
					c0.4,0.1,0.8,0.1,1.2,0.1l0.1,0.8c-0.5,0-1,0-1.5-0.1c-0.5-0.1-1-0.3-1.4-0.7c-0.4-0.3-0.7-0.7-0.9-1.2
					c-0.2-0.5-0.4-0.9-0.5-1.4l0,0l0,0l0.4-11.8L75.3,69.9z"/>
			</g>
			<g>
				<circle class="st20" cx="74.7" cy="69.6" r="0.8"/>
			</g>
			<g>
				<circle class="st20" cx="79.7" cy="71.1" r="0.8"/>
			</g>
			<g>
				<path class="st20" d="M80.2,71.2l-1-0.1c0-0.1,0.6-6.7,0-9l1-0.3C80.9,64.4,80.3,70.9,80.2,71.2z"/>
			</g>
			<g>
				
					<ellipse transform="matrix(0.1373 -0.9905 0.9905 0.1373 -16.5408 150.3879)" class="st19" cx="78.1" cy="84.7" rx="1" ry="1.6"/>
			</g>
			<g>
				
					<ellipse transform="matrix(0.1373 -0.9905 0.9905 0.1373 -16.5408 150.3879)" class="st20" cx="78.1" cy="84.7" rx="0.8" ry="1.3"/>
			</g>
			<g>
				<ellipse transform="matrix(0.3792 -0.9253 0.9253 0.3792 -33.8021 115.2562)" class="st19" cx="69" cy="82.8" rx="1" ry="1.6"/>
			</g>
			<g>
				
					<ellipse transform="matrix(0.3792 -0.9253 0.9253 0.3792 -33.8021 115.2562)" class="st20" cx="69" cy="82.8" rx="0.8" ry="1.3"/>
			</g>
		</g>
		<path class="st30" d="M82.3,50.2l5.4-1.5c0,0,3.6,31.9,5,39.1c0.2,0.8,0.1,1.6-0.2,2.4c-0.8,2.2-2.6,6.2-4.7,5.5
			C85,94.6,81.6,87.4,82.3,50.2z"/>
		<path class="st17" d="M63.2,22.5v0.6c0,0.3-0.2,0.6-0.6,0.6c-1,0.1-3.1,0.5-5.3,2.5c0,0,1-4.1,5.2-4.3
			C62.8,21.9,63.2,22.1,63.2,22.5z"/>
		<path class="st17" d="M79.4,25.7c-0.1,0-0.1,0-0.2,0c-3-1.2-5.9-1.4-7.1-1.5c-0.4,0-0.8-0.4-0.8-0.8v-0.6c0-0.4,0.4-0.8,0.8-0.8
			c1,0,2.2,0.1,3.1,0.3C76.5,23.3,78,24.5,79.4,25.7z"/>
		<ellipse class="st20" cx="61.5" cy="29.6" rx="1.4" ry="2.1"/>
		<ellipse class="st20" cx="73.4" cy="29.6" rx="1.4" ry="2.1"/>
		<path class="st30" d="M66.1,32.1l0.5,4.3c0,0.3-0.2,0.6-0.5,0.6c-0.9-0.1-3.1-0.8-2.3-2l2.1-2.9C66,31.9,66.1,32,66.1,32.1z"/>
		<path class="st39" d="M65.9,3.3c-0.8,1.2-1.8,2.3-2.9,3.5c-4.3,4.5-9.2,6.6-13.3,7.4c-0.1-1.2,0-2.4,0.4-3.5
			C52.1,5.1,56.9,2.3,65.9,3.3z"/>
		<g>
			<path class="st40" d="M62.8,39.3c1.1-0.4,3.5-0.9,8.5,0.2c0.6,0.1,0.8,0.8,0.5,1.3c-0.6,0.9-1.6,2.4-3.4,3.6
				c-0.9,0.6-2,0.6-2.8,0c-1-0.6-2.2-1.8-3.2-3.9C62.2,40,62.4,39.4,62.8,39.3z"/>
			<path class="st37" d="M71,40.3c0,0-0.2,0.4-0.7,1l0,0c-0.1,0.1-0.2,0.2-0.4,0.4c-0.6,0.5-1.5,1.1-2.7,1.6c0,0-1.7-0.1-3.2-2v0
				c-0.2-0.3-0.4-0.6-0.6-0.9C63.4,40.3,64.9,39.1,71,40.3z"/>
			<path class="st41" d="M70.3,41.2L70.3,41.2c-0.1,0.1-0.2,0.2-0.4,0.4c-0.6,0.5-1.5,1.1-2.7,1.6c0,0-1.7-0.1-3.2-2v0
				C65.2,40.9,67.6,40.5,70.3,41.2z"/>
		</g>
		<path class="st32" d="M71.2,116.7c0,0,9.4,0.4,14.2-1.5c0,0.3,4.5,14,2.6,14.8c-2,0.8-10.7,3.9-13.1,2.7
			C73.3,132.2,71.5,119.6,71.2,116.7z"/>
		<path class="st32" d="M58.3,116.7c-0.4,2.5-2.2,13-3.7,13.6c-0.2,0.1-0.3,0.1-0.6,0.1c0.6-4.6,1.3-9.5,1.9-13.8
			C57.4,116.8,58.3,116.7,58.3,116.7z"/>
	</g>
</g>
<line class="st42" x1="606.9" y1="220" x2="723.9" y2="220"/>
<line class="st42" x1="379.9" y1="220" x2="496.2" y2="220"/>
<g class="st0">
	<g>
		<path class="st2" d="M544.1,237.3H538c-5.2,0-9.4-4.2-9.4-9.4v-27.8c0-5.2,4.2-9.4,9.4-9.4h27.8c5.2,0,9.4,4.2,9.4,9.4v27.8
			c0,5.2-4.2,9.4-9.4,9.4h-6.3"/>
	</g>
	<g>
		<g>
			<path class="st2" d="M551.9,225.1L551.9,225.1c-2.1,0-3.3-0.9-4.1-2.3l-6.9-11.5l0,0c-1.5-2.6-0.2-6,2.7-6.8
				c0.1,0,0.2-0.1,0.3-0.1"/>
			<circle class="st2" cx="545.9" cy="204.1" r="1.9"/>
			<path class="st2" d="M551.9,225.1L551.9,225.1c2.1,0,3.3-0.9,4.1-2.3l6.9-11.5h0c1.5-2.6,0.2-6-2.7-6.8c-0.1,0-0.2-0.1-0.3-0.1"
				/>
			<circle class="st2" cx="557.9" cy="204.1" r="1.9"/>
		</g>
		<path class="st2" d="M544.1,237.3l-10.7-17.1c-8.1-12.7,1.5-29,17.7-29.5c0.3,0,0.5,0,0.8,0l0,0c0.3,0,0.5,0,0.8,0
			c16.2,0.5,25.8,16.7,17.7,29.5l-18.5,29.2l-3.8-6"/>
		<line class="st2" x1="551.9" y1="225.1" x2="544.1" y2="237.3"/>
	</g>
</g>
</svg>
