<?xml version="1.0" encoding="utf-8"?>
<!-- Generator: Adobe Illustrator 21.1.0, SVG Export Plug-In . SVG Version: 6.00 Build 0)  -->
<svg version="1.1" id="Layer_1" xmlns="http://www.w3.org/2000/svg" xmlns:xlink="http://www.w3.org/1999/xlink" x="0px" y="0px"
	 viewBox="0 0 442 458" style="enable-background:new 0 0 442 458;" xml:space="preserve">
<style type="text/css">
	.st0{opacity:0.3;}
	.st1{fill:none;stroke:#39BBD7;stroke-width:2;stroke-linecap:round;stroke-linejoin:round;stroke-miterlimit:10;}
	.st2{fill:#AB6728;}
	.st3{fill:#8E5222;}
	.st4{fill:#F09A6D;}
	.st5{fill:#433F3A;}
	.st6{fill:#F9A982;}
	.st7{fill:#98D5C8;}
	.st8{fill:#BEE4E4;}
	.st9{fill:#AFDDD2;}
	.st10{fill:#EEF5FC;}
	.st11{fill:#F9A983;}
	.st12{fill:#EDF5FC;}
	.st13{fill:#DFE5ED;}
	.st14{fill:#764627;}
	.st15{fill:#222D21;}
	.st16{fill:#C77736;}
	.st17{fill:#F06D70;}
	.st18{fill:#A94C54;}
</style>
<g>
	<g class="st0">
		<rect x="273.8" y="138.6" class="st1" width="13.3" height="7.8"/>
		<rect x="263.3" y="91.1" class="st1" width="13.3" height="36.1"/>
		<g>
			<polyline class="st1" points="141,253.2 141,184.1 175.4,184.1 175.4,217.5 212.3,217.5 212.3,253.2 249.8,253.2 249.8,70.5 
				302,70.5 302,161.5 328.1,176.8 328.1,222.5 351.7,222.5 			"/>
			<polyline class="st1" points="351.7,222.5 373.9,222.5 373.9,202.1 420,202.1 420,295.6 377.5,295.6 377.5,282.6 388.2,282.6 
				374.4,236.5 360.6,282.6 371.3,282.6 371.3,295.6 334.1,295.6 334.1,286.4 312.6,286.4 312.6,295.6 195,295.6 			"/>
			<polyline class="st1" points="345.3,222.5 345.3,164.3 392.4,164.3 392.4,202.1 			"/>
			<polyline class="st1" points="231,253.2 231,164 191.1,194.7 191.1,217.5 			"/>
			<rect x="263.3" y="204.8" class="st1" width="26.6" height="48.3"/>
			<rect x="263.3" y="178" class="st1" width="26.6" height="15.6"/>
			<rect x="195" y="273.6" class="st1" width="36" height="6.2"/>
			<rect x="239.7" y="273.6" class="st1" width="50.2" height="6.2"/>
			<rect x="263.3" y="156" class="st1" width="13.3" height="7.8"/>
			<rect x="353.9" y="189.8" class="st1" width="13.3" height="7.8"/>
			<rect x="353.9" y="172.4" class="st1" width="13.3" height="7.8"/>
			<polygon class="st1" points="352.7,141.7 384.9,149.4 384.9,164.3 352.7,164.3 			"/>
		</g>
		<line class="st1" x1="175.9" y1="327.9" x2="233.8" y2="327.9"/>
		<line class="st1" x1="248.8" y1="312.9" x2="306.6" y2="312.9"/>
		<line class="st1" x1="321.6" y1="327.9" x2="411" y2="327.9"/>
	</g>
	<g>
		<path class="st2" d="M160.5,118.4c-9.3,6.7-20.5,5.8-28.2,3.9c-5.5-1.3-9.2-3.2-9.2-3.2s-13.8-5.7-15.4-13
			c-1.6-7.3-3.5-8.7,1.2-34.3c0,0-0.3-0.4-0.7-1.1c0,0,0,0,0,0c-1.5-2.5-5-8.8-5.4-15c-0.1-1.8,0.1-3.6,0.6-5.2
			c2.9-8.3,9.9-12.4,23.2-10.9c0.9,0.1,1.8,0.2,2.8,0.4c0,0,2.9-2.9,8-4.4c0.4-0.1,0.9-0.2,1.4-0.4c3.4-0.8,7.7-0.9,12.6,0.7
			c8.4,2.7,14.4,10.8,17.6,19.8c0.3,0.8,0.6,1.7,0.8,2.5c1.5,4.8,2.1,9.8,1.9,14.3C171.4,86.6,176.4,107,160.5,118.4z"/>
		<path class="st3" d="M138.9,111.1c0,0-4.1,7.4-6.6,11.2c-5.5-1.3-9.2-3.2-9.2-3.2s-13.8-5.7-15.4-13c-1.6-7.3-3.5-8.7,1.2-34.3
			l5.1-8.6c0,0,9.6,4.5,11.6,7c2,2.5,11.9,24.4,11.9,24.4L138.9,111.1z"/>
		<g>
			<path class="st4" d="M167.8,352c-1.5-33-20.3-62.8-20.3-62.8l-10.8,2.3l3.5,35.2c0-0.1,19,57.7,17.9,74.3
				c-0.3,4.8-5.4,9.8-5.9,10.2c0,0,0,0,0,0c13.1-1.1,19.4-18.3,19.4-18.3S169.2,385,167.8,352z"/>
			<path class="st5" d="M177.4,423.3h-4.6c0,0-2.1-14.2-2.2-14.2c0,0.3-4.4,9.3-6.2,12.8c-0.5,0.8-1.3,1.3-2.2,1.3H135
				c0,0-1.1-1.2,0-2c1.1-0.8,17.2-10.1,17.2-10.1c13.1-1.1,19.4-18.3,19.4-18.3c0.2-0.3,0.4-0.6,0.5-0.9c1.1-0.1,4.1,1.6,4.2,3.4
				C176.5,399.1,177.4,417.8,177.4,423.3z"/>
		</g>
		<g>
			<path class="st6" d="M149.3,292.3l-7.4-3.1l-16.9,7.6c0,0,8.5,74.7-19,115.4c0,0,11.3,5.3,21.5-18.7c0.1-0.4,0.3-0.7,0.5-1.1
				C138.6,367.1,150.7,335.1,149.3,292.3z"/>
			<path class="st5" d="M129.3,423.3h-4.5c0,0-0.8-14.2-0.9-14.2c0,0.3-5.3,9.3-7.3,12.8c-0.5,0.8-1.4,1.4-2.4,1.4H86.4
				c0,0-1.2-1.2,0-2c1.2-0.8,19.5-9.1,19.5-9.1s11.3,5.3,21.5-18.7c0.1-0.4,0.3-0.7,0.5-1.1c1.2-0.1,3.1,1.2,3.2,3.1
				C131.3,399.1,129.3,417.8,129.3,423.3z"/>
		</g>
		<path class="st5" d="M110,252.6l0.6,40.5c0,0,6.3,6.7,23.8,5.2s31.6-5.7,31.6-5.7l1.2-51.6h-52.1L110,252.6z"/>
		<path class="st4" d="M66,175.5c0,0-3.7-2.2-5.1-4c-1.4-1.8-3.8-2.6-4.8-1.4c-1,1.2,1.2,3.4,2.6,4.4c0,0-12.8,0.5-17,3.4
			c0,0-3.7,2.9-0.5,6.6s8.7,3.5,8.7,3.5s13,0.1,18.7-4.1L66,175.5z"/>
		<path class="st7" d="M121.1,120.7c0,0-14.7,1.7-13.5,25.3l-2.2,16.9c0,0-1,35.6-38.3,9.7l-5.7,15.1c0,0,33.6,26.1,53.3,2.2
			l1.5-2.4L121.1,120.7z"/>
		<path class="st8" d="M155.9,176.3l-2.8,8.5c16.6,17.2,20.8,67,20.8,67s-24.8,17-35.3,11.1c-9.3-5.2-14.1-13.5-15.8-15.4
			c-0.1-0.1-0.1-0.2-0.2-0.2c-0.1-0.1-0.2-0.2-0.3-0.2c-0.1,0-0.3,0.1-0.5,0.4c-0.2,0.2-0.4,0.4-0.5,0.7c-1.1,1.7-2.3,4.8-2.3,4.8
			c-5.5,12.6-14.9,8.1-14.9,8.1l10.7-70.5c-0.2-15.8-9.2-27.7-9.2-27.7s-2-4.2-1.8-6.6c0.3-4.3,3.3-9.2,3.3-9.2
			c4.8-7.8,9.5-15.5,12.7-24c0.6-1.7,1.9-3.1,3.5-4c8.3-4.4,15.2-4.8,19.6-4.3c1.2,0.1,2.2,0.3,2.9,0.5c1.1,0.3,1.7,0.5,1.7,0.5
			s1.2,0.2,3.2,0.6c0.9,0.1,1.9,0.3,2.9,0.5c1.6,0.3,3.5,0.6,5.4,0.9c1.6,0.3,3.3,0.5,4.8,0.8c1.8,0.3,3.4,0.5,4.7,0.7
			c6.9,0.8,6.8,11,6.8,11s0.2,29.9,0,36.4c-0.2,6.5-4,11.1-8.2,11.7c-0.9,0.1-1.8,0-2.8-0.2c-1.5-0.4-3.1-1.2-4.4-1.9
			c-0.4-0.2-0.8-0.5-1.2-0.7c-1.1-0.7-1.7-1.2-1.7-1.2L155.9,176.3z"/>
		<g>
			<path class="st9" d="M125.2,187.1c-0.2,4.2-0.6,9.7-1.1,15.4c-1.2,14.6-2.6,32.7-1.5,44.9c-0.1-0.1-0.2-0.2-0.3-0.2
				c-0.1,0-0.3,0.1-0.5,0.4c-0.2,0.2-0.4,0.4-0.5,0.7c0,0,0-0.1,0-0.1c-1.2-12.4,0.3-30.9,1.5-45.8c0.5-5.8,0.9-11.2,1.1-15.4
				c0.7-14.8-2-28.1-2-28.3c-0.1-0.4,0.2-0.8,0.6-0.9c0.4-0.1,0.8,0.2,0.9,0.6C123.2,158.6,126,172.1,125.2,187.1z"/>
		</g>
		<path class="st10" d="M121.1,134.4c-2.6,14.7-0.7,22.1,0.6,24.9c0.4,0.9,0.5,1.6,0.5,1.6l0.8-1.2c3.6-9.8,16.5-25.3,16.5-25.3
			H121.1z"/>
		<path class="st9" d="M169.3,168.9c-0.6,1.7-2.5,7.3-5.1,9.1c-2-0.5-4.1-1.7-5.5-2.7c-3.9-6-8.4-21.9-8.2-59
			c3.3,0.6,8.6,1.5,13.2,2.2c1.4,15,4.3,43.9,5.7,49.5C169.4,168.3,169.4,168.6,169.3,168.9z"/>
		<path class="st8" d="M153.4,116.8l-0.9,10.8l-5.7-2.8c0,0-5.6-4.2-6-4.2c0-0.3,1.1-3.5,1.9-5.9c1.2,0.1,2.2,0.3,2.9,0.5
			c1.1,0.3,1.7,0.5,1.7,0.5s1.2,0.2,3.2,0.6C151.4,116.5,152.4,116.6,153.4,116.8z"/>
		<path class="st4" d="M134.6,106.1l0.5,11.8c0,0-9.5,0.2-11.2,6.1c-1.7,5.9-2.8,10.4-2.8,10.4h18.4l7.4-9.5c0,0-8-4.6,2.6-20.4
			L134.6,106.1z"/>
		<path class="st11" d="M151,102.3c-4.5,3.4-23.3,6.6-25.3,5.7c-2-0.8-2.2-3.3-6.5-10.1c-4.3-6.9-5.9-13.2-5.1-17.4
			c0.7-4.2,0-17.3,0-17.3l13.8-16.6c0.4,9.4,6,15.3,12.4,20.8c2,1.7,4.2,3.4,6.2,5.2c2.2,1.9,4.4,3.9,6.3,6
			C152.9,78.6,155.5,98.9,151,102.3z"/>
		<path class="st12" d="M159,73.1l9.6,6.8c0.9,0.6,1.1,1.8,0.5,2.7l-16.6,25.2c-0.6,0.9-1.8,1.2-2.7,0.6l-10-6.5
			c-0.9-0.6-1.2-1.9-0.6-2.8l16.9-25.5C156.8,72.6,158.1,72.4,159,73.1z"/>
		<path class="st13" d="M160.4,74l9.6,6.8c0.9,0.6,1.1,1.8,0.5,2.7l-16.6,25.2c-0.6,0.9-1.8,1.2-2.8,0.6l-10-6.5
			c-0.9-0.6-1.2-1.9-0.6-2.8l17-25.5C158.2,73.6,159.4,73.4,160.4,74z"/>
		<path class="st4" d="M158.9,106.4c0,0,2.2-3.5,3.9-4.8c1.8-1.3,2.6-3.6,1.4-4.5c-1.1-1-3.2,1.1-4.2,2.4c0,0,0.3-11.7-2.3-15.9
			c0,0-2.6-3.6-6.2-0.7c-3.6,2.9-3.5,8.2-3.5,8.2s-0.8,11.9,3,17.5L158.9,106.4z"/>
		<path class="st12" d="M147.8,105.7l12.2,0.7c0,0,4.3,47,6.3,57.6c0.2,1.2,0.1,2.4-0.3,3.5c-1.2,3.2-3.8,9.2-6.9,8
			C154.9,174,146.7,160.5,147.8,105.7z"/>
		<path class="st14" d="M122.8,67.9v0.8c0,0.5-0.4,0.9-0.8,0.9c-1.4,0.1-4.5,0.7-7.8,3.7c0,0,1.5-6,7.6-6.3
			C122.4,66.9,122.8,67.4,122.8,67.9z"/>
		<path class="st14" d="M146.7,72.5c-0.1,0-0.2,0-0.3-0.1c-4.4-1.8-8.6-2.1-10.4-2.2c-0.6,0-1.2-0.6-1.2-1.2v-0.9
			c0-0.7,0.5-1.2,1.2-1.2c1.5,0,3.3,0.2,4.5,0.4C142.5,69.1,144.6,70.8,146.7,72.5z"/>
		<ellipse class="st15" cx="120.3" cy="78.4" rx="2.1" ry="3.2"/>
		<ellipse class="st15" cx="137.8" cy="78.4" rx="2.1" ry="3.2"/>
		<path class="st4" d="M127.2,82l0.7,6.4c0.1,0.5-0.3,0.9-0.8,0.9c-1.4-0.1-4.6-1.2-3.4-3l3.1-4.3C127,81.8,127.2,81.8,127.2,82z"/>
		<path class="st16" d="M126.8,39.7c-1.2,1.7-2.6,3.4-4.2,5.2c-6.4,6.6-13.5,9.7-19.6,10.9c-0.1-1.8,0.1-3.6,0.6-5.2
			C106.5,42.2,113.5,38.2,126.8,39.7z"/>
		<g>
			<path class="st17" d="M122.3,92.5c1.6-0.7,5.2-1.4,12.5,0.3c0.8,0.2,1.2,1.1,0.8,1.9c-0.8,1.4-2.4,3.5-5,5.2
				c-1.3,0.8-2.9,0.8-4.2,0c-1.4-0.9-3.2-2.6-4.7-5.7C121.4,93.6,121.7,92.8,122.3,92.5z"/>
			<path class="st12" d="M134.3,94c0,0-0.3,0.6-1.1,1.4l0,0c-0.2,0.2-0.3,0.4-0.5,0.5c-0.9,0.8-2.1,1.7-3.9,2.3c0,0-2.6-0.2-4.7-3v0
				c-0.3-0.4-0.6-0.8-0.9-1.3C123.2,94,125.4,92.3,134.3,94z"/>
			<path class="st18" d="M133.3,95.5L133.3,95.5c-0.2,0.2-0.4,0.4-0.6,0.5c-0.9,0.8-2.1,1.7-3.9,2.3c0,0-2.6-0.2-4.7-3v0
				C125.9,95,129.3,94.4,133.3,95.5z"/>
		</g>
		<path class="st7" d="M136,207.7c0,0,12.7-0.6,19-3.9C154.9,204.9,148.3,213.6,136,207.7z"/>
	</g>
</g>
</svg>
