<?xml version="1.0" encoding="utf-8"?>
<!-- Generator: Adobe Illustrator 21.1.0, SVG Export Plug-In . SVG Version: 6.00 Build 0)  -->
<svg version="1.1" id="Layer_1" xmlns="http://www.w3.org/2000/svg" xmlns:xlink="http://www.w3.org/1999/xlink" x="0px" y="0px"
	 viewBox="0 0 358 427" style="enable-background:new 0 0 358 427;" xml:space="preserve">
<style type="text/css">
	.st0{opacity:0.3;}
	.st1{fill:none;stroke:#37BBD7;stroke-width:2;stroke-linecap:square;stroke-linejoin:round;stroke-miterlimit:10;}
	.st2{fill:none;stroke:#37BBD7;stroke-width:2;stroke-linecap:round;stroke-linejoin:round;stroke-miterlimit:10;}
	.st3{fill:#7B676A;}
	.st4{fill:#AEDCD1;}
	.st5{fill:#4884C4;}
	.st6{fill:#4477A5;}
	.st7{fill:#98D4C7;}
	.st8{fill:#BDE3E3;}
	.st9{fill:#694241;}
	.st10{fill:#583839;}
	.st11{fill:#7F5251;}
	.st12{fill:#B76B2A;}
	.st13{fill:#2D382A;}
	.st14{fill:#CD7C3D;}
	.st15{fill:#F6F8FC;}
	.st16{fill:#D37E66;}
	.st17{fill:#E68C6D;}
	.st18{fill:#764627;}
	.st19{fill:#814F2F;}
	.st20{fill:#FFFFFF;}
	.st21{fill:#222D21;}
	.st22{fill:#41679A;}
	.st23{fill:#375780;}
	.st24{fill:#DEE4EC;}
	.st25{fill:#A46027;}
	.st26{fill:#DEDFE3;}
	.st27{fill:#BBBBBB;}
	.st28{fill:#ABAAAA;}
	.st29{fill:#E58B6F;}
</style>
<g>
	<g class="st0">
		<g>
			<g>
				<polyline class="st1" points="278.2,187.4 278.2,9.8 136.9,9.8 136.9,187.4 				"/>
			</g>
		</g>
		<g>
			<g>
				<polyline class="st1" points="286.8,62.1 286.8,1.5 244.6,1.5 				"/>
			</g>
		</g>
		<g>
			<g>
				<polygon class="st2" points="312.9,198.5 312.9,190.3 289.4,190.3 202.6,190.3 125.1,190.3 125.1,198.5 				"/>
			</g>
		</g>
		<g>
			<g>
				<rect x="10.2" y="58.7" class="st2" width="53.4" height="70.1"/>
			</g>
		</g>
		<g>
			<g>
				<rect x="3.6" y="51.9" class="st2" width="66.8" height="83.8"/>
			</g>
		</g>
		<g>
			<line class="st2" x1="233.2" y1="48.7" x2="260.1" y2="75.6"/>
			<line class="st2" x1="169.9" y1="79.8" x2="192.6" y2="102.5"/>
			<line class="st2" x1="167.8" y1="41" x2="239.9" y2="113.1"/>
		</g>
		<polygon class="st2" points="56,100.2 47.2,90.5 42.2,95.9 27.4,79.6 17,91 17,104.7 56,104.7 		"/>
	</g>
	<g>
		<g>
			<path class="st3" d="M82.6,326.5h120.5c1.1,0,1.9,0.9,1.9,1.9v2c0,1.1-0.9,1.9-1.9,1.9H82.6c-1.1,0-1.9-0.9-1.9-1.9v-2
				C80.7,327.3,81.5,326.5,82.6,326.5z"/>
			
				<rect x="121" y="330.4" transform="matrix(-1 -4.476298e-11 4.476298e-11 -1 258.8419 725.0587)" class="st3" width="16.8" height="64.2"/>
			<path class="st3" d="M184.5,400.5c-37.7-10-75.5-10-113.2,0v7.4c37.7-7.9,75.5-7.9,113.2,0V400.5z"/>
			
				<rect x="144.9" y="398.4" transform="matrix(-1 -4.459067e-11 4.459067e-11 -1 303.6851 806.2867)" class="st3" width="13.8" height="9.5"/>
			<circle class="st3" cx="151.8" cy="409.3" r="5.8"/>
			
				<rect x="104.9" y="398.4" transform="matrix(-1 -4.459067e-11 4.459067e-11 -1 223.6654 806.2867)" class="st3" width="13.8" height="9.5"/>
			<circle class="st3" cx="111.8" cy="409.3" r="5.8"/>
			<circle class="st3" cx="79.4" cy="409.3" r="5.8"/>
		</g>
		<path class="st4" d="M85.9,327.5H204c10.3,0,18.7-8.4,18.7-18.7L102.9,146.5H66.3c-4.9,0-8.9,4-8.9,8.9L72,314.8
			C72.7,322,78.7,327.5,85.9,327.5z"/>
		<path class="st5" d="M115.8,156.6l18,90.2l26.9,1.2c0,0-1.2-81.7-9.9-94.3l-8.5,0.7L115.8,156.6z"/>
		<path class="st6" d="M149.3,239.8l2,8.2h9.4c0,0-0.7-79.1-11.9-98.4l-6.5,4.7C147.8,161.9,151,197.4,149.3,239.8z"/>
		<path class="st7" d="M100,311.7c0,0,40.8,4.4,49.2-7.4L91.6,154H76.7c-4.9,0-8.9,4-8.9,8.9l15,135.3
			C83.5,303,92.1,310.8,100,311.7z"/>
		<path class="st8" d="M210.2,295.1h-58.3c-5.9,0-10.7,4.8-10.7,10.7v11c0,5.9,4.8,10.7,10.7,10.7h58.3c5.9,0,10.7-4.8,10.7-10.7
			v-11C220.9,299.9,216.1,295.1,210.2,295.1z"/>
		<path class="st9" d="M183.2,271.8l3.7,25.7l1.2,8.6l22.5-0.5c7.3,36.4,16.3,61.9,23.1,96.1H260c-5-29-14.9-91.1-19.5-110.9
			c-4.9-21-18.7-18.9-18.7-18.9H183.2z"/>
		<path class="st10" d="M186.9,297.4l1.2,8.6l22.5-0.5c7.3,36.4,16.3,61.9,23.1,96.1h8.7c-9.2-37.2-20.8-79.6-24.3-94.5
			c-2.4-10.1-7.6-9.7-7.6-9.7H186.9z"/>
		<path class="st11" d="M162.8,401.6h26c6.6-32.2,11-83.7,12.8-105.1c1.7-21.5-15.6-24.7-15.6-24.7h-35.4l-1,25l-0.3,8.7l21.4-0.5
			C172.3,336.3,169.1,368.6,162.8,401.6z"/>
		<path class="st10" d="M162.8,401.6h7c4.6-34,8.3-78.4,10-95.2c1.1-10.3-7.6-9.7-7.6-9.7h-22.6l-0.3,8.7l21.4-0.5
			C172.3,336.3,169.1,368.6,162.8,401.6z"/>
		<g>
			<path class="st12" d="M198.1,401.6H165l-1.7,10.9H209v0C209,406.5,204.1,401.6,198.1,401.6z"/>
			
				<rect x="163.3" y="412.5" transform="matrix(-1 -4.498769e-11 4.498769e-11 -1 372.2926 827.7686)" class="st13" width="45.6" height="2.8"/>
			<path class="st14" d="M191,407.7h9.9c0.6,0,1.1-0.5,1.1-1.1v-1.2c0-0.6-0.5-1.1-1.1-1.1H191c-0.6,0-1.1,0.5-1.1,1.1v1.2
				C189.9,407.2,190.4,407.7,191,407.7z"/>
		</g>
		<g>
			<path class="st12" d="M271.7,401.6h-33.1l-1.7,10.9h45.6v0C282.5,406.5,277.7,401.6,271.7,401.6z"/>
			
				<rect x="236.9" y="412.5" transform="matrix(-1 -4.498769e-11 4.498769e-11 -1 519.443 827.7686)" class="st13" width="45.6" height="2.8"/>
			<path class="st14" d="M264.6,407.7h9.9c0.6,0,1.1-0.5,1.1-1.1v-1.2c0-0.6-0.5-1.1-1.1-1.1h-9.9c-0.6,0-1.1,0.5-1.1,1.1v1.2
				C263.5,407.2,264,407.7,264.6,407.7z"/>
		</g>
		<path class="st15" d="M157.4,242.5h58.2v-2.1c-1.1-2.9,1.9-5.2,1.9-5.2c-23.4,0.2-36.6-11.7-36.6-11.7s-1.1-39.3-4.8-57.2
			c-0.9-4.5-3.7-8.4-7.4-11.7c-10.8-9.8-29.1-14.4-29.1-14.4C152.7,159.4,157.6,198.3,157.4,242.5z"/>
		<g>
			<path class="st16" d="M112.8,111.3l2-2.9l3.8-5.5l1.2-1.7l1.1,1.9l18.9,30.8l-0.1,3.4l0,1l-0.3,6.2c0,0,0.6,10.3-9.3,9.6
				c-9.9-0.7-16.2-8.1-15.8-16.2c0-0.9,0.1-1.9,0.1-2.8c0.1-7-0.5-13.4-0.5-13.4s-0.8-3.6-2.1-6.1c-0.3-0.5-0.6-1-0.9-1.4
				L112.8,111.3z"/>
			<path class="st17" d="M118.5,99.5c0,1.1,0,2.3,0.1,3.4c0.1,1.6,0.2,3.2,0.4,4.7c1.4,10.9,5.6,20,11.2,25.2
				c2.3,2.2,4.9,3.6,7.7,4.3c0.6,0.1,1.2,0.2,1.8,0.3c0.4,0.1,0.9,0.1,1.3,0.1c16.3,0,21.4-13.5,22.3-31.3c0.1-2.1,0.2-4.4,0.2-6.6
				c0-1.7,0-3.4-0.1-5.1c0-0.1,0-0.2,0-0.3c-0.2-7-1-13.4-2.9-18.7c-0.9,0-1.8,0-2.6,0c-3.9,0-7.8,0-11.6,0c-0.6,0-1.1,0-1.7,0
				c-6.4,0.1-12.8,0-19.2,0h-2.9c-0.9,0-1.9,0-2.8-0.1c-0.5,0-0.9,0-1.4,0C117.2,81.9,118.5,90.3,118.5,99.5z"/>
			
				<ellipse transform="matrix(0.9907 -0.1364 0.1364 0.9907 -12.1154 22.8504)" class="st17" cx="160.7" cy="99.8" rx="5.2" ry="7"/>
			<path class="st18" d="M102.5,97.3c1.3,2.7,1.3,5.5,1.3,5.5l10.3,9.8c8.9-6.1,7.9-15.8,6.1-22c-1.8-6.2-1-12.1-1-12.1
				c6.4-2.1,17.9,0.6,28.9,1.8c11.1,1.2,12.2-1.8,12.2-1.8l2.5,15.2l2,2.1c0.5-9.6-0.3-18.3-1.3-22.4c-0.2-0.7-0.3-2.1-0.7-3.8
				c-1.2-6.8-4.9-19.1-22.1-19.1c-21.6,0-23.7,4.7-27.2,7.1c-1.4,1-2.2,2.6-2.6,4.1c-0.6,2.3-0.4,4.4-0.4,4.4s-3.8-0.6-8.5,6
				C97.3,78.8,101.2,94.6,102.5,97.3z"/>
			<path class="st19" d="M110.9,61.8c7.3,4,19,9.1,32.6,10.2c10.3,0.8,16.1-0.5,19.3-2.3c-1.2-6.8-4.9-19.1-22.1-19.1
				c-21.6,0-23.7,4.7-27.2,7.1C112,58.6,111.3,60.2,110.9,61.8z"/>
			<ellipse transform="matrix(0.89 -0.4559 0.4559 0.89 -37.3005 61.647)" class="st16" cx="109.1" cy="108.1" rx="5.2" ry="8"/>
			<path class="st20" d="M153.8,116.6l-17.3,1c0,0,0.8,7.7,8.3,7.8C152.3,125.6,153.8,116.6,153.8,116.6z"/>
			<ellipse class="st21" cx="155.4" cy="98.7" rx="3" ry="3.8"/>
			<ellipse class="st21" cx="136.5" cy="100.2" rx="3" ry="3.8"/>
			<path class="st18" d="M152.1,91.4c-0.3,0.1-0.3-2.1-0.2-3.2c0-0.3,0.3-0.6,0.6-0.7c1.9-0.3,8-0.9,10.6,2.1l-0.3,4.2
				C162.8,93.8,159.8,89.6,152.1,91.4z"/>
			<path class="st18" d="M140.4,88.4l0.2,3.2c0,0.4-0.3,0.6-0.6,0.6c-2-0.1-8-0.1-13.7,4.3c-0.2,0.2-0.6,0.2-0.8,0l-1.2-1.2
				c-0.2-0.2-0.2-0.6,0-0.8c1.5-1.6,7.3-7.1,15.6-6.6C140.2,87.8,140.4,88.1,140.4,88.4z"/>
			<path class="st16" d="M146.8,100.9l1.1,8.4c0.1,0.6,0.7,1,1.3,0.9c1.9-0.5,5.9-2.9,3.8-4.9l-5.7-4.6
				C147,100.5,146.7,100.7,146.8,100.9z"/>
		</g>
		<path class="st22" d="M125.9,169.7L125.9,169.7l6.6,6.2l1.4,55l4,3.6l6.9,6.2l4.2-8.7c-0.4-10-9.8-58.5-9.8-58.5l2.5-6.2l-7.8-11
			h-3.8L125.9,169.7z"/>
		<polygon class="st23" points="126,169.7 132.5,175.9 133.9,230.8 137.9,234.5 134.6,174.6 127.3,167.9 		"/>
		<path class="st6" d="M146,154.5c0,0,0.6,6.1-4.6,16.7l-7.7-13.4L146,154.5z"/>
		<path class="st6" d="M113.9,158.3c0,0,1.5,6.4,13.4,16.8l8-17.6L113.9,158.3z"/>
		<path class="st15" d="M75.7,175.2c2.9,29.8,10.7,106.4,10.7,106.4s0.2,25.3,24.5,25.2l44.1,0c0,0-1.2-3.8-1.8-9.4
			c-1.2-10.6-0.3-27.6,15.3-36h-32.6c-0.8-6.3-1.5-12.6-2.3-18.9h26.8c0,0,0-0.9,0.6-1.8c0,0-18-5.2-29-10.7
			c-2.7-20-5.7-39.5-9.7-57.7c-1-4.8-2.1-9.5-3.3-14.1c-1.6-6.2-3.3-12.1-5.1-17.9c0,0-1.8,0.2-4.6,0.9
			C98.5,143.5,73.4,151.7,75.7,175.2z"/>
		<path class="st24" d="M75.7,175.2c2.9,29.8,10.7,106.4,10.7,106.4s0.2,25.3,24.5,25.2l44.1,0c0,0-1.2-3.8-1.8-9.4
			c-10.9,0.1-32.4,0.1-44.6,0C91.6,297.2,92,277.3,92,277.3l-5.2-58.9c8.5,16.8,26,26.2,26,26.2h9.8c-25.1-14.2-29.1-28.4-31.4-32.9
			c-2.3-4.6-15.2-32.7-8.4-48.8c4.9-11.7,15.8-15.1,20.8-16.6c0.2,0,1.7,13.8,18.5,26c-1-4.8-2.1-9.5-3.3-14.1
			c-4.4-6.3-9.7-12.9-9.7-12.9l0-4.1C98.5,143.5,73.4,151.7,75.7,175.2z"/>
		<path class="st5" d="M127.6,172.3l6.8-14.6l7.3,11.1c0,0,6.5-15.1,4.3-26.7c-0.2-0.9-0.8-1.6-1.6-2c-1.2-0.5-4.7-2.3-4.7-2.4
			l-0.3,6.7c0,0,0.2,2.6-1,5.2c-1.1,2.4-3.4,4.8-8.3,4.4c-1.4-0.1-2.7-0.3-4-0.7c-1-0.3-2-0.6-2.9-1.1c0,0,0,0,0,0
			c-5.8-2.8-9.2-8.4-8.9-14.4c0-0.9,0.1-1.9,0.1-2.8c-2.6,0.5-6.3,3.7-7.8,5.1c-0.4,0.4-0.7,1-0.6,1.5
			C106,145.2,107.9,158,127.6,172.3z"/>
		<path class="st6" d="M138.4,149.6c1.2-1.4,2.4-3.9,2.6-8.3c0-1.6-0.3-1.7-1.1-2.8c0,0-0.1-0.1-0.1-0.1c-0.1-0.1-0.1-0.1-0.2-0.1
			l-0.3,6.2C139.3,144.5,139.5,147.1,138.4,149.6z"/>
		<path class="st6" d="M123.2,152.3c-5.8-2.8-9.2-8.4-8.9-14.4c0-0.9,0.1-1.9,0.1-2.8c-0.7,1-0.9,1.2-1,2.7
			C112.4,148.9,122.5,152.2,123.2,152.3z"/>
		<g>
			
				<rect x="1" y="242.5" transform="matrix(-1 -4.493884e-11 4.493884e-11 -1 56.6444 499.9473)" class="st12" width="54.6" height="14.9"/>
			
				<rect x="54.8" y="242.5" transform="matrix(-1 -4.490775e-11 4.490775e-11 -1 406.216 499.9473)" class="st25" width="296.5" height="14.9"/>
			
				<rect x="1" y="257.4" transform="matrix(-1 -4.489621e-11 4.489621e-11 -1 352.3772 521.1158)" class="st26" width="350.4" height="6.3"/>
			
				<rect x="335" y="263.7" transform="matrix(-1 -4.500368e-11 4.500368e-11 -1 684.2711 678.9176)" class="st27" width="14.2" height="151.5"/>
			
				<rect x="289" y="263.7" transform="matrix(-1 -4.500368e-11 4.500368e-11 -1 592.1678 678.9176)" class="st28" width="14.2" height="151.5"/>
			<rect x="3.1" y="263.7" class="st27" width="14.2" height="151.5"/>
			<rect x="41.1" y="263.7" class="st28" width="14.2" height="151.5"/>
		</g>
		<path class="st24" d="M101.8,179.1c0,0,10.5,31.6,28.8,41.9l1.2,9C131.9,230,107.1,217.1,101.8,179.1z"/>
		<path class="st24" d="M168.8,154.6l3.3,87.9h43.5v-2.1c-1.1-2.9,1.9-5.2,1.9-5.2c-23.4,0.2-36.6-11.7-36.6-11.7
			s-1.1-39.3-4.8-57.2C175.3,161.9,172.5,157.9,168.8,154.6z"/>
		<path class="st29" d="M160,242.5l1.6-4.7c0.6-1.7,1.9-3.1,3.6-3.7l6.8-2.4c1.8-0.6,3.8-0.3,5.4,0.8l13.8,10L160,242.5z"/>
		<path class="st29" d="M213.8,242.5l1.6-4.7c0.6-1.7,1.9-3.1,3.6-3.7l6.8-2.4c1.8-0.6,3.8-0.3,5.4,0.8l13.8,10L213.8,242.5z"/>
		<g>
			<path class="st26" d="M225,224.1h107.6c4.1,0,7.4-3.3,7.4-7.4v-79.3c0-4.1-3.3-7.4-7.4-7.4H225c-4.1,0-7.4,3.3-7.4,7.4v79.3
				C217.5,220.8,220.9,224.1,225,224.1z"/>
			<path class="st27" d="M233.3,224.1h107.6c4.1,0,7.4-3.3,7.4-7.4v-79.3c0-4.1-3.3-7.4-7.4-7.4H233.3c-4.1,0-7.4,3.3-7.4,7.4v79.3
				C225.9,220.8,229.2,224.1,233.3,224.1z"/>
			<polygon class="st28" points="269.6,182.3 304.9,182.3 316.8,242.5 281.6,242.5 			"/>
			<path class="st26" d="M275.3,182.3h31.4c2.2,0,4.2,1.6,4.6,3.8l11.2,56.5h-35.3L275.3,182.3z"/>
			<path class="st28" d="M283,238.4h-15.8c-0.8,0-1.4,0.6-1.4,1.4v1.4c0,0.8,0.6,1.4,1.4,1.4H283c0.8,0,1.4-0.6,1.4-1.4v-1.4
				C284.4,239,283.8,238.4,283,238.4z"/>
			
				<rect x="170.5" y="239" transform="matrix(-1 -4.488866e-11 4.488866e-11 -1 419.8211 481.5088)" class="st26" width="78.9" height="3.6"/>
		</g>
	</g>
</g>
</svg>
