<?xml version="1.0" encoding="utf-8"?>
<!-- Generator: Adobe Illustrator 21.1.0, SVG Export Plug-In . SVG Version: 6.00 Build 0)  -->
<svg version="1.1" id="Layer_1" xmlns="http://www.w3.org/2000/svg" xmlns:xlink="http://www.w3.org/1999/xlink" x="0px" y="0px"
	 viewBox="0 0 246 276.9" style="enable-background:new 0 0 246 276.9;" xml:space="preserve">
<style type="text/css">
	.st0{opacity:0.3;}
	.st1{fill:none;stroke:#39BBD7;stroke-width:2;stroke-linecap:square;stroke-linejoin:round;stroke-miterlimit:10;}
	.st2{fill:none;stroke:#39BBD7;stroke-width:2;stroke-linecap:round;stroke-linejoin:round;stroke-miterlimit:10;}
	.st3{fill:#7B6769;}
	.st4{fill:#AFDDD2;}
	.st5{fill:#4885C5;}
	.st6{fill:#4376A5;}
	.st7{fill:#98D5C8;}
	.st8{fill:#BEE4E4;}
	.st9{fill:#694241;}
	.st10{fill:#583939;}
	.st11{fill:#7E5251;}
	.st12{fill:#B76B2A;}
	.st13{fill:#2D382A;}
	.st14{fill:#CE7C3E;}
	.st15{fill:#D37E66;}
	.st16{fill:#E78D6D;}
	.st17{fill:#764627;}
	.st18{fill:#814F30;}
	.st19{fill:#FFFFFF;}
	.st20{fill:#222D21;}
	.st21{fill:#42689B;}
	.st22{fill:#375781;}
	.st23{fill:#A56027;}
	.st24{fill:#DEE0E4;}
	.st25{fill:#BCBCBC;}
	.st26{fill:#ACABAB;}
	.st27{fill:#E68B6E;}
	.st28{fill:#AB6728;}
	.st29{fill:#8E5222;}
	.st30{fill:#F09A6D;}
	.st31{fill:#433F3A;}
	.st32{fill:#66A6D1;}
	.st33{fill:#F9A982;}
	.st34{fill:#80B7E2;}
	.st35{fill:#EEF5FC;}
	.st36{fill:#F9A983;}
	.st37{fill:#EDF5FC;}
	.st38{fill:#DFE5ED;}
	.st39{fill:#C77736;}
	.st40{fill:#F06D70;}
	.st41{fill:#A94C54;}
	.st42{opacity:0.3;fill:none;stroke:#39BBD7;stroke-width:2;stroke-linecap:round;stroke-linejoin:round;stroke-miterlimit:10;}
</style>
<g>
	<g class="st0">
		<g>
			<g>
				<polyline class="st1" points="193.1,124.4 193.1,5.6 98.6,5.6 98.6,124.4 				"/>
			</g>
		</g>
		<g>
			<g>
				<polyline class="st1" points="198.9,40.6 198.9,0 170.7,0 				"/>
			</g>
		</g>
		<g>
			<g>
				<polygon class="st2" points="216.4,131.8 216.4,126.4 200.7,126.4 142.6,126.4 90.7,126.4 90.7,131.8 				"/>
			</g>
		</g>
		<g>
			<g>
				<rect x="13.9" y="38.3" class="st2" width="35.8" height="46.9"/>
			</g>
		</g>
		<g>
			<g>
				<rect x="9.4" y="33.7" class="st2" width="44.7" height="56.1"/>
			</g>
		</g>
		<g>
			<line class="st2" x1="163" y1="31.6" x2="181" y2="49.6"/>
			<line class="st2" x1="120.7" y1="52.4" x2="135.9" y2="67.6"/>
			<line class="st2" x1="119.3" y1="26.4" x2="167.5" y2="74.7"/>
		</g>
		<polygon class="st2" points="44.5,66 38.6,59.5 35.3,63.2 25.3,52.3 18.4,59.9 18.4,69.1 44.5,69.1 		"/>
	</g>
	<g>
		<g>
			<path class="st3" d="M62.9,217.4h79.4c1.1,0,1.9,0.9,1.9,1.9v0c0,1.1-0.9,1.9-1.9,1.9H62.9c-1.1,0-1.9-0.9-1.9-1.9v0
				C61,218.3,61.9,217.4,62.9,217.4z"/>
			
				<rect x="88" y="220.1" transform="matrix(-1 -4.470880e-11 4.470880e-11 -1 187.2312 483.1231)" class="st3" width="11.2" height="42.9"/>
			<path class="st3" d="M130.5,267c-25.2-6.7-50.5-6.7-75.7,0v4.9c25.2-5.3,50.5-5.3,75.7,0V267z"/>
			
				<rect x="104" y="265.5" transform="matrix(-1 -4.462576e-11 4.462576e-11 -1 217.2354 537.4721)" class="st3" width="9.3" height="6.4"/>
			<circle class="st3" cx="108.6" cy="272.8" r="3.9"/>
			
				<rect x="77.2" y="265.5" transform="matrix(-1 -4.462576e-11 4.462576e-11 -1 163.6949 537.4721)" class="st3" width="9.3" height="6.4"/>
			<circle class="st3" cx="81.8" cy="272.8" r="3.9"/>
			<circle class="st3" cx="60.2" cy="272.8" r="3.9"/>
		</g>
		<path class="st4" d="M64.5,218.1h79c6.9,0,12.5-5.6,12.5-12.5L75.9,97H51.4c-3.3,0-5.9,2.7-5.9,5.9l9.8,106.7
			C55.7,214.4,59.7,218.1,64.5,218.1z"/>
		<path class="st5" d="M84.5,103.7l12,60.4l18,0.8c0,0-0.8-54.7-6.6-63.1l-5.7,0.5L84.5,103.7z"/>
		<path class="st6" d="M106.9,159.4l1.3,5.5h6.3c0,0-0.4-52.9-7.9-65.8l-4.4,3.2C105.9,107.3,108.1,131.1,106.9,159.4z"/>
		<path class="st7" d="M73.9,207.5c0,0,27.3,2.9,33-5L68.3,102.1h-10c-3.3,0-5.9,2.7-5.9,5.9l10,90.5
			C62.9,201.7,68.6,206.9,73.9,207.5z"/>
		<path class="st8" d="M144.1,196.4h-31.9c-5.9,0-10.7,4.8-10.7,10.7v0.3c0,5.9,4.8,10.7,10.7,10.7h31.9c5.9,0,10.7-4.8,10.7-10.7
			v-0.3C154.8,201.2,150,196.4,144.1,196.4z"/>
		<path class="st9" d="M129.6,180.8l2.5,17.2l0.8,5.7l15-0.4c4.9,24.3,10.9,41.4,15.5,64.3H181c-3.3-19.4-10-60.9-13.1-74.2
			c-3.3-14-12.5-12.7-12.5-12.7H129.6z"/>
		<path class="st10" d="M132.1,198l0.8,5.7l15-0.4c4.9,24.3,10.9,41.4,15.5,64.3h5.8c-6.2-24.9-13.9-53.3-16.2-63.2
			c-1.6-6.8-5.1-6.5-5.1-6.5H132.1z"/>
		<path class="st11" d="M115.9,267.7h17.4c4.4-21.6,7.4-56,8.5-70.3c1.2-14.4-10.4-16.5-10.4-16.5H82.3l-11.5,15.6v1.1
			c0,3.3,2.7,5.9,5.9,5.9l44.5-0.3C122.3,224,120.1,245.6,115.9,267.7z"/>
		<path class="st10" d="M115.9,267.7h4.7c3.1-22.7,5.5-52.5,6.7-63.7c0.7-6.9-5.1-6.5-5.1-6.5h-51l3.2,5.8l46.8-0.3
			C122.3,224,120.1,245.6,115.9,267.7z"/>
		<g>
			<path class="st12" d="M139.6,267.7h-22.1l-1.1,7.3h30.5v0C146.8,271,143.6,267.7,139.6,267.7z"/>
			
				<rect x="116.3" y="275" transform="matrix(-1 -4.496371e-11 4.496371e-11 -1 263.1401 551.8454)" class="st13" width="30.5" height="1.9"/>
			<path class="st14" d="M135.2,271.8h5.9c0.6,0,1.1-0.5,1.1-1.1v0c0-0.6-0.5-1.1-1.1-1.1h-5.9c-0.6,0-1.1,0.5-1.1,1.1v0
				C134.1,271.3,134.6,271.8,135.2,271.8z"/>
		</g>
		<g>
			<path class="st12" d="M188.8,267.7h-22.1l-1.1,7.3h30.5v0C196.1,271,192.8,267.7,188.8,267.7z"/>
			
				<rect x="165.5" y="275" transform="matrix(-1 -4.496371e-11 4.496371e-11 -1 361.5971 551.8454)" class="st13" width="30.5" height="1.9"/>
			<path class="st14" d="M184.4,271.8h5.9c0.6,0,1.1-0.5,1.1-1.1v0c0-0.6-0.5-1.1-1.1-1.1h-5.9c-0.6,0-1.1,0.5-1.1,1.1v0
				C183.3,271.3,183.8,271.8,184.4,271.8z"/>
		</g>
		<path class="st5" d="M112.3,161.3h38.9v-1.4c-0.7-1.9,1.3-3.5,1.3-3.5c-15.7,0.1-24.5-7.8-24.5-7.8s-0.7-26.3-3.2-38.2
			c-0.6-3-2.5-5.6-4.9-7.9c-7.2-6.6-19.4-9.6-19.4-9.6C109.2,105.6,112.5,131.7,112.3,161.3z"/>
		<g>
			<path class="st15" d="M82.5,73.5l1.3-1.9l2.6-3.7l0.8-1.1l0.8,1.2l12.6,20.6l-0.1,2.3l0,0.7l-0.2,4.1c0,0,0.4,6.9-6.2,6.4
				c-6.6-0.4-10.8-5.4-10.6-10.8c0-0.6,0-1.3,0-1.9c0.1-4.7-0.3-9-0.3-9s-0.5-2.4-1.4-4.1c-0.2-0.4-0.4-0.7-0.6-0.9L82.5,73.5z"/>
			<path class="st16" d="M86.3,65.6c0,0.8,0,1.5,0.1,2.3c0.1,1.1,0.1,2.1,0.3,3.1c0.9,7.3,3.7,13.4,7.5,16.8
				c1.6,1.4,3.3,2.4,5.2,2.9c0.4,0.1,0.8,0.2,1.2,0.2c0.3,0,0.6,0.1,0.9,0.1c10.9,0,14.3-9,14.9-20.9c0.1-1.4,0.1-2.9,0.1-4.4
				c0-1.1,0-2.3-0.1-3.4c0-0.1,0-0.1,0-0.2c-0.2-4.7-0.7-9-1.9-12.5c-0.6,0-1.2,0-1.7,0c-2.6,0-5.2,0-7.8,0c-0.4,0-0.7,0-1.1,0
				c-4.3,0.1-8.5,0-12.8,0h-2c-0.6,0-1.2,0-1.9-0.1c-0.3,0-0.6,0-0.9,0C85.5,53.8,86.3,59.4,86.3,65.6z"/>
			
				<ellipse transform="matrix(0.9907 -0.1364 0.1364 0.9907 -7.9038 16.2374)" class="st16" cx="114.5" cy="65.8" rx="3.5" ry="4.7"/>
			<path class="st17" d="M75.6,64.1c0.9,1.8,0.9,3.7,0.9,3.7l6.9,6.6c5.9-4.1,5.3-10.6,4.1-14.7c-1.2-4.1-0.7-8.1-0.7-8.1
				c4.3-1.4,11.9,0.4,19.4,1.2c7.4,0.8,8.1-1.2,8.1-1.2l1.6,10.2l1.3,1.4c0.3-6.4-0.2-12.3-0.9-15c-0.1-0.5-0.2-1.4-0.4-2.6
				c-0.8-4.6-3.3-12.8-14.8-12.8c-14.4,0-15.9,3.1-18.2,4.7c-0.9,0.7-1.5,1.7-1.7,2.8c-0.4,1.5-0.3,3-0.3,3s-2.5-0.4-5.7,4
				C72.1,51.7,74.7,62.3,75.6,64.1z"/>
			<path class="st18" d="M81.2,40.3C86.1,43,94,46.4,103,47.1c6.9,0.6,10.8-0.4,12.9-1.6c-0.8-4.6-3.3-12.8-14.8-12.8
				c-14.4,0-15.9,3.1-18.2,4.7C82,38.2,81.5,39.3,81.2,40.3z"/>
			<ellipse transform="matrix(0.89 -0.4559 0.4559 0.89 -23.7277 44.3381)" class="st15" cx="80" cy="71.4" rx="3.5" ry="5.3"/>
			<path class="st19" d="M109.9,77l-11.6,0.7c0,0,0.5,5.1,5.6,5.2C108.9,83,109.9,77,109.9,77z"/>
			<ellipse class="st20" cx="111" cy="65" rx="2" ry="2.5"/>
			<ellipse class="st20" cx="98.3" cy="66" rx="2" ry="2.5"/>
			<path class="st17" d="M108.8,60.1c-0.2,0-0.2-1.4-0.2-2.1c0-0.2,0.2-0.4,0.4-0.4c1.3-0.2,5.3-0.6,7.1,1.4l-0.2,2.8
				C115.9,61.7,114,59,108.8,60.1z"/>
			<path class="st17" d="M101,58.1l0.1,2.1c0,0.2-0.2,0.4-0.4,0.4c-1.3-0.1-5.4-0.1-9.2,2.9c-0.2,0.1-0.4,0.1-0.5,0l-0.8-0.8
				c-0.2-0.1-0.2-0.4,0-0.6c1-1.1,4.9-4.8,10.4-4.4C100.8,57.7,101,57.9,101,58.1z"/>
			<path class="st15" d="M105.2,66.5l0.7,5.6c0.1,0.4,0.5,0.7,0.9,0.6c1.3-0.4,4-2,2.5-3.3l-3.8-3.1
				C105.4,66.2,105.2,66.4,105.2,66.5z"/>
		</g>
		<path class="st21" d="M91.3,112.5L91.3,112.5l4.4,4.2l1,36.8l2.7,2.4l4.6,4.1l2.8-5.8c-0.2-6.7-6.5-39.1-6.5-39.1l1.7-4.1
			l-5.2-7.4h-2.6L91.3,112.5z"/>
		<polygon class="st22" points="91.3,112.6 95.7,116.7 96.6,153.5 99.3,155.9 97.1,115.8 92.2,111.3 		"/>
		<path class="st6" d="M104.7,102.4c0,0,0.4,4.1-3.1,11.2l-5.1-8.9L104.7,102.4z"/>
		<path class="st6" d="M83.2,104.9c0,0,1,4.3,9,11.3l5.4-11.8L83.2,104.9z"/>
		<path class="st5" d="M137.7,180.8c-11.1,0-30.5,0-42.5,0c-10.3,0-21,8.2-21.9,15.4c0,0.3-0.1,0.6-0.1,0.9c0,0.1,0,0.3,0,0.4v0
			c0,4,1.1,5.7,1.1,5.8c-0.9-0.4-1.9-1.2-2.6-1.7c0,0,0,0,0,0c-0.2-0.2-0.4-0.3-0.6-0.5c-3.7-2.9-5.2-7.1-5.8-10.2
			c-0.3-1.2-0.4-2.2-0.4-2.9c0-0.1,0-0.2,0-0.3c0-0.3,0-0.4,0-0.4s-5.3-51.3-7.2-71.2C56.2,100.5,73,95,80.1,93.4
			c1.9-0.4,3.1-0.6,3.1-0.6c1.2,3.9,2.4,7.9,3.4,12c0.8,3.1,1.5,6.2,2.2,9.5c2.6,12.2,4.7,25.3,6.5,38.6c7.3,3.7,19.4,7.2,19.4,7.2
			c-0.4,0.6-0.4,1.2-0.4,1.2H96.4c0.5,4.2,1,8.4,1.5,12.6C111,172.5,124.2,173.4,137.7,180.8z"/>
		<path class="st6" d="M137.7,180.8h-15.4c-6-3.6-10-5.6-21-8H118C128.2,176.4,135.2,179.1,137.7,180.8z"/>
		<path class="st6" d="M65.1,145.1l3.5,39.4c0,0-0.1,7.7,4.8,11.5c0,0.1,0,0.1,0,0.2c0,0.5,0,1,0,1.4v0c0,4,1.1,5.7,1.1,5.8
			c-0.9-0.4-1.9-1.2-2.6-1.7c0,0,0,0,0,0c-0.2-0.2-0.4-0.3-0.6-0.5c-3.7-2.9-5.2-7.2-5.8-10.2c-0.3-1.2-0.4-2.2-0.4-2.9
			c0-0.1,0-0.2,0-0.3c0-0.3,0-0.4,0-0.4s-5.3-51.3-7.2-71.2C56.2,100.5,73,95,80.1,93.4l0,2.8c0,0,3.6,4.4,6.5,8.7
			c0.8,3.1,1.5,6.2,2.2,9.5c-11.2-8.2-12.2-17.4-12.4-17.4c-3.4,1-10.6,3.3-13.9,11.1c-4.6,10.8,4,29.6,5.6,32.7
			c1.5,3,4.3,12.5,21,22h-6.6C82.5,162.7,70.8,156.4,65.1,145.1z"/>
		<path class="st5" d="M92.4,114.3l4.5-9.7l4.9,7.4c0,0,4.4-10.1,2.9-17.8c-0.1-0.6-0.5-1.1-1.1-1.3c-0.8-0.3-3.1-1.6-3.2-1.6
			l-0.2,4.5c0,0,0.1,1.8-0.7,3.4c-0.7,1.6-2.3,3.2-5.5,3c-0.9-0.1-1.8-0.2-2.7-0.5c-0.7-0.2-1.3-0.4-1.9-0.7c0,0,0,0,0,0
			c-3.9-1.9-6.1-5.6-6-9.6c0-0.6,0-1.3,0-1.9c-1.7,0.4-4.2,2.5-5.2,3.4c-0.3,0.3-0.4,0.6-0.4,1C77.9,96.2,79.2,104.7,92.4,114.3z"/>
		<path class="st6" d="M99.6,99.1c0.8-0.9,1.6-2.6,1.7-5.6c0-1.1-0.2-1.1-0.7-1.9c0,0-0.1,0-0.1-0.1c0,0-0.1-0.1-0.1-0.1l-0.2,4.1
			C100.3,95.7,100.4,97.4,99.6,99.1z"/>
		<path class="st6" d="M89.4,100.9c-3.9-1.9-6.1-5.6-6-9.6c0-0.6,0-1.3,0-1.9c-0.5,0.7-0.6,0.8-0.7,1.8
			C82.3,98.6,89,100.8,89.4,100.9z"/>
		<g>
			
				<rect x="7.7" y="161.3" transform="matrix(-1 -4.940283e-11 4.940283e-11 -1 51.9426 333.4858)" class="st12" width="36.6" height="10.9"/>
			
				<rect x="43.7" y="161.3" transform="matrix(-1 -4.935042e-11 4.935042e-11 -1 285.8379 333.4858)" class="st23" width="198.4" height="10.9"/>
			
				<rect x="7.7" y="172.2" transform="matrix(-1 -4.933222e-11 4.933222e-11 -1 249.8148 349.0498)" class="st24" width="234.4" height="4.6"/>
			
				<rect x="231.2" y="176.8" transform="matrix(-1 -4.445745e-11 4.445745e-11 -1 471.8821 453.6507)" class="st25" width="9.5" height="100"/>
			
				<rect x="200.4" y="176.8" transform="matrix(-1 -4.426605e-11 4.426605e-11 -1 410.2567 453.6507)" class="st26" width="9.5" height="100"/>
			<rect x="9.1" y="176.8" class="st25" width="9.5" height="100"/>
			<rect x="34.5" y="176.8" class="st26" width="9.5" height="100"/>
		</g>
		<path class="st6" d="M75.2,118.8c0,0,7,21.2,19.3,28l0.8,6C95.3,152.9,78.7,144.2,75.2,118.8z"/>
		<path class="st6" d="M120,102.5c3.1,6.1,2.9,30.7,2.2,58.8l29.1,0v-1.4c-0.7-1.9,1.3-3.5,1.3-3.5c-15.7,0.1-24.5-7.8-24.5-7.8
			s-0.7-26.3-3.2-38.2C124.3,107.3,122.4,104.7,120,102.5z"/>
		<path class="st27" d="M114.1,161.3l1-3.1c0.4-1.2,1.3-2.1,2.4-2.5l4.6-1.6c1.2-0.4,2.6-0.2,3.6,0.5l9.2,6.7L114.1,161.3z"/>
		<path class="st27" d="M150,161.3l1-3.1c0.4-1.2,1.3-2.1,2.4-2.5l4.6-1.6c1.2-0.4,2.6-0.2,3.6,0.5l9.2,6.7L150,161.3z"/>
		<g>
			<path class="st24" d="M160,149h67.1c4.1,0,7.4-3.3,7.4-7.4V93.4c0-4.1-3.3-7.4-7.4-7.4H160c-4.1,0-7.4,3.3-7.4,7.4v48.1
				C152.6,145.6,155.9,149,160,149z"/>
			<path class="st25" d="M165.6,149h67.1c4.1,0,7.4-3.3,7.4-7.4V93.4c0-4.1-3.3-7.4-7.4-7.4h-67.1c-4.1,0-7.4,3.3-7.4,7.4v48.1
				C158.2,145.6,161.5,149,165.6,149z"/>
			<polygon class="st26" points="187.4,121 211,121 219,161.3 195.4,161.3 			"/>
			<path class="st24" d="M191.2,121h21c1.5,0,2.8,1.1,3.1,2.5l7.5,37.8h-23.6L191.2,121z"/>
			<path class="st26" d="M195.9,158.5h-9.7c-0.8,0-1.4,0.6-1.4,1.4v0c0,0.8,0.6,1.4,1.4,1.4h9.7c0.8,0,1.4-0.6,1.4-1.4v0
				C197.3,159.1,196.7,158.5,195.9,158.5z"/>
			
				<rect x="121.1" y="158.9" transform="matrix(-1 -4.488733e-11 4.488733e-11 -1 294.941 320.166)" class="st24" width="52.8" height="2.4"/>
		</g>
	</g>
</g>
<g>
	<g class="st0">
		<rect x="-679.1" y="83.4" class="st2" width="9" height="5.3"/>
		<rect x="-686.3" y="51.1" class="st2" width="9" height="24.5"/>
		<g>
			<polyline class="st2" points="-769.4,161.2 -769.4,114.3 -746,114.3 -746,137 -720.9,137 -720.9,161.2 -695.4,161.2 -695.4,37.1 
				-659.9,37.1 -659.9,98.9 -642.2,109.4 -642.2,140.4 -626.2,140.4 			"/>
			<polyline class="st2" points="-626.2,140.4 -611.1,140.4 -611.1,126.5 -579.8,126.5 -579.8,190.1 -608.7,190.1 -608.7,181.2 
				-601.4,181.2 -610.7,149.9 -620.1,181.2 -612.8,181.2 -612.8,190.1 -638.1,190.1 -638.1,183.8 -652.7,183.8 -652.7,190.1 
				-732.6,190.1 			"/>
			<polyline class="st2" points="-630.5,140.4 -630.5,100.9 -598.5,100.9 -598.5,126.5 			"/>
			<polyline class="st2" points="-708.2,161.2 -708.2,100.7 -735.3,121.5 -735.3,137 			"/>
			<rect x="-686.3" y="128.4" class="st2" width="18.1" height="32.9"/>
			<rect x="-686.3" y="110.2" class="st2" width="18.1" height="10.6"/>
			<rect x="-732.6" y="175.2" class="st2" width="24.5" height="4.2"/>
			<rect x="-702.3" y="175.2" class="st2" width="34.1" height="4.2"/>
			<rect x="-686.3" y="95.2" class="st2" width="9" height="5.3"/>
			<rect x="-624.7" y="118.2" class="st2" width="9" height="5.3"/>
			<rect x="-624.7" y="106.4" class="st2" width="9" height="5.3"/>
			<polygon class="st2" points="-625.5,85.5 -603.6,90.7 -603.6,100.9 -625.5,100.9 			"/>
		</g>
		<line class="st2" x1="-745.6" y1="212" x2="-706.3" y2="212"/>
		<line class="st2" x1="-696.1" y1="201.8" x2="-656.8" y2="201.8"/>
		<line class="st2" x1="-646.6" y1="212" x2="-585.9" y2="212"/>
	</g>
	<g>
		<path class="st28" d="M-756.1,69.7c-6.3,4.6-13.9,3.9-19.2,2.6c-3.7-0.9-6.2-2.2-6.2-2.2s-9.4-3.9-10.4-8.8
			c-1.1-5-2.4-5.9,0.8-23.3c0,0-0.2-0.3-0.5-0.7c0,0,0,0,0,0c-1-1.7-3.4-6-3.6-10.2c-0.1-1.2,0-2.4,0.4-3.5c2-5.7,6.7-8.4,15.8-7.4
			c0.6,0.1,1.2,0.2,1.9,0.3c0,0,2-2,5.4-3c0.3-0.1,0.6-0.2,0.9-0.2c2.3-0.5,5.2-0.6,8.6,0.5c5.7,1.9,9.8,7.3,12,13.4
			c0.2,0.6,0.4,1.2,0.6,1.7c1,3.3,1.4,6.7,1.3,9.7C-748.7,48-745.3,61.9-756.1,69.7z"/>
		<path class="st29" d="M-770.8,64.7c0,0-2.8,5-4.5,7.6c-3.7-0.9-6.2-2.2-6.2-2.2s-9.4-3.9-10.4-8.8c-1.1-5-2.4-5.9,0.8-23.3
			l3.4-5.9c0,0,6.5,3,7.9,4.7c1.4,1.7,8.1,16.6,8.1,16.6L-770.8,64.7z"/>
		<g>
			<path class="st30" d="M-751.2,228.4c-1-22.4-13.8-42.7-13.8-42.7l-7.3,1.6l2.3,23.9c0-0.1,12.9,39.2,12.2,50.5
				c-0.2,3.3-3.7,6.7-4,6.9c0,0,0,0,0,0c8.9-0.7,13.2-12.4,13.2-12.4S-750.2,250.8-751.2,228.4z"/>
			<path class="st31" d="M-744.6,276.9h-3.2c0,0-1.4-9.6-1.5-9.6c0,0.2-3,6.3-4.2,8.7c-0.3,0.6-0.9,0.9-1.5,0.9h-18.5
				c0,0-0.8-0.8,0-1.4c0.8-0.5,11.7-6.9,11.7-6.9c8.9-0.7,13.2-12.4,13.2-12.4c0.1-0.2,0.3-0.4,0.4-0.6c0.7-0.1,2.8,1.1,2.8,2.3
				C-745.3,260.4-744.7,273.1-744.6,276.9z"/>
		</g>
		<path class="st32" d="M-759.2,253l10.5-5.3c-2.2-3,3.9-35.1-23-76.6c-3.1-4.8-6.7-9.8-10.8-14.9l-9.1,0.8
			C-777,193.6-763.7,227.7-759.2,253z"/>
		<g>
			<path class="st33" d="M-763.7,187.8l-5-2.1l-11.5,5.2c0,0,5.8,50.8-12.9,78.4c0,0,7.7,3.6,14.6-12.7c0.1-0.2,0.2-0.5,0.3-0.7
				C-771,238.7-762.8,216.9-763.7,187.8z"/>
			<path class="st31" d="M-777.3,276.9h-3.1c0,0-0.5-9.6-0.6-9.6c0,0.2-3.6,6.3-5,8.7c-0.3,0.6-0.9,0.9-1.6,0.9h-18.9
				c0,0-0.8-0.8,0-1.4c0.8-0.5,13.3-6.2,13.3-6.2s7.7,3.6,14.6-12.7c0.1-0.2,0.2-0.5,0.3-0.7c0.8-0.1,2.1,0.8,2.2,2.1
				C-775.9,260.4-777.3,273.1-777.3,276.9z"/>
		</g>
		<path class="st34" d="M-788.4,258.4l12.3-4.6c10-22.7,15.5-60.5,22.2-101.6l-26.1,2.5C-780,154.7-778.4,213.7-788.4,258.4z"/>
		<path class="st32" d="M-782.5,160.8c0,0,24.3-2.1,28.4-3.8C-754.1,160.7-784.8,165.8-782.5,160.8z"/>
		<path class="st30" d="M-820.3,108.5c0,0-2.5-1.5-3.4-2.7c-1-1.2-2.6-1.8-3.2-1c-0.7,0.8,0.8,2.3,1.8,3c0,0-8.7,0.3-11.6,2.3
			c0,0-2.5,1.9-0.4,4.5c2.1,2.5,5.9,2.4,5.9,2.4s8.8,0,12.7-2.8L-820.3,108.5z"/>
		<path class="st32" d="M-792.2,89.5c2.6,0.1,5.3,0.1,7.9,0.3l1.4-18.6c0,0-10,1.2-9.2,17.2L-792.2,89.5z"/>
		<path class="st30" d="M-792.9,95.3l-0.6,4.6c0,0,2.8,15.5-26.8,8.6l-0.3,6.7c1.6-1.5,19.3,6,33-0.4l1-2.5l1.8-15.3
			C-787.6,96.9-790.7,96.1-792.9,95.3z"/>
		<path class="st34" d="M-759.2,109l-1.9,5.8c9.8,10.1,12.5,31.3,12.6,38.8c0,1.4-0.9,2.7-2.2,3.1c-16.3,5.5-40.4,4.6-41.5,2.7
			c-0.4-0.7,0.2-6.5,1-13.5c0-0.1,0-0.1,0-0.2c0.1-0.8,0.2-1.5,0.3-2.3c0.6-4.6,1.3-9.5,1.9-13.8c0,0,0,0,0,0
			c0.9-6.2,1.6-10.8,1.6-10.8c-0.1-10.8-6.3-18.8-6.3-18.8s-1.4-2.9-1.2-4.5c0.2-2.9,2.2-6.2,2.2-6.2c3.2-5.3,6.4-10.5,8.6-16.3
			c0.4-1.2,1.3-2.1,2.4-2.7c5.6-3,10.4-3.2,13.3-2.9c0.8,0.1,1.5,0.2,2,0.3c0.8,0.2,1.2,0.3,1.2,0.3s0.8,0.1,2.2,0.4
			c0.6,0.1,1.3,0.2,2,0.4c1.1,0.2,2.4,0.4,3.6,0.6c1.1,0.2,2.2,0.4,3.3,0.5c1.2,0.2,2.3,0.4,3.2,0.5c4.7,0.6,4.6,7.5,4.6,7.5
			s0.2,20.3,0,24.7c-0.2,4.4-2.7,7.5-5.6,8c-0.6,0.1-1.2,0-1.9-0.2c-1-0.3-2.1-0.8-2.9-1.3c-0.3-0.2-0.6-0.3-0.8-0.5
			c-0.7-0.5-1.2-0.8-1.2-0.8L-759.2,109z"/>
		<g>
			<path class="st32" d="M-780.1,116.3c-0.1,2.9-0.4,6.6-0.7,10.5c-0.8,9.9-1.6,25.7-0.8,34.1c-0.2,0-0.7,0-0.8,0
				c-0.8-8.4-0.1-24,0.7-34.1c0.3-3.9,0.6-7.6,0.7-10.5c0.5-10-0.9-24.3-1-24.4c-0.1-0.3,0.1-0.5,0.4-0.6c0.3,0,0.5,0.1,0.6,0.4
				C-781,91.8-779.6,106.2-780.1,116.3z"/>
		</g>
		<path class="st35" d="M-782.9,80.5c-1.3,6.7,0,9.8,0.9,11.7c0.3,0.6,0.3,1.1,0.3,1.1l0.6-0.8c2.4-6.6,10.7-12,10.7-12H-782.9z"/>
		<path class="st32" d="M-750.1,104c-0.4,1.2-1.7,5-3.5,6.2c-1.4-0.4-2.8-1.2-3.7-1.8c-2.6-4.1-5.7-14.9-5.6-40.1
			c2.2,0.4,4.8,0.8,7.9,1.3c1,10.2,4,30,4.9,33.8C-750.1,103.6-750.1,103.8-750.1,104z"/>
		<path class="st34" d="M-760.9,68.6l-0.6,7.4l-3.9-1.9c0,0-3.8-2.8-4.1-2.8c0-0.2,0.7-2.4,1.3-4c0.8,0.1,1.5,0.2,2,0.3
			c0.8,0.2,1.2,0.3,1.2,0.3s0.8,0.1,2.2,0.4C-762.3,68.3-761.6,68.5-760.9,68.6z"/>
		<path class="st30" d="M-773.7,61.3l0.4,8c0,0-6.5,0.2-7.6,4.1c-1.2,4-1.9,7.1-1.9,7.1h12.5l5-6.5c0,0-5.4-3.1,1.8-13.9
			L-773.7,61.3z"/>
		<path class="st36" d="M-762.6,58.7c-3,2.3-15.8,4.5-17.2,3.9c-1.4-0.6-1.5-2.2-4.4-6.9c-2.9-4.7-4-9-3.5-11.8
			c0.5-2.9,0-11.8,0-11.8l9.4-11.3c0.3,6.4,4.1,10.4,8.5,14.1c1.4,1.2,2.8,2.3,4.2,3.5c1.5,1.3,3,2.6,4.3,4.1
			C-761.3,42.6-759.5,56.4-762.6,58.7z"/>
		<path class="st37" d="M-757.1,38.8l6.5,4.6c0.6,0.4,0.8,1.2,0.3,1.9l-11.3,17.1c-0.4,0.6-1.2,0.8-1.9,0.4l-6.8-4.4
			c-0.6-0.4-0.8-1.3-0.4-1.9l11.5-17.4C-758.6,38.6-757.7,38.4-757.1,38.8z"/>
		<path class="st38" d="M-756.2,39.5l6.5,4.6c0.6,0.4,0.8,1.2,0.4,1.9l-11.3,17.1c-0.4,0.6-1.2,0.8-1.9,0.4l-6.8-4.4
			c-0.6-0.4-0.8-1.3-0.4-1.9l11.5-17.4C-757.7,39.2-756.8,39.1-756.2,39.5z"/>
		<path class="st30" d="M-757.2,61.5c0,0,1.5-2.4,2.7-3.2c1.2-0.9,1.7-2.4,1-3.1s-2.2,0.7-2.9,1.6c0,0,0.2-8-1.6-10.8
			c0,0-1.8-2.4-4.2-0.5c-2.4,2-2.4,5.6-2.4,5.6s-0.5,8.1,2,11.9L-757.2,61.5z"/>
		<g>
			<circle class="st20" cx="-785.7" cy="88.5" r="2.8"/>
			<circle class="st19" cx="-785.9" cy="88.3" r="2.5"/>
			<circle class="st20" cx="-786.1" cy="88.1" r="2"/>
			<path class="st20" d="M-773.4,67.7c-1.8,0.1-3.7,1-5,2.4c-1.3,1.4-2.1,3.3-2.5,5.3c-0.4,2.1-0.9,4.1-1.7,6.1
				c-0.4,1-0.8,2-1.2,2.9c-0.4,0.9-0.8,1.8-1,2.7l-1.7-0.4c0.3-1.1,0.8-2.1,1.3-3c0.5-0.9,0.9-1.8,1.4-2.7c0.8-1.8,1.5-3.8,2-5.8
				c0.4-2.1,1.3-4.1,2.8-5.8c1.5-1.6,3.5-2.6,5.7-2.8C-773.5,66.8-773.4,67.4-773.4,67.7z"/>
			<g>
				<path class="st20" d="M-769.6,82.5l-1,0c0.1-3.6,1.6-4.8,3.2-6.1c1-0.8,2.1-1.7,2.9-3.4c0.5-1.1,0.6-2,0.2-2.8
					c-0.6-1.3-2.3-2-2.8-2.1c0.1-0.4,0.1-0.8,0.2-1c0.6,0.2,2.7,0.9,3.5,2.7c0.5,1.1,0.4,2.3-0.2,3.7c-0.9,1.9-2.1,2.9-3.2,3.8
					C-768.4,78.4-769.5,79.3-769.6,82.5z"/>
			</g>
			<g>
				<path class="st19" d="M-764.8,84.6l-5.6,10l0,0c-0.3,0.5-0.6,1-1,1.3c-0.4,0.4-0.9,0.7-1.5,0.8c-0.6,0.1-1.2,0.1-1.7,0
					c-0.3-0.1-0.5-0.2-0.8-0.3c-0.2-0.1-0.5-0.3-0.7-0.4l0.4-0.7c0.4,0.2,0.8,0.4,1.3,0.6c0.4,0.1,0.9,0.1,1.3,0
					c0.4-0.1,0.8-0.3,1.1-0.6c0.3-0.3,0.6-0.7,0.8-1.1l0,0l0,0l5.4-10L-764.8,84.6z"/>
			</g>
			<g>
				<path class="st19" d="M-769.6,82.7l-0.6,11.8l0-0.1c0,0.4,0.2,0.8,0.3,1.1c0.2,0.4,0.4,0.7,0.7,0.9c0.3,0.2,0.6,0.4,1,0.5
					c0.4,0.1,0.8,0.1,1.2,0.1l0.1,0.8c-0.5,0-1,0-1.5-0.1c-0.5-0.1-1-0.3-1.4-0.7c-0.4-0.3-0.7-0.7-0.9-1.2
					c-0.2-0.5-0.4-0.9-0.5-1.4l0,0l0,0l0.4-11.8L-769.6,82.7z"/>
			</g>
			<g>
				<circle class="st20" cx="-770.1" cy="82.4" r="0.8"/>
			</g>
			<g>
				<circle class="st20" cx="-765.2" cy="84" r="0.8"/>
			</g>
			<g>
				<path class="st20" d="M-764.7,84l-1-0.1c0-0.1,0.6-6.7,0-9l1-0.3C-764,77.2-764.6,83.7-764.7,84z"/>
			</g>
			<g>
				
					<ellipse transform="matrix(0.1373 -0.9905 0.9905 0.1373 -758.096 -675.4281)" class="st19" cx="-766.8" cy="97.5" rx="1" ry="1.6"/>
			</g>
			<g>
				
					<ellipse transform="matrix(0.1373 -0.9905 0.9905 0.1373 -758.096 -675.4281)" class="st20" cx="-766.8" cy="97.5" rx="0.8" ry="1.3"/>
			</g>
			<g>
				
					<ellipse transform="matrix(0.3792 -0.9253 0.9253 0.3792 -570.1329 -658.5515)" class="st19" cx="-775.9" cy="95.6" rx="1" ry="1.6"/>
			</g>
			<g>
				
					<ellipse transform="matrix(0.3792 -0.9253 0.9253 0.3792 -570.1329 -658.5515)" class="st20" cx="-775.9" cy="95.6" rx="0.8" ry="1.3"/>
			</g>
		</g>
		<path class="st30" d="M-762.6,63.1l5.4-1.5c0,0,3.6,31.9,5,39.1c0.2,0.8,0.1,1.6-0.2,2.4c-0.8,2.2-2.6,6.2-4.7,5.5
			C-759.9,107.5-763.3,100.3-762.6,63.1z"/>
		<path class="st17" d="M-781.7,35.3v0.6c0,0.3-0.2,0.6-0.6,0.6c-1,0.1-3.1,0.5-5.3,2.5c0,0,1-4.1,5.2-4.3
			C-782,34.7-781.7,35-781.7,35.3z"/>
		<path class="st17" d="M-765.5,38.5c-0.1,0-0.1,0-0.2,0c-3-1.2-5.9-1.4-7.1-1.5c-0.4,0-0.8-0.4-0.8-0.8v-0.6c0-0.4,0.4-0.8,0.8-0.8
			c1,0,2.2,0.1,3.1,0.3C-768.3,36.1-766.9,37.3-765.5,38.5z"/>
		<ellipse class="st20" cx="-783.4" cy="42.4" rx="1.4" ry="2.1"/>
		<ellipse class="st20" cx="-771.5" cy="42.4" rx="1.4" ry="2.1"/>
		<path class="st30" d="M-778.7,44.9l0.5,4.3c0,0.3-0.2,0.6-0.5,0.6c-0.9-0.1-3.1-0.8-2.3-2l2.1-2.9
			C-778.9,44.7-778.8,44.8-778.7,44.9z"/>
		<path class="st39" d="M-779,16.2c-0.8,1.2-1.8,2.3-2.9,3.5c-4.3,4.5-9.2,6.6-13.3,7.4c-0.1-1.2,0-2.4,0.4-3.5
			C-792.8,17.9-788,15.1-779,16.2z"/>
		<g>
			<path class="st40" d="M-782.1,52.1c1.1-0.4,3.5-0.9,8.5,0.2c0.6,0.1,0.8,0.8,0.5,1.3c-0.6,0.9-1.6,2.4-3.4,3.6
				c-0.9,0.6-2,0.6-2.8,0c-1-0.6-2.2-1.8-3.2-3.9C-782.7,52.8-782.5,52.3-782.1,52.1z"/>
			<path class="st37" d="M-773.9,53.1c0,0-0.2,0.4-0.7,1l0,0c-0.1,0.1-0.2,0.2-0.4,0.4c-0.6,0.5-1.5,1.1-2.7,1.6c0,0-1.7-0.1-3.2-2
				v0c-0.2-0.3-0.4-0.6-0.6-0.9C-781.4,53.1-780,51.9-773.9,53.1z"/>
			<path class="st41" d="M-774.6,54.1L-774.6,54.1c-0.1,0.1-0.2,0.2-0.4,0.4c-0.6,0.5-1.5,1.1-2.7,1.6c0,0-1.7-0.1-3.2-2v0
				C-779.6,53.8-777.3,53.3-774.6,54.1z"/>
		</g>
		<path class="st32" d="M-773.7,129.6c0,0,9.4,0.4,14.2-1.5c0,0.3,4.5,14,2.6,14.8c-2,0.8-10.7,3.9-13.1,2.7
			C-771.6,145-773.3,132.5-773.7,129.6z"/>
		<path class="st32" d="M-786.6,129.6c-0.4,2.5-2.2,13-3.7,13.6c-0.2,0.1-0.3,0.1-0.6,0.1c0.6-4.6,1.3-9.5,1.9-13.8
			C-787.5,129.6-786.6,129.6-786.6,129.6z"/>
	</g>
</g>
<line class="st42" x1="-238" y1="232.9" x2="-121" y2="232.9"/>
<line class="st42" x1="-465" y1="232.9" x2="-348.7" y2="232.9"/>
<g class="st0">
	<g>
		<path class="st2" d="M-300.8,250.2h-6.1c-5.2,0-9.4-4.2-9.4-9.4v-27.8c0-5.2,4.2-9.4,9.4-9.4h27.8c5.2,0,9.4,4.2,9.4,9.4v27.8
			c0,5.2-4.2,9.4-9.4,9.4h-6.3"/>
	</g>
	<g>
		<g>
			<path class="st2" d="M-293,237.9L-293,237.9c-2.1,0-3.3-0.9-4.1-2.3l-6.9-11.5l0,0c-1.5-2.6-0.2-6,2.7-6.8c0.1,0,0.2-0.1,0.3-0.1
				"/>
			<circle class="st2" cx="-299" cy="216.9" r="1.9"/>
			<path class="st2" d="M-293,237.9L-293,237.9c2.1,0,3.3-0.9,4.1-2.3l6.9-11.5l0,0c1.5-2.6,0.2-6-2.7-6.8c-0.1,0-0.2-0.1-0.3-0.1"
				/>
			<circle class="st2" cx="-287" cy="216.9" r="1.9"/>
		</g>
		<path class="st2" d="M-300.8,250.2l-10.7-17.1c-8.1-12.7,1.5-29,17.7-29.5c0.3,0,0.5,0,0.8,0h0c0.3,0,0.5,0,0.8,0
			c16.2,0.5,25.8,16.7,17.7,29.5l-18.5,29.2l-3.8-6"/>
		<line class="st2" x1="-293" y1="237.9" x2="-300.8" y2="250.2"/>
	</g>
</g>
</svg>
