<?xml version="1.0" encoding="utf-8"?>
<!-- Generator: Adobe Illustrator 21.1.0, SVG Export Plug-In . SVG Version: 6.00 Build 0)  -->
<svg version="1.1" id="artwork" xmlns="http://www.w3.org/2000/svg" xmlns:xlink="http://www.w3.org/1999/xlink" x="0px" y="0px"
	 viewBox="0 0 202 60" style="enable-background:new 0 0 202 60;" xml:space="preserve">
<style type="text/css">
	.st0{fill:#FFFFFF;}
</style>
<g>
	<path d="M194.8,60H7.1C3.2,60,0,56.8,0,52.9V7.1C0,3.2,3.2,0,7.1,0h187.7c3.9,0,7.2,3.2,7.2,7.1v45.8C202,56.8,198.7,60,194.8,60
		L194.8,60z"/>
	<path d="M200.6,52.9c0,3.2-2.6,5.7-5.7,5.7H7.1c-3.2,0-5.7-2.6-5.7-5.7V7.1c0-3.2,2.6-5.8,5.7-5.8h187.7c3.2,0,5.7,2.6,5.7,5.8
		L200.6,52.9L200.6,52.9z"/>
	<g>
		<g>
			<path class="st0" d="M45.1,29.7c0-4.8,3.9-7.2,4.1-7.3c-2.3-3.3-5.8-3.8-7-3.8c-2.9-0.3-5.8,1.8-7.3,1.8c-1.5,0-3.8-1.7-6.3-1.7
				c-3.2,0-6.2,1.9-7.8,4.8c-3.4,5.9-0.9,14.5,2.4,19.3c1.6,2.3,3.5,4.9,6,4.8c2.4-0.1,3.3-1.6,6.3-1.6c2.9,0,3.8,1.6,6.3,1.5
				c2.6,0,4.3-2.3,5.8-4.7c1.9-2.7,2.6-5.3,2.7-5.4C50.1,37.4,45.1,35.5,45.1,29.7z"/>
			<path class="st0" d="M40.3,15.5c1.3-1.6,2.2-3.9,2-6.1c-1.9,0.1-4.3,1.3-5.6,2.9c-1.2,1.4-2.3,3.7-2,5.9
				C36.7,18.3,38.9,17.1,40.3,15.5z"/>
		</g>
	</g>
	<g>
		<path class="st0" d="M80.3,47.3h-3.4L75,41.4h-6.5l-1.8,5.9h-3.3l6.4-20h4L80.3,47.3z M74.4,38.9l-1.7-5.2c-0.2-0.5-0.5-1.8-1-3.8
			h-0.1c-0.2,0.8-0.5,2.1-0.9,3.8l-1.7,5.2H74.4z"/>
		<path class="st0" d="M96.8,39.9c0,2.4-0.7,4.4-2,5.8c-1.2,1.3-2.6,1.9-4.4,1.9c-1.9,0-3.2-0.7-4.1-2h-0.1v7.6H83V37.6
			c0-1.5,0-3.1-0.1-4.7h2.8l0.2,2.3H86c1.1-1.7,2.7-2.6,4.8-2.6c1.7,0,3.1,0.7,4.2,2C96.2,35.9,96.8,37.7,96.8,39.9z M93.5,40
			c0-1.4-0.3-2.6-0.9-3.5c-0.7-0.9-1.6-1.4-2.8-1.4c-0.8,0-1.5,0.3-2.1,0.8c-0.6,0.5-1.1,1.2-1.3,2.1c-0.1,0.4-0.1,0.7-0.1,1v2.4
			c0,1,0.3,1.9,1,2.7c0.6,0.7,1.5,1.1,2.5,1.1c1.2,0,2.1-0.5,2.8-1.4C93.2,42.7,93.5,41.5,93.5,40z"/>
		<path class="st0" d="M113.3,39.9c0,2.4-0.7,4.4-2,5.8c-1.2,1.3-2.6,1.9-4.4,1.9c-1.9,0-3.2-0.7-4.1-2h-0.1v7.6h-3.2V37.6
			c0-1.5,0-3.1-0.1-4.7h2.8l0.2,2.3h0.1c1.1-1.7,2.7-2.6,4.8-2.6c1.7,0,3.1,0.7,4.2,2C112.7,35.9,113.3,37.7,113.3,39.9z M110,40
			c0-1.4-0.3-2.6-0.9-3.5c-0.7-0.9-1.6-1.4-2.8-1.4c-0.8,0-1.5,0.3-2.1,0.8c-0.6,0.5-1.1,1.2-1.3,2.1c-0.1,0.4-0.1,0.7-0.1,1v2.4
			c0,1,0.3,1.9,1,2.7c0.6,0.7,1.5,1.1,2.5,1.1c1.2,0,2.1-0.5,2.8-1.4C109.7,42.7,110,41.5,110,40z"/>
		<path class="st0" d="M131.7,41.7c0,1.7-0.6,3.1-1.8,4.1c-1.3,1.2-3.1,1.7-5.4,1.7c-2.1,0-3.9-0.4-5.2-1.2l0.7-2.7
			c1.4,0.8,2.9,1.3,4.6,1.3c1.2,0,2.1-0.3,2.8-0.8c0.7-0.5,1-1.3,1-2.2c0-0.8-0.3-1.5-0.8-2c-0.5-0.6-1.5-1.1-2.7-1.5
			c-3.5-1.3-5.2-3.2-5.2-5.7c0-1.6,0.6-3,1.8-4c1.2-1,2.8-1.6,4.9-1.6c1.8,0,3.3,0.3,4.5,0.9l-0.8,2.6c-1.1-0.6-2.4-0.9-3.8-0.9
			c-1.1,0-2,0.3-2.6,0.8c-0.5,0.5-0.8,1.1-0.8,1.8c0,0.8,0.3,1.4,0.9,2c0.5,0.5,1.5,1,2.9,1.5c1.7,0.7,3,1.5,3.8,2.4
			C131.3,39.1,131.7,40.3,131.7,41.7z"/>
		<path class="st0" d="M142.3,35.3h-3.5v7c0,1.8,0.6,2.7,1.9,2.7c0.6,0,1,0,1.4-0.1l0.1,2.4c-0.6,0.2-1.5,0.4-2.5,0.4
			c-1.3,0-2.2-0.4-3-1.2c-0.7-0.8-1.1-2.1-1.1-3.9v-7.3h-2.1v-2.4h2.1v-2.6l3.1-0.9v3.6h3.5L142.3,35.3z"/>
		<path class="st0" d="M158.1,39.9c0,2.2-0.6,4-1.9,5.4c-1.3,1.5-3.1,2.2-5.3,2.2c-2.1,0-3.8-0.7-5-2.1c-1.3-1.4-1.9-3.2-1.9-5.3
			c0-2.2,0.6-4.1,1.9-5.5c1.3-1.4,3-2.1,5.2-2.1c2.1,0,3.8,0.7,5.1,2.1C157.5,36,158.1,37.8,158.1,39.9z M154.8,40
			c0-1.3-0.3-2.5-0.9-3.4c-0.7-1.1-1.6-1.7-2.9-1.7c-1.3,0-2.3,0.6-2.9,1.7c-0.6,1-0.9,2.1-0.9,3.5c0,1.3,0.3,2.5,0.9,3.4
			c0.7,1.1,1.7,1.7,2.9,1.7c1.2,0,2.2-0.6,2.9-1.8C154.5,42.5,154.8,41.4,154.8,40z"/>
		<path class="st0" d="M168.5,35.7c-0.3-0.1-0.7-0.1-1-0.1c-1.1,0-2,0.4-2.6,1.3c-0.5,0.8-0.8,1.7-0.8,2.8v7.6h-3.2l0-9.9
			c0-1.7,0-3.2-0.1-4.5h2.8l0.1,2.8h0.1c0.3-0.9,0.9-1.7,1.6-2.3c0.7-0.5,1.5-0.8,2.3-0.8c0.3,0,0.6,0,0.8,0.1L168.5,35.7z"/>
		<path class="st0" d="M182.8,39.4c0,0.6,0,1.1-0.1,1.5h-9.6c0,1.4,0.5,2.5,1.4,3.3c0.8,0.7,1.8,1,3.1,1c1.4,0,2.7-0.2,3.9-0.7
			l0.5,2.2c-1.4,0.6-3,0.9-4.8,0.9c-2.2,0-4-0.7-5.2-2c-1.3-1.3-1.9-3.1-1.9-5.3c0-2.2,0.6-4,1.8-5.4c1.2-1.5,2.9-2.3,5-2.3
			c2.1,0,3.6,0.8,4.7,2.3C182.4,36.1,182.8,37.6,182.8,39.4z M179.7,38.5c0-0.9-0.2-1.8-0.6-2.5c-0.6-0.9-1.4-1.3-2.5-1.3
			c-1,0-1.9,0.4-2.5,1.3c-0.5,0.7-0.8,1.5-0.9,2.5L179.7,38.5L179.7,38.5z"/>
	</g>
	<g>
		<g>
			<path class="st0" d="M73.4,15c0,1.8-0.5,3.1-1.6,4c-1,0.8-2.4,1.2-4.2,1.2c-0.9,0-1.7,0-2.3-0.1v-9.6c0.8-0.1,1.7-0.2,2.7-0.2
				c1.7,0,3,0.4,3.9,1.1C72.9,12.2,73.4,13.4,73.4,15z M71.7,15.1c0-1.1-0.3-2-0.9-2.6c-0.6-0.6-1.5-0.9-2.6-0.9
				c-0.5,0-0.9,0-1.3,0.1v7.3c0.2,0,0.5,0,1.1,0c1.2,0,2.1-0.3,2.8-1C71.4,17.3,71.7,16.3,71.7,15.1z"/>
			<path class="st0" d="M82.2,16.6c0,1.1-0.3,2-0.9,2.7c-0.6,0.7-1.5,1.1-2.6,1.1c-1,0-1.9-0.3-2.5-1c-0.6-0.7-0.9-1.6-0.9-2.6
				c0-1.1,0.3-2,1-2.7c0.6-0.7,1.5-1,2.6-1c1,0,1.9,0.3,2.5,1C81.9,14.6,82.2,15.5,82.2,16.6z M80.5,16.6c0-0.7-0.1-1.2-0.4-1.7
				c-0.3-0.6-0.8-0.8-1.4-0.8c-0.6,0-1.1,0.3-1.4,0.8c-0.3,0.5-0.4,1-0.4,1.7c0,0.7,0.1,1.2,0.4,1.7c0.3,0.6,0.8,0.8,1.4,0.8
				c0.6,0,1.1-0.3,1.4-0.9C80.4,17.8,80.5,17.3,80.5,16.6z"/>
			<path class="st0" d="M93.9,13.1l-2.2,7.1h-1.4l-0.9-3.1c-0.2-0.8-0.4-1.5-0.6-2.3h0c-0.1,0.8-0.3,1.5-0.6,2.3l-1,3.1h-1.5
				l-2.1-7.1h1.6l0.8,3.4c0.2,0.8,0.4,1.6,0.5,2.3h0c0.1-0.6,0.3-1.3,0.6-2.3l1-3.4h1.3l1,3.3c0.2,0.8,0.4,1.6,0.6,2.3h0
				c0.1-0.7,0.3-1.5,0.5-2.3l0.9-3.3L93.9,13.1L93.9,13.1z"/>
			<path class="st0" d="M102,20.1h-1.6v-4c0-1.2-0.5-1.9-1.4-1.9c-0.5,0-0.8,0.2-1.1,0.5c-0.3,0.3-0.4,0.7-0.4,1.2v4.2h-1.6v-5
				c0-0.6,0-1.3-0.1-2h1.4l0.1,1.1h0c0.2-0.3,0.5-0.6,0.8-0.9c0.4-0.3,0.9-0.4,1.4-0.4c0.7,0,1.2,0.2,1.6,0.6
				c0.5,0.5,0.8,1.3,0.8,2.3V20.1z"/>
			<path class="st0" d="M106.4,20.1h-1.6V9.8h1.6V20.1z"/>
			<path class="st0" d="M115.6,16.6c0,1.1-0.3,2-0.9,2.7c-0.6,0.7-1.5,1.1-2.6,1.1c-1,0-1.9-0.3-2.5-1c-0.6-0.7-0.9-1.6-0.9-2.6
				c0-1.1,0.3-2,1-2.7c0.6-0.7,1.5-1,2.6-1c1,0,1.9,0.3,2.5,1C115.3,14.6,115.6,15.5,115.6,16.6z M114,16.6c0-0.7-0.1-1.2-0.4-1.7
				c-0.3-0.6-0.8-0.8-1.4-0.8c-0.6,0-1.1,0.3-1.4,0.8c-0.3,0.5-0.4,1-0.4,1.7c0,0.7,0.1,1.2,0.4,1.7c0.3,0.6,0.8,0.8,1.4,0.8
				c0.6,0,1.1-0.3,1.4-0.9C113.8,17.8,114,17.3,114,16.6z"/>
			<path class="st0" d="M123.2,20.1h-1.4l-0.1-0.8h0c-0.5,0.6-1.2,1-2.1,1c-0.7,0-1.2-0.2-1.6-0.6c-0.4-0.4-0.6-0.9-0.6-1.4
				c0-0.9,0.4-1.5,1.1-2c0.7-0.5,1.7-0.7,3-0.7v-0.1c0-0.9-0.5-1.4-1.5-1.4c-0.7,0-1.3,0.2-1.8,0.5l-0.3-1c0.7-0.4,1.5-0.6,2.4-0.6
				c1.8,0,2.8,1,2.8,2.9v2.6C123.1,19.2,123.1,19.7,123.2,20.1z M121.6,17.7v-1.1c-1.7,0-2.6,0.4-2.6,1.4c0,0.4,0.1,0.6,0.3,0.8
				c0.2,0.2,0.5,0.3,0.8,0.3c0.3,0,0.7-0.1,1-0.3c0.3-0.2,0.5-0.5,0.5-0.8C121.6,17.9,121.6,17.8,121.6,17.7z"/>
			<path class="st0" d="M132.1,20.1h-1.4l-0.1-1.1h0c-0.4,0.9-1.2,1.3-2.3,1.3c-0.8,0-1.6-0.3-2.1-1c-0.6-0.7-0.8-1.5-0.8-2.6
				c0-1.1,0.3-2.1,0.9-2.8c0.6-0.7,1.3-1,2.2-1c0.9,0,1.6,0.3,2,1h0V9.8h1.6v8.4C132,18.9,132.1,19.6,132.1,20.1z M130.5,17.2V16
				c0-0.2,0-0.4,0-0.5c-0.1-0.4-0.3-0.7-0.6-1c-0.3-0.3-0.6-0.4-1-0.4c-0.6,0-1,0.2-1.4,0.7c-0.3,0.5-0.5,1.1-0.5,1.8
				c0,0.7,0.2,1.3,0.5,1.7c0.3,0.5,0.8,0.7,1.4,0.7c0.5,0,0.9-0.2,1.2-0.6C130.3,18.1,130.5,17.7,130.5,17.2z"/>
			<path class="st0" d="M145.5,16.6c0,1.1-0.3,2-0.9,2.7c-0.6,0.7-1.5,1.1-2.6,1.1c-1,0-1.9-0.3-2.5-1c-0.6-0.7-0.9-1.6-0.9-2.6
				c0-1.1,0.3-2,1-2.7c0.6-0.7,1.5-1,2.6-1c1,0,1.9,0.3,2.5,1C145.2,14.6,145.5,15.5,145.5,16.6z M143.9,16.6c0-0.7-0.1-1.2-0.4-1.7
				c-0.3-0.6-0.8-0.8-1.4-0.8c-0.6,0-1.1,0.3-1.4,0.8c-0.3,0.5-0.4,1-0.4,1.7c0,0.7,0.1,1.2,0.4,1.7c0.3,0.6,0.8,0.8,1.4,0.8
				c0.6,0,1.1-0.3,1.4-0.9C143.7,17.8,143.9,17.3,143.9,16.6z"/>
			<path class="st0" d="M153.9,20.1h-1.6v-4c0-1.2-0.5-1.9-1.4-1.9c-0.5,0-0.8,0.2-1.1,0.5c-0.3,0.3-0.4,0.7-0.4,1.2v4.2h-1.6v-5
				c0-0.6,0-1.3-0.1-2h1.4l0.1,1.1h0c0.2-0.3,0.5-0.6,0.8-0.9c0.4-0.3,0.9-0.4,1.4-0.4c0.7,0,1.2,0.2,1.6,0.6
				c0.5,0.5,0.8,1.3,0.8,2.3V20.1z"/>
			<path class="st0" d="M164.5,14.3h-1.7v3.4c0,0.9,0.3,1.3,0.9,1.3c0.3,0,0.5,0,0.7-0.1l0,1.2c-0.3,0.1-0.7,0.2-1.2,0.2
				c-0.6,0-1.1-0.2-1.4-0.6c-0.4-0.4-0.5-1-0.5-1.9v-3.6h-1v-1.2h1v-1.3l1.5-0.5v1.8h1.7L164.5,14.3L164.5,14.3z"/>
			<path class="st0" d="M172.8,20.1h-1.6v-4c0-1.3-0.5-1.9-1.4-1.9c-0.7,0-1.2,0.4-1.5,1.1c0,0.2-0.1,0.3-0.1,0.6v4.3h-1.6V9.8h1.6
				v4.3h0c0.5-0.8,1.2-1.2,2.1-1.2c0.6,0,1.2,0.2,1.6,0.6c0.5,0.5,0.8,1.3,0.8,2.4V20.1z"/>
			<path class="st0" d="M181.4,16.3c0,0.3,0,0.5-0.1,0.7h-4.7c0,0.7,0.2,1.2,0.7,1.6c0.4,0.3,0.9,0.5,1.5,0.5c0.7,0,1.3-0.1,1.9-0.3
				l0.2,1.1c-0.7,0.3-1.5,0.4-2.4,0.4c-1.1,0-2-0.3-2.6-1c-0.6-0.6-0.9-1.5-0.9-2.6c0-1.1,0.3-2,0.9-2.7c0.6-0.8,1.4-1.1,2.5-1.1
				c1,0,1.8,0.4,2.3,1.1C181.2,14.7,181.4,15.4,181.4,16.3z M179.9,15.9c0-0.5-0.1-0.9-0.3-1.2c-0.3-0.4-0.7-0.7-1.2-0.7
				c-0.5,0-0.9,0.2-1.2,0.6c-0.3,0.3-0.4,0.7-0.5,1.2L179.9,15.9z"/>
		</g>
	</g>
</g>
</svg>
