<?xml version="1.0" encoding="utf-8"?>
<!-- Generator: Adobe Illustrator 19.2.1, SVG Export Plug-In . SVG Version: 6.00 Build 0)  -->
<svg version="1.1" id="Layer_1" xmlns="http://www.w3.org/2000/svg" xmlns:xlink="http://www.w3.org/1999/xlink" x="0px" y="0px"
	 width="164px" height="74px" viewBox="0 0 164 74" style="enable-background:new 0 0 164 74;" xml:space="preserve">
<style type="text/css">
	.st0{fill:#FFFFFF;}
	.st1{fill:url(#SVGID_1_);}
</style>
<g>
	<g>
		<path class="st0" d="M87.5,25.1c0,0.1,0.1,0.2,0.2,0.2h1.1c0.1,0,0.2-0.1,0.2-0.2v-6.5l4.8-9.5c0-0.1,0-0.2,0-0.2
			c0-0.1-0.1-0.1-0.2-0.1h-1.1c-0.1,0-0.2,0-0.2,0.1l-2.4,5c-0.3,0.6-0.5,1.2-0.8,1.7c-0.2,0.5-0.5,1-0.8,1.4
			c-0.3-0.5-0.5-1-0.7-1.4L84.3,9c0-0.1-0.1-0.1-0.2-0.1h-1.2c-0.1,0-0.2,0-0.2,0.1c0,0.1,0,0.1,0,0.2l4.8,9.5V25.1z"/>
		<path class="st0" d="M104.1,25c0.8-0.4,1.6-1,2.2-1.8c0.6-0.7,1.1-1.7,1.4-2.7c0.3-1,0.5-2.2,0.5-3.5s-0.2-2.5-0.5-3.5
			c-0.3-1-0.8-1.9-1.4-2.7c-0.6-0.7-1.3-1.3-2.2-1.7c-0.8-0.4-1.8-0.6-2.8-0.6c-1,0-1.9,0.2-2.7,0.6c-0.8,0.4-1.6,1-2.2,1.7
			c-0.6,0.7-1.1,1.6-1.4,2.7c-0.3,1-0.5,2.2-0.5,3.5s0.2,2.5,0.5,3.5c0.3,1.1,0.8,2,1.4,2.7c0.6,0.8,1.3,1.3,2.2,1.8
			c0.8,0.4,1.8,0.6,2.7,0.6C102.4,25.6,103.3,25.4,104.1,25z M101.4,10c0.8,0,1.5,0.2,2.1,0.5c0.6,0.3,1.2,0.8,1.6,1.4
			c0.5,0.6,0.8,1.3,1.1,2.2c0.3,0.9,0.4,1.9,0.4,2.9c0,1.1-0.1,2.1-0.4,3c-0.3,0.9-0.6,1.6-1.1,2.2c-0.5,0.6-1,1.1-1.6,1.4
			c-0.6,0.3-1.3,0.5-2.1,0.5c-0.8,0-1.5-0.2-2.1-0.5c-0.6-0.3-1.2-0.8-1.6-1.4c-0.5-0.6-0.8-1.4-1.1-2.2c-0.3-0.9-0.4-1.9-0.4-3
			c0-1.1,0.1-2.1,0.4-2.9c0.3-0.9,0.6-1.6,1.1-2.2c0.4-0.6,1-1.1,1.6-1.4C99.9,10.2,100.6,10,101.4,10z"/>
		<path class="st0" d="M119,25.3c0.7-0.2,1.3-0.6,1.8-1.1c0.5-0.5,0.9-1.2,1.3-2.1c0.3-0.9,0.5-1.9,0.5-3.2V9.1
			c0-0.1-0.1-0.2-0.2-0.2h-1c-0.1,0-0.2,0.1-0.2,0.2v9.8c0,1-0.1,1.9-0.4,2.6c-0.2,0.7-0.5,1.2-0.9,1.6c-0.4,0.4-0.8,0.7-1.3,0.9
			c-1,0.3-2.2,0.3-3.1,0c-0.5-0.2-0.9-0.5-1.3-0.9c-0.4-0.4-0.7-1-0.9-1.6c-0.2-0.7-0.3-1.6-0.3-2.6V9.1c0-0.1-0.1-0.2-0.2-0.2h-1.1
			c-0.1,0-0.2,0.1-0.2,0.2V19c0,1.3,0.2,2.3,0.5,3.2c0.3,0.9,0.7,1.6,1.3,2.1c0.5,0.5,1.1,0.9,1.8,1.1c0.7,0.2,1.4,0.3,2.1,0.3
			C117.7,25.6,118.4,25.5,119,25.3z"/>
		<path class="st0" d="M128.4,25.1V18h3l4.3,7.3c0,0.1,0.1,0.1,0.2,0.1h1.3c0.1,0,0.2,0,0.2-0.1c0-0.1,0-0.2,0-0.2l-4.2-7.2
			c1.2-0.2,2.1-0.7,2.8-1.4c0.8-0.8,1.2-1.8,1.2-3.2c0-0.8-0.1-1.5-0.4-2c-0.3-0.6-0.6-1-1.1-1.4c-0.5-0.4-1.1-0.6-1.7-0.8
			c-0.7-0.2-1.4-0.2-2.2-0.2H127c-0.1,0-0.2,0.1-0.2,0.2v16.1c0,0.1,0.1,0.2,0.2,0.2h1.1C128.3,25.4,128.4,25.3,128.4,25.1z
			 M131.3,10.2c1.4,0,2.4,0.2,3.1,0.7c0.7,0.5,1,1.2,1,2.4c0,1.1-0.3,1.9-1,2.5c-0.7,0.5-1.8,0.8-3.1,0.8h-3v-6.3H131.3z"/>
		<path class="st0" d="M95.9,33.2h-1.1c-0.1,0-0.2,0.1-0.2,0.2v9.8c0,0.8,0,1.6,0,2.3l0.1,1.6l-1.4-2.6l-6.8-11.3
			c0-0.1-0.1-0.1-0.2-0.1h-1.2c-0.1,0-0.2,0.1-0.2,0.2v16.1c0,0.1,0.1,0.2,0.2,0.2h1.1c0.1,0,0.2-0.1,0.2-0.2v-10c0-0.8,0-1.5,0-2.3
			c0-0.5,0-1-0.1-1.5l1.4,2.6l6.8,11.3c0,0.1,0.1,0.1,0.2,0.1h1.2c0.1,0,0.2-0.1,0.2-0.2V33.4C96.2,33.3,96.1,33.2,95.9,33.2z"/>
		<path class="st0" d="M111.4,33.2h-1c-0.1,0-0.2,0.1-0.2,0.2v9.8c0,1-0.1,1.9-0.4,2.6c-0.2,0.7-0.5,1.2-0.9,1.6
			c-0.4,0.4-0.8,0.7-1.3,0.9c-1,0.3-2.2,0.3-3.1,0c-0.5-0.2-0.9-0.5-1.3-0.9c-0.4-0.4-0.7-1-0.9-1.6c-0.2-0.7-0.3-1.6-0.3-2.6v-9.8
			c0-0.1-0.1-0.2-0.2-0.2h-1.1c-0.1,0-0.2,0.1-0.2,0.2v9.9c0,1.3,0.2,2.3,0.5,3.2c0.3,0.9,0.7,1.6,1.3,2.1c0.5,0.5,1.1,0.9,1.8,1.1
			c0.7,0.2,1.4,0.3,2.1,0.3c0.7,0,1.4-0.1,2.1-0.3c0.7-0.2,1.3-0.6,1.8-1.1c0.5-0.5,0.9-1.2,1.3-2.1c0.3-0.8,0.5-1.9,0.5-3.2v-9.9
			C111.6,33.3,111.5,33.2,111.4,33.2z"/>
		<path class="st0" d="M122.1,42.2c1.2-0.2,2.1-0.7,2.8-1.4c0.8-0.8,1.2-1.8,1.2-3.2c0-0.8-0.1-1.5-0.4-2c-0.3-0.6-0.6-1-1.1-1.4
			c-0.5-0.4-1.1-0.6-1.7-0.8c-0.7-0.2-1.4-0.2-2.2-0.2h-4.6c-0.1,0-0.2,0.1-0.2,0.2v16.1c0,0.1,0.1,0.2,0.2,0.2h1.1
			c0.1,0,0.2-0.1,0.2-0.2v-7.2h3l4.3,7.3c0,0.1,0.1,0.1,0.2,0.1h1.3c0.1,0,0.2,0,0.2-0.1c0-0.1,0-0.2,0-0.2L122.1,42.2z M117.4,34.6
			h3c1.4,0,2.4,0.2,3.1,0.7c0.7,0.5,1,1.2,1,2.4c0,1.1-0.3,1.9-1,2.5c-0.7,0.5-1.8,0.8-3.1,0.8h-3V34.6z"/>
		<path class="st0" d="M137.8,42.6c-0.3-0.3-0.7-0.6-1.1-0.9c-0.4-0.2-0.9-0.5-1.3-0.7l-2.4-1.1c-0.3-0.1-0.6-0.3-0.9-0.4
			c-0.3-0.2-0.6-0.4-0.9-0.6c-0.3-0.2-0.5-0.5-0.6-0.8c-0.2-0.3-0.2-0.7-0.2-1.1c0-0.8,0.3-1.4,0.9-1.9c0.6-0.5,1.4-0.7,2.4-0.7
			c0.8,0,1.5,0.1,2.1,0.4c0.6,0.3,1.1,0.7,1.6,1.2c0,0,0.1,0.1,0.2,0.1c0.1,0,0.1,0,0.2-0.1l0.6-0.8c0.1-0.1,0.1-0.2,0-0.3
			c-0.5-0.5-1.1-1-1.9-1.4c-0.8-0.4-1.7-0.6-2.7-0.6c-0.7,0-1.3,0.1-1.9,0.3c-0.6,0.2-1.1,0.5-1.6,0.9c-0.4,0.4-0.8,0.8-1,1.3
			c-0.2,0.5-0.4,1.1-0.4,1.7c0,0.6,0.1,1.2,0.3,1.6c0.2,0.4,0.5,0.8,0.8,1.2c0.3,0.3,0.7,0.6,1.1,0.8c0.4,0.2,0.8,0.4,1.1,0.5
			l2.4,1.1c0.4,0.2,0.7,0.4,1.1,0.5c0.3,0.2,0.6,0.4,0.9,0.6c0.2,0.2,0.4,0.5,0.6,0.8c0.1,0.3,0.2,0.7,0.2,1.2c0,0.9-0.3,1.6-1,2.2
			c-0.7,0.6-1.6,0.8-2.8,0.8c-0.9,0-1.7-0.2-2.5-0.6c-0.8-0.4-1.5-0.9-2-1.5c0,0-0.1-0.1-0.2-0.1c0,0-0.1,0-0.2,0.1l-0.7,0.8
			c-0.1,0.1-0.1,0.2,0,0.3c0.6,0.7,1.4,1.3,2.4,1.8c0.9,0.5,2,0.7,3.2,0.7c0.8,0,1.5-0.1,2.2-0.3c0.7-0.2,1.2-0.5,1.7-0.9
			c0.5-0.4,0.8-0.9,1.1-1.4c0.3-0.6,0.4-1.2,0.4-1.8c0-0.6-0.1-1.2-0.3-1.7C138.3,43.3,138.1,42.9,137.8,42.6z"/>
		<path class="st0" d="M151,48.3h-7.7v-6.6h6.2c0.1,0,0.2-0.1,0.2-0.2v-1c0-0.1-0.1-0.2-0.2-0.2h-6.2v-5.6h7.4
			c0.1,0,0.2-0.1,0.2-0.2v-1c0-0.1-0.1-0.2-0.2-0.2H142c-0.1,0-0.2,0.1-0.2,0.2v16.1c0,0.1,0.1,0.2,0.2,0.2h9c0.1,0,0.2-0.1,0.2-0.2
			v-1C151.2,48.4,151.1,48.3,151,48.3z"/>
		<path class="st0" d="M163.7,43.8c-0.2-0.5-0.5-0.9-0.8-1.2c-0.3-0.3-0.7-0.6-1.1-0.9c-0.4-0.2-0.9-0.5-1.3-0.7l-2.4-1.1
			c-0.3-0.1-0.6-0.3-0.9-0.4c-0.3-0.2-0.6-0.4-0.9-0.6c-0.3-0.2-0.5-0.5-0.6-0.8c-0.2-0.3-0.2-0.7-0.2-1.1c0-0.8,0.3-1.4,0.9-1.9
			c0.6-0.5,1.4-0.7,2.4-0.7c0.8,0,1.5,0.1,2.1,0.4c0.6,0.3,1.1,0.7,1.6,1.2c0,0,0.1,0.1,0.2,0.1c0.1,0,0.1,0,0.2-0.1l0.6-0.8
			c0.1-0.1,0.1-0.2,0-0.3c-0.5-0.5-1.1-1-1.9-1.4c-0.8-0.4-1.7-0.6-2.7-0.6c-0.7,0-1.3,0.1-1.9,0.3c-0.6,0.2-1.1,0.5-1.6,0.9
			c-0.4,0.4-0.8,0.8-1,1.3c-0.2,0.5-0.4,1.1-0.4,1.7c0,0.6,0.1,1.2,0.3,1.6c0.2,0.4,0.5,0.8,0.8,1.2c0.3,0.3,0.7,0.6,1.1,0.8
			c0.4,0.2,0.8,0.4,1.1,0.5l2.4,1.1c0.4,0.2,0.7,0.4,1.1,0.5c0.3,0.2,0.6,0.4,0.9,0.6c0.2,0.2,0.4,0.5,0.6,0.8
			c0.1,0.3,0.2,0.7,0.2,1.2c0,0.9-0.3,1.6-1,2.2c-0.7,0.6-1.6,0.8-2.8,0.8c-0.9,0-1.7-0.2-2.5-0.6c-0.8-0.4-1.5-0.9-2-1.5
			c0,0-0.1-0.1-0.2-0.1c-0.1,0-0.1,0-0.2,0.1l-0.7,0.8c-0.1,0.1-0.1,0.2,0,0.3c0.6,0.7,1.4,1.3,2.4,1.8c0.9,0.5,2,0.7,3.2,0.7
			c0.8,0,1.5-0.1,2.2-0.3c0.7-0.2,1.2-0.5,1.7-0.9c0.5-0.4,0.8-0.9,1.1-1.4c0.3-0.6,0.4-1.2,0.4-1.8C164,44.8,163.9,44.3,163.7,43.8
			z"/>
	</g>
	<path class="st0" d="M71.2,56c-0.7,0-1.3-0.6-1.3-1.4V5c0-0.7,0.6-1.4,1.3-1.4c0.7,0,1.3,0.6,1.3,1.4v49.6
		C72.5,55.3,71.9,56,71.2,56z"/>
	<path class="st0" d="M45.9,0H13.5C6.1,0,0,6.1,0,13.5V46c0,7.5,6.1,13.5,13.5,13.5h6.9c0,0,0,0,0,0c0,0,0.1,0,0.1,0
		c0.1,0,0.1,0,0.2,0h0c0,0,0.1,0,0.1,0c0.1,0,0.1,0,0.2,0c0.1,0,0.1-0.1,0.2-0.1c0.1,0,0.1,0,0.2-0.1c0,0,0,0,0.1,0
		c0.1,0,0.1-0.1,0.2-0.2c0,0,0,0,0.1,0c0.1-0.1,0.2-0.2,0.3-0.3c0,0,0,0,0,0l8.8-13.9c2.4-0.3,4.2-1.4,5.4-3.6l8.3-13.8
		c1.1-2,1.3-4.4,0.4-6.5c-0.8-2.1-2.5-3.7-4.7-4.3c-0.1,0-0.2,0-0.3-0.1c-0.5-1.2-1.7-2-3.1-2c-1.9,0-3.4,1.5-3.4,3.4
		c0,1.9,1.5,3.4,3.4,3.4c1,0,1.9-0.4,2.5-1.1c1,0.4,1.8,1.1,2.1,2.1c0.4,1.1,0.4,2.3-0.2,3.3L33,39.4c-0.6,1.1-1.4,1.8-3.4,1.8
		c-1.9,0-2.7-0.7-3.4-1.9l-8.2-13.7c-0.6-1-0.7-2.3-0.2-3.4c0.4-1,1.2-1.7,2.1-2.1c0.6,0.7,1.5,1.1,2.5,1.1c1.9,0,3.4-1.5,3.4-3.4
		c0-1.9-1.5-3.4-3.4-3.4c-1.4,0-2.5,0.8-3.1,2c-0.1,0-0.2,0-0.3,0.1c-2.1,0.7-3.8,2.2-4.7,4.3c-0.8,2.1-0.7,4.5,0.5,6.5l8.2,13.7
		c0.9,1.6,2,2.6,3.5,3.2l-6.3,10L9.1,36.2c-4-6.3-4.3-13.7-0.8-20.3c3.9-7.4,11.6-12,20.5-12.3c0.6,0,1.2,0,1.8,0
		c8.9,0.3,16.6,4.9,20.5,12.3c3.5,6.6,3.2,14-0.8,20.3L35.6,59.5h0l-5.9,9.3l-3-4.8c-0.5-0.8-1.6-1.1-2.5-0.6
		c-0.8,0.5-1.1,1.6-0.6,2.5l4.6,7.2c0.3,0.5,0.9,0.8,1.5,0.8s1.2-0.3,1.5-0.8l8.6-13.6h6.1c7.4,0,13.5-6.1,13.5-13.5V13.5
		C59.4,6.1,53.3,0,45.9,0z"/>
	<linearGradient id="SVGID_1_" gradientUnits="userSpaceOnUse" x1="47.4605" y1="59.6928" x2="47.4605" y2="10.9649">
		<stop  offset="0" style="stop-color:#FFFFFF;stop-opacity:0"/>
		<stop  offset="9.245360e-002" style="stop-color:#F6F7F7;stop-opacity:9.245360e-002"/>
		<stop  offset="0.3065" style="stop-color:#E8E9EA;stop-opacity:0.3065"/>
		<stop  offset="0.5669" style="stop-color:#E0E1E2;stop-opacity:0.5669"/>
		<stop  offset="1" style="stop-color:#DDDFE0"/>
	</linearGradient>
	<path class="st1" d="M47.5,10.8C47.5,10.8,47.5,10.8,47.5,10.8c1.4,1.5,2.7,3.2,3.7,5.1c3.5,6.6,3.2,14-0.8,20.3L35.6,59.5h10.3
		c7.5,0,13.5-6.1,13.5-13.5V23.8L47.5,10.8z"/>
</g>
</svg>
