<?xml version="1.0" encoding="utf-8"?>
<!-- Generator: Adobe Illustrator 21.1.0, SVG Export Plug-In . SVG Version: 6.00 Build 0)  -->
<svg version="1.1" id="Layer_1" xmlns="http://www.w3.org/2000/svg" xmlns:xlink="http://www.w3.org/1999/xlink" x="0px" y="0px"
	 viewBox="0 0 120 120" style="enable-background:new 0 0 120 120;" xml:space="preserve">
<style type="text/css">
	.st0{clip-path:url(#SVGID_2_);}
	.st1{clip-path:url(#SVGID_4_);fill:url(#SVGID_5_);}
	.st2{filter:url(#Adobe_OpacityMaskFilter);}
	.st3{clip-path:url(#SVGID_7_);fill:url(#SVGID_9_);}
	.st4{clip-path:url(#SVGID_7_);mask:url(#SVGID_8_);fill:url(#SVGID_10_);}
	.st5{clip-path:url(#SVGID_12_);fill:#FFFFFF;}
	.st6{clip-path:url(#SVGID_14_);fill:url(#SVGID_15_);}
</style>
<g>
	<defs>
		<rect id="SVGID_1_" width="120" height="120"/>
	</defs>
	<clipPath id="SVGID_2_">
		<use xlink:href="#SVGID_1_"  style="overflow:visible;"/>
	</clipPath>
	<g class="st0">
		<defs>
			<path id="SVGID_3_" d="M27,0C12.1,0,0,12.1,0,27v66c0,14.9,12.1,27,27,27h66c14.9,0,27-12.1,27-27V27c0-14.9-12.1-27-27-27H27z"
				/>
		</defs>
		<clipPath id="SVGID_4_">
			<use xlink:href="#SVGID_3_"  style="overflow:visible;"/>
		</clipPath>
		
			<linearGradient id="SVGID_5_" gradientUnits="userSpaceOnUse" x1="0" y1="120" x2="1" y2="120" gradientTransform="matrix(0 120 120 0 -14340 0)">
			<stop  offset="0" style="stop-color:#389CD6"/>
			<stop  offset="1" style="stop-color:#37BBD7"/>
		</linearGradient>
		<rect class="st1" width="120" height="120"/>
	</g>
	<g class="st0">
		<defs>
			<path id="SVGID_6_" d="M77.8,23.4L59,42.2l1.1,61.9l0,2L74,120h19c7.2,0,13.8-2.9,18.7-7.5l0.9-0.9c4.6-4.8,7.5-11.4,7.5-18.7
				V58.8L84.6,23.4c-0.9-0.9-2.2-1.4-3.4-1.4C80,22,78.8,22.5,77.8,23.4"/>
		</defs>
		<clipPath id="SVGID_7_">
			<use xlink:href="#SVGID_6_"  style="overflow:visible;"/>
		</clipPath>
		<defs>
			<filter id="Adobe_OpacityMaskFilter" filterUnits="userSpaceOnUse" x="10" y="-8.5" width="159" height="159">
				<feColorMatrix  type="matrix" values="1 0 0 0 0  0 1 0 0 0  0 0 1 0 0  0 0 0 1 0"/>
			</filter>
		</defs>
		<mask maskUnits="userSpaceOnUse" x="10" y="-8.5" width="159" height="159" id="SVGID_8_">
			<g class="st2">
				
					<linearGradient id="SVGID_9_" gradientUnits="userSpaceOnUse" x1="0" y1="120.0614" x2="1" y2="120.0614" gradientTransform="matrix(88.9254 88.9254 88.9254 -88.9254 -10626.29 10708.2119)">
					<stop  offset="0" style="stop-color:#404040"/>
					<stop  offset="0.8" style="stop-color:#000000"/>
					<stop  offset="1" style="stop-color:#000000"/>
				</linearGradient>
				<polygon class="st3" points="89.5,-8.5 169,71 89.5,150.5 10,71 				"/>
			</g>
		</mask>
		
			<linearGradient id="SVGID_10_" gradientUnits="userSpaceOnUse" x1="0" y1="120.0614" x2="1" y2="120.0614" gradientTransform="matrix(88.9254 88.9254 88.9254 -88.9254 -10626.29 10708.2119)">
			<stop  offset="0" style="stop-color:#000000"/>
			<stop  offset="0.8" style="stop-color:#FFFFFF"/>
			<stop  offset="1" style="stop-color:#FFFFFF"/>
		</linearGradient>
		<polygon class="st4" points="89.5,-8.5 169,71 89.5,150.5 10,71 		"/>
	</g>
	<g class="st0">
		<defs>
			<rect id="SVGID_11_" width="120" height="120"/>
		</defs>
		<clipPath id="SVGID_12_">
			<use xlink:href="#SVGID_11_"  style="overflow:visible;"/>
		</clipPath>
		<path class="st5" d="M61.3,14c-0.9,0-1.7,0-2.6,0C45.9,14.4,35,20.9,29.4,31.3c-5,9.3-4.5,19.8,1.2,28.7L60,106l29.4-46
			c5.7-8.9,6.1-19.4,1.2-28.7C85,20.9,74.1,14.4,61.3,14"/>
	</g>
	<g class="st0">
		<defs>
			<path id="SVGID_13_" d="M65.1,35.7c0,2.5,2,4.5,4.5,4.5c1.3,0,2.5-0.6,3.4-1.5c1.3,0.5,2.3,1.5,2.8,2.8c0.6,1.5,0.5,3.1-0.3,4.4
				L64.5,64c-0.8,1.4-1.9,2.4-4.5,2.4s-3.6-1-4.5-2.5l-11-18.1c-0.8-1.4-0.9-3-0.3-4.5c0.5-1.3,1.6-2.3,2.8-2.8
				c0.8,0.9,2,1.5,3.4,1.5c2.5,0,4.5-2,4.5-4.5s-2-4.5-4.5-4.5c-1.8,0-3.4,1.1-4.1,2.6c-0.1,0-0.2,0.1-0.4,0.1
				c-2.8,0.9-5.1,2.9-6.2,5.7c-1.1,2.8-0.9,5.9,0.6,8.6l11,18.1c1.2,2,2.7,3.4,4.7,4.2l-9.3,14.7l2.8,4.4l11.8-18.6
				c3.2-0.3,5.6-1.9,7.2-4.7l11-18.2c1.5-2.6,1.7-5.7,0.6-8.6c-1.1-2.8-3.4-4.8-6.2-5.7c-0.1,0-0.2-0.1-0.3-0.1
				c-0.7-1.5-2.3-2.6-4.1-2.6C67.1,31.2,65.1,33.2,65.1,35.7"/>
		</defs>
		<clipPath id="SVGID_14_">
			<use xlink:href="#SVGID_13_"  style="overflow:visible;"/>
		</clipPath>
		
			<linearGradient id="SVGID_15_" gradientUnits="userSpaceOnUse" x1="-7.814756e-06" y1="120" x2="1" y2="120" gradientTransform="matrix(0 63.4582 63.4582 0 -7554.9888 31.1965)">
			<stop  offset="0" style="stop-color:#37BBD7"/>
			<stop  offset="1" style="stop-color:#389CD6"/>
		</linearGradient>
		<rect x="38.7" y="31.2" class="st6" width="42.7" height="58.5"/>
	</g>
</g>
</svg>
