<?xml version="1.0" encoding="utf-8"?>
<!-- Generator: Adobe Illustrator 21.1.0, SVG Export Plug-In . SVG Version: 6.00 Build 0)  -->
<svg version="1.1" id="Layer_1" xmlns="http://www.w3.org/2000/svg" xmlns:xlink="http://www.w3.org/1999/xlink" x="0px" y="0px"
	 viewBox="0 0 50.5 64.5" style="enable-background:new 0 0 50.5 64.5;" xml:space="preserve">
<style type="text/css">
	.st0{opacity:0.3;}
	.st1{fill:none;stroke:#39BBD7;stroke-width:2;stroke-linecap:round;stroke-linejoin:round;stroke-miterlimit:10;}
</style>
<g>
	<g class="st0">
		<g>
			<path class="st1" d="M17.2,49.3h-6.1c-5.2,0-9.4-4.2-9.4-9.4V12.1c0-5.2,4.2-9.4,9.4-9.4h27.8c5.2,0,9.4,4.2,9.4,9.4v27.8
				c0,5.2-4.2,9.4-9.4,9.4h-6.3"/>
		</g>
		<g>
			<g>
				<path class="st1" d="M25,37L25,37c-2.1,0-3.3-0.9-4.1-2.3L14,23.2l0,0c-1.5-2.6-0.2-6,2.7-6.8c0.1,0,0.2-0.1,0.3-0.1"/>
				<circle class="st1" cx="19" cy="16.1" r="1.9"/>
				<path class="st1" d="M25,37L25,37c2.1,0,3.3-0.9,4.1-2.3L36,23.2l0,0c1.5-2.6,0.2-6-2.7-6.8c-0.1,0-0.2-0.1-0.3-0.1"/>
				<circle class="st1" cx="31" cy="16.1" r="1.9"/>
			</g>
			<path class="st1" d="M17.2,49.3L6.5,32.2C-1.6,19.4,8,3.2,24.2,2.7c0.3,0,0.5,0,0.8,0h0c0.3,0,0.5,0,0.8,0
				C42,3.2,51.6,19.4,43.5,32.2L25,61.3l-3.8-6"/>
			<line class="st1" x1="25" y1="37" x2="17.2" y2="49.3"/>
		</g>
	</g>
</g>
</svg>
