<?xml version="1.0" encoding="utf-8"?>
<!-- Generator: Adobe Illustrator 21.1.0, SVG Export Plug-In . SVG Version: 6.00 Build 0)  -->
<svg version="1.1" id="Layer_1" xmlns="http://www.w3.org/2000/svg" xmlns:xlink="http://www.w3.org/1999/xlink" x="0px" y="0px"
	 viewBox="0 0 132 60" style="enable-background:new 0 0 132 60;" xml:space="preserve">
<style type="text/css">
	.st0{fill:#38BBD7;}
	.st1{fill:#8D9FA0;}
	.st2{fill:url(#Path_11_1_);}
	.st3{fill:url(#Path_12_1_);}
	.st4{fill:url(#Path_13_1_);}
</style>
<g id="Logo" transform="translate(-254 9)">
	<g id="Group_3" transform="translate(44.368 4.634)">
		<g id="Group_1">
			<path id="Path_1" class="st0" d="M285-6.5h-0.9c-0.1,0-0.1,0-0.2,0.1l-2,4.1c-0.2,0.5-0.4,1-0.7,1.4c-0.2,0.4-0.4,0.8-0.6,1.2
				c-0.2-0.4-0.4-0.8-0.6-1.2l-2.6-5.5c0-0.1-0.1-0.1-0.2-0.1h-0.9c-0.1,0-0.1,0-0.2,0.1c0,0.1,0,0.1,0,0.2l3.8,7.7v5.2
				c0,0.1,0.1,0.2,0.2,0.2c0,0,0,0,0,0h0.9c0.1,0,0.2-0.1,0.2-0.2c0,0,0,0,0,0V1.5l3.8-7.7c0-0.1,0-0.1,0-0.2
				C285.1-6.4,285-6.5,285-6.5z"/>
			<path id="Path_2" class="st0" d="M295.2-4.8c-0.5-0.6-1.1-1.1-1.7-1.4c-1.4-0.6-3-0.6-4.5,0c-0.7,0.3-1.3,0.8-1.7,1.4
				c-0.5,0.6-0.9,1.4-1.1,2.2c-0.3,0.9-0.4,1.9-0.4,2.8c0,1,0.1,1.9,0.4,2.8c0.2,0.8,0.6,1.5,1.1,2.2c0.9,1.2,2.4,1.9,3.9,1.9
				c0.8,0,1.5-0.2,2.3-0.5c0.7-0.3,1.3-0.8,1.7-1.4c0.5-0.7,0.9-1.4,1.1-2.2c0.3-0.9,0.4-1.9,0.4-2.8c0-1-0.1-1.9-0.4-2.8
				C296.1-3.4,295.7-4.2,295.2-4.8z M291.2,6c-0.6,0-1.2-0.1-1.7-0.4c-0.5-0.3-1-0.7-1.3-1.1c-0.4-0.6-0.7-1.2-0.9-1.8
				C287.1,1.8,287,1,287,0.2c0-0.8,0.1-1.6,0.3-2.4c0.2-0.6,0.5-1.3,0.8-1.8c0.3-0.5,0.8-0.9,1.3-1.1c1.1-0.5,2.3-0.5,3.4,0
				c0.5,0.3,1,0.7,1.3,1.1c0.4,0.5,0.7,1.2,0.9,1.8c0.2,0.8,0.3,1.6,0.3,2.4c0,0.8-0.1,1.6-0.3,2.4c-0.2,0.7-0.5,1.3-0.9,1.8
				C293.5,5.4,292.4,6,291.2,6L291.2,6z"/>
			<path id="Path_3" class="st0" d="M308.1-6.5h-0.8c-0.1,0-0.2,0.1-0.2,0.2c0,0,0,0,0,0v7.9c0,0.7-0.1,1.4-0.3,2.1
				c-0.2,0.5-0.4,0.9-0.7,1.3c-0.3,0.3-0.6,0.6-1.1,0.7c-0.8,0.3-1.7,0.3-2.5,0c-0.4-0.1-0.7-0.4-1-0.7c-0.3-0.4-0.6-0.8-0.7-1.3
				c-0.2-0.7-0.3-1.4-0.3-2.1v-7.9c0-0.1-0.1-0.2-0.2-0.2c0,0,0,0,0,0h-0.9c-0.1,0-0.2,0.1-0.2,0.2c0,0,0,0,0,0v8
				c0,0.9,0.1,1.8,0.4,2.6c0.2,0.6,0.6,1.2,1,1.7c0.4,0.4,0.9,0.7,1.4,0.9c1.1,0.3,2.2,0.3,3.3,0c0.5-0.2,1-0.5,1.4-0.9
				c0.5-0.5,0.8-1.1,1-1.7c0.3-0.8,0.4-1.7,0.4-2.6v-8C308.3-6.4,308.2-6.5,308.1-6.5z"/>
			<path id="Path_4" class="st0" d="M320.2,6.6l-3.4-5.8c0.8-0.1,1.6-0.5,2.3-1.1c0.7-0.7,1-1.6,0.9-2.6c0-0.6-0.1-1.1-0.3-1.6
				c-0.2-0.5-0.5-0.8-0.9-1.1c-0.4-0.3-0.9-0.5-1.4-0.6c-0.6-0.1-1.2-0.2-1.8-0.2h-3.7c-0.1,0-0.2,0.1-0.2,0.2c0,0,0,0,0,0v13
				c0,0.1,0.1,0.2,0.2,0.2c0,0,0,0,0,0h0.9c0.1,0,0.2-0.1,0.2-0.2c0,0,0,0,0,0V0.9h2.5l3.4,5.9c0,0.1,0.1,0.1,0.2,0.1h1.1
				c0.1,0,0.1,0,0.1-0.1S320.2,6.7,320.2,6.6z M312.9-5.3h2.4c0.9-0.1,1.8,0.1,2.5,0.6c0.6,0.4,0.9,1.2,0.8,1.9
				c0.1,0.8-0.3,1.5-0.8,2c-0.8,0.5-1.6,0.7-2.5,0.7h-2.4V-5.3z"/>
		</g>
		<g id="Group_2" transform="translate(1.224 13.146)">
			<path id="Path_5" class="st1" d="M285.6,0.1h-0.8c-0.1,0-0.2,0.1-0.2,0.2c0,0,0,0,0,0v8c0,0.6,0,1.3,0,1.9l0,1.3l-1.2-2.1
				l-5.4-9.2c0-0.1-0.1-0.1-0.2-0.1H277c-0.1,0-0.2,0.1-0.2,0.2c0,0,0,0,0,0v13c0,0.1,0.1,0.2,0.2,0.2c0,0,0,0,0,0h0.9
				c0.1,0,0.2-0.1,0.2-0.2c0,0,0,0,0,0V5.3c0-0.6,0-1.2,0-1.9c0-0.4,0-0.8,0-1.2l1.2,2.1l5.4,9.2c0,0.1,0.1,0.1,0.2,0.1h0.9
				c0.1,0,0.2-0.1,0.2-0.2c0,0,0,0,0,0v-13C285.8,0.2,285.7,0.1,285.6,0.1z"/>
			<path id="Path_6" class="st1" d="M298,0.1h-0.8c-0.1,0-0.2,0.1-0.2,0.2c0,0,0,0,0,0v7.9c0,0.7-0.1,1.4-0.3,2.1
				c-0.2,0.5-0.4,0.9-0.7,1.3c-0.3,0.3-0.6,0.6-1.1,0.7c-0.8,0.3-1.7,0.3-2.5,0c-0.4-0.1-0.7-0.4-1-0.7c-0.3-0.4-0.6-0.8-0.7-1.3
				c-0.2-0.7-0.3-1.4-0.3-2.1V0.3c0-0.1-0.1-0.2-0.2-0.2c0,0,0,0,0,0h-0.9c-0.1,0-0.2,0.1-0.2,0.2c0,0,0,0,0,0v8
				c0,0.9,0.1,1.8,0.4,2.6c0.2,0.6,0.6,1.2,1,1.7c0.4,0.4,0.9,0.7,1.4,0.9c1.1,0.3,2.2,0.3,3.3,0c0.5-0.2,1-0.5,1.4-0.9
				c0.5-0.5,0.8-1.1,1-1.7c0.3-0.8,0.4-1.7,0.4-2.6v-8C298.2,0.2,298.2,0.1,298,0.1z"/>
			<path id="Path_7" class="st1" d="M306.7,7.4c0.8-0.1,1.6-0.5,2.3-1.1c0.7-0.7,1-1.6,0.9-2.6c0-0.6-0.1-1.1-0.3-1.6
				c-0.2-0.5-0.5-0.8-0.9-1.1c-0.4-0.3-0.9-0.5-1.4-0.6c-0.6-0.1-1.2-0.2-1.8-0.2h-3.7c-0.1,0-0.2,0.1-0.2,0.2c0,0,0,0,0,0v13
				c0,0.1,0.1,0.2,0.2,0.2c0,0,0,0,0,0h0.9c0.1,0,0.2-0.1,0.2-0.2c0,0,0,0,0,0V7.5h2.5l3.4,5.9c0,0.1,0.1,0.1,0.2,0.1h1.1
				c0.1,0,0.1,0,0.1-0.1c0-0.1,0-0.1,0-0.2L306.7,7.4z M302.9,1.3h2.4c0.9-0.1,1.8,0.1,2.5,0.6c0.6,0.4,0.9,1.2,0.8,1.9
				c0.1,0.8-0.3,1.5-0.8,2c-0.8,0.5-1.6,0.7-2.5,0.7h-2.4V1.3z"/>
			<path id="Path_8" class="st1" d="M319.2,7.7c-0.3-0.3-0.6-0.5-0.9-0.7c-0.3-0.2-0.7-0.4-1.1-0.5l-2-0.9c-0.2-0.1-0.5-0.2-0.7-0.4
				c-0.2-0.1-0.5-0.3-0.7-0.5c-0.2-0.2-0.4-0.4-0.5-0.6c-0.1-0.3-0.2-0.6-0.2-0.9c0-0.6,0.2-1.2,0.7-1.6c0.6-0.4,1.3-0.6,2-0.6
				c0.6,0,1.1,0.1,1.7,0.4c0.5,0.2,0.9,0.6,1.3,1c0,0,0.1,0.1,0.2,0.1c0.1,0,0.1,0,0.2-0.1l0.5-0.6c0.1-0.1,0.1-0.2,0-0.3
				c0,0,0,0,0,0c-0.5-0.5-1-0.8-1.6-1.1c-0.7-0.3-1.4-0.5-2.2-0.5c-0.5,0-1.1,0.1-1.6,0.3c-0.5,0.2-0.9,0.4-1.3,0.7
				c-0.3,0.3-0.6,0.7-0.8,1.1c-0.2,0.4-0.3,0.9-0.3,1.4c0,0.5,0.1,0.9,0.3,1.3c0.2,0.4,0.4,0.7,0.7,1c0.3,0.3,0.5,0.5,0.9,0.7
				c0.3,0.2,0.6,0.3,0.9,0.4l2,0.9c0.3,0.1,0.6,0.3,0.9,0.4c0.2,0.1,0.5,0.3,0.7,0.5c0.2,0.2,0.4,0.4,0.5,0.7c0.1,0.3,0.2,0.6,0.2,1
				c0,0.7-0.3,1.3-0.8,1.8c-0.6,0.5-1.4,0.7-2.3,0.7c-0.7,0-1.4-0.1-2-0.4c-0.6-0.3-1.2-0.7-1.6-1.2c0,0-0.1-0.1-0.2-0.1
				c-0.1,0-0.1,0-0.2,0.1l-0.6,0.6c-0.1,0.1-0.1,0.2,0,0.3c0,0,0,0,0,0c0.5,0.6,1.2,1.1,1.9,1.5c0.8,0.4,1.7,0.6,2.6,0.5
				c0.6,0,1.2-0.1,1.8-0.3c0.5-0.2,1-0.4,1.4-0.8c0.4-0.3,0.7-0.7,0.9-1.2c0.2-0.5,0.3-1,0.3-1.5c0-0.5-0.1-0.9-0.3-1.3
				C319.7,8.3,319.5,8,319.2,7.7z"/>
			<path id="Path_9" class="st1" d="M329.9,12.4h-6.2V7h5c0.1,0,0.2-0.1,0.2-0.2c0,0,0,0,0,0V6c0-0.1-0.1-0.2-0.2-0.2c0,0,0,0,0,0
				h-5V1.3h6c0.1,0,0.2-0.1,0.2-0.2c0,0,0,0,0,0V0.3c0-0.1-0.1-0.2-0.2-0.2c0,0,0,0,0,0h-7.1c-0.1,0-0.2,0.1-0.2,0.2c0,0,0,0,0,0v13
				c0,0.1,0.1,0.2,0.2,0.2c0,0,0,0,0,0h7.2c0.1,0,0.2-0.1,0.2-0.2c0,0,0,0,0,0v-0.8C330.1,12.5,330,12.4,329.9,12.4z"/>
			<path id="Path_10" class="st1" d="M340.1,8.7c-0.1-0.4-0.3-0.7-0.6-1c-0.3-0.3-0.6-0.5-0.9-0.7c-0.3-0.2-0.7-0.4-1.1-0.5l-2-0.9
				c-0.2-0.1-0.5-0.2-0.7-0.4c-0.2-0.1-0.5-0.3-0.7-0.5c-0.2-0.2-0.4-0.4-0.5-0.6c-0.1-0.3-0.2-0.6-0.2-0.9c0-0.6,0.2-1.2,0.7-1.6
				c0.6-0.4,1.3-0.6,2-0.6c0.6,0,1.1,0.1,1.7,0.4c0.5,0.2,0.9,0.6,1.3,1c0,0,0.1,0.1,0.2,0.1c0.1,0,0.1,0,0.1-0.1l0.5-0.6
				c0.1-0.1,0.1-0.2,0-0.3c0,0,0,0,0,0c-0.5-0.5-1-0.8-1.6-1.1c-0.7-0.3-1.4-0.5-2.2-0.5c-0.5,0-1.1,0.1-1.6,0.3
				c-0.5,0.2-0.9,0.4-1.3,0.7c-0.3,0.3-0.6,0.7-0.8,1.1c-0.2,0.4-0.3,0.9-0.3,1.4c0,0.5,0.1,0.9,0.3,1.3c0.2,0.4,0.4,0.7,0.7,1
				c0.3,0.3,0.5,0.5,0.9,0.7c0.3,0.2,0.6,0.3,0.9,0.4l2,0.9c0.3,0.1,0.6,0.3,0.9,0.4c0.2,0.1,0.5,0.3,0.7,0.5
				c0.2,0.2,0.4,0.4,0.5,0.7c0.1,0.3,0.2,0.6,0.2,1c0,0.7-0.3,1.3-0.8,1.8c-0.6,0.5-1.4,0.7-2.3,0.7c-0.7,0-1.4-0.1-2-0.4
				c-0.6-0.3-1.2-0.7-1.6-1.2c0,0-0.1-0.1-0.2-0.1c-0.1,0-0.1,0-0.1,0.1l-0.6,0.6c-0.1,0.1-0.1,0.2,0,0.3c0,0,0,0,0,0
				c0.5,0.6,1.2,1.1,1.9,1.5c0.8,0.4,1.7,0.6,2.6,0.5c0.6,0,1.2-0.1,1.8-0.3c0.5-0.2,1-0.4,1.4-0.8c0.4-0.3,0.7-0.7,0.9-1.2
				c0.2-0.5,0.3-1,0.3-1.5C340.4,9.6,340.3,9.1,340.1,8.7z"/>
		</g>
	</g>
	
		<linearGradient id="Path_11_1_" gradientUnits="userSpaceOnUse" x1="457.3262" y1="41.6364" x2="457.3262" y2="40.1365" gradientTransform="matrix(1.448 0 0 -28.3119 -350.9668 1172.7039)">
		<stop  offset="0" style="stop-color:#38BBD7"/>
		<stop  offset="1" style="stop-color:#389DD7"/>
	</linearGradient>
	<path id="Path_11" class="st2" d="M311.2,36.4c-0.6,0-1.1-0.5-1.1-1.1c0,0,0,0,0,0V-5c0-0.6,0.4-1.1,1-1.1c0.6,0,1.1,0.4,1.1,1
		c0,0,0,0.1,0,0.1v40.2C312.3,35.9,311.9,36.4,311.2,36.4C311.3,36.4,311.3,36.4,311.2,36.4z"/>
	
		<linearGradient id="Path_12_1_" gradientUnits="userSpaceOnUse" x1="307.2849" y1="41.4744" x2="307.2849" y2="39.9745" gradientTransform="matrix(31.8431 0 0 -40.0011 -9507.0078 1650.0217)">
		<stop  offset="0" style="stop-color:#38BBD7"/>
		<stop  offset="1" style="stop-color:#389DD7"/>
	</linearGradient>
	<path id="Path_12" class="st3" d="M290.9-9h-26.1c-6,0.1-10.9,5-10.9,11v26.3c0,6,4.8,10.9,10.9,11h5.8c0.1,0,0.2,0,0.3-0.1l0,0
		c0.1,0,0.2-0.1,0.3-0.1h0.1c0.1,0,0.1-0.1,0.2-0.1l0,0l0.2-0.1c0,0,0,0,0-0.1c0,0,0,0,0,0l0,0l7.1-11.3c1.9-0.2,3.5-1.2,4.4-2.9
		l6.7-11.2c0.9-1.6,1-3.5,0.4-5.3c-0.6-1.7-2-3-3.8-3.5c-0.1,0-0.2,0-0.2-0.1c-0.4-1-1.4-1.6-2.5-1.6c-1.5,0-2.7,1.2-2.7,2.7
		s1.2,2.7,2.7,2.7c0.8,0,1.5-0.3,2-1c0.8,0.3,1.4,0.9,1.7,1.7c0.4,0.9,0.3,1.9-0.2,2.7l-6.7,11.2c-0.5,1-1.6,1.6-2.7,1.5
		c-1.1,0.1-2.2-0.5-2.7-1.5l-6.6-11.2c-0.5-0.8-0.5-1.8-0.2-2.7c0.3-0.8,0.9-1.4,1.7-1.7c0.5,0.6,1.2,0.9,2,1c1.5,0,2.7-1.2,2.7-2.7
		s-1.2-2.7-2.7-2.7c-1.1,0-2,0.6-2.5,1.6c-0.1,0-0.1,0-0.2,0.1c-1.7,0.6-3.1,1.8-3.8,3.5c-0.7,1.7-0.5,3.7,0.4,5.3l6.6,11.2
		c0.6,1.2,1.6,2.1,2.9,2.6l-5.1,8.1l-9.1-14.7c-3.2-5-3.5-11.3-0.7-16.5c3.3-6.1,9.6-9.9,16.5-10h1.5c6.9,0.1,13.2,3.9,16.5,10
		c2.8,5.2,2.6,11.5-0.7,16.5l-11.9,18.9l0,0l-4.7,7.5l-2.5-3.9c-0.4-0.7-1.3-0.9-1.9-0.5c0,0,0,0,0,0c-0.7,0.4-0.9,1.3-0.4,2
		c0,0,0,0,0,0l3.7,5.8c0.3,0.4,0.7,0.7,1.2,0.7c0.5,0,1-0.3,1.2-0.7l6.9-11h4.9c6-0.1,10.9-5,10.9-11V2C301.8-4,296.9-8.9,290.9-9z"
		/>
	
		<linearGradient id="Path_13_1_" gradientUnits="userSpaceOnUse" x1="317.8" y1="40.1052" x2="317.8" y2="41.6051" gradientTransform="matrix(12.7612 0 0 -26.341 -3763.3022 1095.8204)">
		<stop  offset="0" style="stop-color:#FFFFFF;stop-opacity:0"/>
		<stop  offset="1" style="stop-color:#000000;stop-opacity:0.2"/>
	</linearGradient>
	<path id="Path_13" class="st4" d="M292.2-0.2L292.2-0.2c1.2,1.2,2.1,2.6,2.9,4.1c2.8,5.2,2.6,11.5-0.7,16.5l-11.8,18.9h8.3
		c6,0,10.9-4.9,10.9-10.9c0,0,0,0,0,0v-18L292.2-0.2z"/>
</g>
</svg>
