<?xml version="1.0" encoding="utf-8"?>
<!-- Generator: Adobe Illustrator 19.2.1, SVG Export Plug-In . SVG Version: 6.00 Build 0)  -->
<svg version="1.1" id="Layer_1" xmlns="http://www.w3.org/2000/svg" xmlns:xlink="http://www.w3.org/1999/xlink" x="0px" y="0px"
	 width="108px" height="48px" viewBox="0 0 108 48" style="enable-background:new 0 0 108 48;" xml:space="preserve">
<style type="text/css">
	.st0{fill:#FFFFFF;}
	.st1{fill:url(#SVGID_1_);}
</style>
<g>
	<g>
		<path class="st0" d="M57.6,16.4c0,0.1,0.1,0.1,0.1,0.1h0.7c0.1,0,0.1-0.1,0.1-0.1v-4.2L61.7,6V5.9l-0.1-0.1h-0.8
			c-0.1,0-0.1,0-0.1,0.1l-1.6,3.3c-0.2,0.4-0.3,0.7-0.5,1.1c-0.2,0.3-0.3,0.6-0.5,0.9c-0.2-0.3-0.3-0.6-0.5-0.9l-2.1-4.4
			c0-0.1-0.1-0.1-0.1-0.1h-0.8c-0.1,0-0.1,0-0.1,0.1V6l3.1,6.2C57.6,12.2,57.6,16.4,57.6,16.4z"/>
		<path class="st0" d="M68.6,16.3c0.6-0.3,1-0.6,1.4-1.1s0.7-1.1,0.9-1.8c0.2-0.7,0.3-1.4,0.3-2.3s-0.1-1.6-0.3-2.3
			c-0.2-0.6-0.5-1.2-0.9-1.7S69.1,6.2,68.6,6c-0.6-0.3-1.2-0.4-1.8-0.4c-0.6,0-1.3,0.1-1.8,0.4c-0.6,0.3-1,0.6-1.4,1.1
			s-0.7,1.1-0.9,1.7c-0.2,0.7-0.3,1.4-0.3,2.3c0,0.8,0.1,1.6,0.3,2.3s0.5,1.3,0.9,1.8s0.9,0.9,1.4,1.1c0.6,0.3,1.2,0.4,1.8,0.4
			S68,16.6,68.6,16.3z M66.8,6.6c0.5,0,1,0.1,1.4,0.3c0.4,0.2,0.8,0.5,1.1,0.9c0.3,0.4,0.5,0.9,0.7,1.4c0.2,0.6,0.3,1.2,0.3,1.9
			S70.2,12.5,70,13c-0.2,0.6-0.4,1.1-0.7,1.5c-0.3,0.4-0.7,0.7-1.1,0.9s-0.9,0.3-1.4,0.3s-1-0.1-1.4-0.3s-0.8-0.5-1.1-0.9
			c-0.3-0.4-0.6-0.9-0.7-1.4c-0.2-0.6-0.2-1.2-0.2-1.9s0.1-1.3,0.2-1.9c0.2-0.6,0.4-1,0.7-1.4C64.6,7.5,65,7.2,65.4,7
			C65.8,6.7,66.2,6.6,66.8,6.6z"/>
		<path class="st0" d="M78.4,16.5c0.4-0.1,0.8-0.4,1.2-0.7c0.3-0.3,0.6-0.8,0.8-1.3c0.2-0.6,0.3-1.2,0.3-2.1V6
			c0-0.1-0.1-0.1-0.1-0.1h-0.7c-0.1,0-0.1,0.1-0.1,0.1v6.3c0,0.7-0.1,1.2-0.2,1.7c-0.2,0.4-0.4,0.8-0.6,1.1s-0.5,0.4-0.9,0.6
			c-0.6,0.2-1.4,0.2-2.1,0c-0.3-0.1-0.6-0.3-0.8-0.6c-0.2-0.3-0.4-0.6-0.6-1.1c-0.1-0.4-0.2-1-0.2-1.7V6c0-0.1-0.1-0.1-0.1-0.1h-0.7
			c-0.1,0-0.1,0.1-0.1,0.1v6.4c0,0.8,0.1,1.5,0.3,2.1c0.2,0.6,0.5,1,0.8,1.3s0.7,0.6,1.2,0.7c0.4,0.1,0.9,0.2,1.4,0.2
			C77.5,16.7,78,16.7,78.4,16.5z"/>
		<path class="st0" d="M84.5,16.4v-4.6h2l2.8,4.7l0.1,0.1h0.8c0.1,0,0.1,0,0.1-0.1v-0.1l-2.8-4.6c0.8-0.1,1.4-0.4,1.8-0.9
			c0.5-0.5,0.8-1.2,0.8-2.1c0-0.5-0.1-1-0.3-1.3c-0.2-0.4-0.4-0.7-0.7-0.9c-0.1-0.3-0.5-0.5-1-0.6c-0.4-0.1-0.9-0.2-1.5-0.2h-3
			c-0.1,0-0.1,0.1-0.1,0.1v10.4c0,0.1,0.1,0.1,0.1,0.1h0.7C84.5,16.5,84.5,16.5,84.5,16.4z M86.5,6.7c0.9,0,1.6,0.2,2.1,0.5
			s0.7,0.8,0.7,1.5s-0.2,1.3-0.7,1.6c-0.5,0.4-1.2,0.5-2.1,0.5h-1.9V6.7H86.5z"/>
		<path class="st0" d="M63.2,21.6h-0.7c-0.1,0-0.1,0.1-0.1,0.1v6.4c0,0.5,0,1,0,1.5v1l-1-1.7L57,21.7l-0.1-0.1h-0.8
			c-0.1,0-0.1,0.1-0.1,0.1v10.4c0,0.1,0.1,0.1,0.1,0.1h0.7c0.1,0,0.1-0.1,0.1-0.1v-6.5c0-0.5,0-1,0-1.5c0-0.3,0-0.7,0-1l1,1.7
			l4.4,7.3l0.1,0.1h0.8c0.1,0,0.1-0.1,0.1-0.1V21.8C63.3,21.7,63.3,21.6,63.2,21.6z"/>
		<path class="st0" d="M73.4,21.6h-0.7c-0.1,0-0.1,0.1-0.1,0.1v6.4c0,0.7-0.1,1.2-0.2,1.7c-0.2,0.4-0.4,0.8-0.6,1.1
			c-0.2,0.3-0.5,0.4-0.9,0.6c-0.6,0.2-1.4,0.2-2.1,0c-0.3-0.1-0.6-0.3-0.8-0.6c-0.2-0.3-0.4-0.6-0.6-1.1c-0.1-0.4-0.2-1-0.2-1.7
			v-6.3c0-0.1-0.1-0.1-0.1-0.1h-0.7c-0.1,0-0.1,0.1-0.1,0.1v6.4c0,0.8,0.1,1.5,0.3,2.1c0.2,0.6,0.5,1,0.8,1.3s0.7,0.6,1.2,0.7
			c0.4,0.1,0.9,0.2,1.4,0.2s0.9-0.1,1.4-0.2c0.4-0.1,0.8-0.4,1.2-0.7c0.3-0.3,0.6-0.8,0.8-1.3c0.2-0.6,0.3-1.2,0.3-2.1v-6.4
			C73.5,21.7,73.4,21.6,73.4,21.6z"/>
		<path class="st0" d="M80.4,27.5c0.8-0.1,1.4-0.4,1.8-0.9c0.5-0.5,0.8-1.2,0.8-2.1c0-0.5-0.1-1-0.3-1.3c-0.2-0.4-0.4-0.7-0.7-0.9
			c-0.3-0.2-0.7-0.4-1.1-0.5s-0.9-0.2-1.5-0.2h-3c-0.1,0-0.1,0.1-0.1,0.1v10.4c0,0.1,0.1,0.1,0.1,0.1h0.7c0.1,0,0.1-0.1,0.1-0.1
			v-4.6h2l2.8,4.7l0.1,0.1h0.8c0.1,0,0.1,0,0.1-0.1V32L80.4,27.5z M77.3,22.6h1.9c0.9,0,1.6,0.2,2.1,0.5s0.7,0.8,0.7,1.5
			s-0.2,1.3-0.7,1.6c-0.5,0.4-1.2,0.5-2.1,0.5h-1.9V22.6z"/>
		<path class="st0" d="M90.7,27.7c-0.2-0.2-0.5-0.4-0.7-0.6c-0.3-0.2-0.6-0.3-0.9-0.4L87.5,26c-0.2-0.1-0.4-0.2-0.6-0.3
			c-0.2-0.1-0.4-0.2-0.6-0.4c-0.2-0.1-0.3-0.3-0.4-0.5s-0.2-0.4-0.2-0.7c0-0.5,0.2-0.9,0.6-1.2c0.4-0.3,0.9-0.5,1.6-0.5
			c0.5,0,1,0.1,1.4,0.3c0.4,0.2,0.7,0.4,1,0.8h0.1c0,0,0.1,0,0.1-0.1l0.4-0.5c0-0.1,0-0.1,0-0.2c-0.3-0.3-0.8-0.7-1.3-0.9
			c-0.5-0.3-1.1-0.4-1.8-0.4c-0.5,0-0.9,0.1-1.3,0.2s-0.7,0.3-1,0.6c-0.3,0.2-0.5,0.5-0.7,0.9c-0.2,0.3-0.2,0.7-0.2,1.1
			s0.1,0.8,0.2,1.1c0.1,0.3,0.3,0.5,0.5,0.8c0.2,0.2,0.5,0.4,0.7,0.5c0.3,0.1,0.5,0.3,0.7,0.4l1.6,0.7c0.2,0.1,0.5,0.2,0.7,0.4
			c0.2,0.1,0.4,0.3,0.6,0.4s0.3,0.3,0.4,0.5s0.1,0.5,0.1,0.8c0,0.6-0.2,1-0.7,1.4c-0.4,0.4-1.1,0.5-1.8,0.5c-0.6,0-1.1-0.1-1.6-0.4
			c-0.5-0.2-1-0.6-1.3-1h-0.1h-0.1L84,30.7c-0.1,0.1-0.1,0.1,0,0.2c0.4,0.5,1,0.9,1.6,1.2c0.6,0.3,1.3,0.4,2.1,0.4
			c0.5,0,1-0.1,1.4-0.2c0.4-0.1,0.8-0.4,1.1-0.6c0.3-0.3,0.5-0.6,0.7-0.9c0.2-0.4,0.3-0.8,0.3-1.2c0-0.4-0.1-0.8-0.2-1.1
			C91.1,28.2,90.9,27.9,90.7,27.7z"/>
		<path class="st0" d="M99.4,31.4h-5v-4.3h4.1c0.1,0,0.1-0.1,0.1-0.1v-0.6c0-0.1-0.1-0.1-0.1-0.1h-4.1v-3.6h4.9
			c0.1,0,0.1-0.1,0.1-0.1v-0.6c0-0.1-0.1-0.1-0.1-0.1h-5.8c-0.1,0-0.1,0.1-0.1,0.1v10.4c0,0.1,0.1,0.1,0.1,0.1h5.9
			c0.1,0,0.1-0.1,0.1-0.1v-0.6C99.6,31.5,99.5,31.4,99.4,31.4z"/>
		<path class="st0" d="M107.8,28.5c-0.1-0.3-0.3-0.6-0.5-0.8c-0.2-0.2-0.5-0.4-0.7-0.6c-0.3-0.2-0.6-0.3-0.9-0.4l-1.6-0.7
			c-0.2-0.1-0.4-0.2-0.6-0.3c-0.2-0.1-0.4-0.2-0.6-0.4c-0.2-0.1-0.3-0.3-0.4-0.5s-0.2-0.4-0.2-0.7c0-0.5,0.2-0.9,0.6-1.2
			c0.4-0.3,0.9-0.5,1.6-0.5c0.5,0,1,0.1,1.4,0.3c0.4,0.2,0.7,0.4,1,0.8h0.1c0,0,0.1,0,0.1-0.1l0.4-0.5c0-0.1,0-0.1,0-0.2
			c-0.3-0.3-0.8-0.7-1.3-0.9c-0.5-0.3-1.1-0.4-1.8-0.4c-0.5,0-0.9,0.1-1.3,0.2s-0.7,0.3-1,0.6c-0.3,0.2-0.5,0.5-0.7,0.9
			c-0.2,0.3-0.2,0.7-0.2,1.1s0.1,0.8,0.2,1.1c0.1,0.3,0.3,0.5,0.5,0.8c0.2,0.2,0.5,0.4,0.7,0.5c0.3,0.1,0.5,0.3,0.7,0.4l1.6,0.7
			c0.2,0.1,0.5,0.2,0.7,0.4c0.2,0.1,0.4,0.3,0.6,0.4s0.3,0.3,0.4,0.5s0.1,0.5,0.1,0.8c0,0.6-0.2,1-0.7,1.4c-0.4,0.4-1.1,0.5-1.8,0.5
			c-0.6,0-1.1-0.1-1.6-0.4c-0.5-0.2-1-0.6-1.3-1h-0.1h-0.1l-0.5,0.5c-0.1,0.1-0.1,0.1,0,0.2c0.4,0.5,1,0.9,1.6,1.2
			c0.6,0.3,1.3,0.4,2.1,0.4c0.5,0,1-0.1,1.4-0.2c0.4-0.1,0.8-0.4,1.1-0.6c0.3-0.3,0.5-0.6,0.7-0.9c0.2-0.4,0.3-0.8,0.3-1.2
			C108,29.2,107.9,28.8,107.8,28.5z"/>
	</g>
	<path class="st0" d="M46.9,36.3c-0.5,0-0.9-0.4-0.9-0.9V3.3c0-0.5,0.4-0.9,0.9-0.9s0.9,0.4,0.9,0.9v32.2
		C47.8,36,47.4,36.3,46.9,36.3z"/>
	<path class="st0" d="M30.2,0.1H8.9C4,0.1,0,4,0,8.9V30c0,4.8,4,8.8,8.9,8.8h4.5l0,0l0,0l0,0l0,0c0,0,0,0,0.1,0h0.1l0,0l0,0
		c0.1,0,0.3-0.1,0.4-0.1l0,0l0,0c0.1-0.1,0.2-0.1,0.3-0.2c0,0,0,0,0-0.1l0,0l5.8-9c1.6-0.2,2.8-0.9,3.6-2.3l5.5-9
		c0.7-1.3,0.9-2.8,0.3-4.2c-0.5-1.4-1.7-2.4-3.1-2.8c-0.1,0-0.1,0-0.2,0c-0.3-0.8-1.1-1.3-2-1.3c-1.2,0-2.2,1-2.2,2.2s1,2.2,2.2,2.2
		c0.7,0,1.2-0.3,1.7-0.7c0.6,0.2,1.2,0.7,1.4,1.4c0.3,0.7,0.2,1.5-0.1,2.2l-5.5,9c-0.4,0.7-0.9,1.2-2.2,1.2c-1.3,0-1.8-0.5-2.2-1.2
		l-5.4-8.9c-0.4-0.7-0.4-1.5-0.2-2.2c0.3-0.6,0.8-1.1,1.4-1.4c0.4,0.5,1,0.7,1.7,0.7c1.2,0,2.2-1,2.2-2.2s-1-2.2-2.2-2.2
		c-0.9,0-1.7,0.5-2,1.3c-0.1,0-0.1,0-0.2,0c-1.4,0.4-2.5,1.5-3.1,2.8c-0.6,1.4-0.4,2.9,0.3,4.2l5.4,8.9c0.6,1,1.3,1.7,2.3,2.1
		l-4.2,6.5L6,23.6c-2.6-4.1-2.8-8.9-0.5-13.2C8,5.6,13.1,2.6,18.9,2.5c0.4,0,0.8,0,1.2,0C26,2.7,31,5.6,33.6,10.4
		c2.3,4.3,2.1,9.1-0.5,13.2l-9.7,15.1l0,0l-3.9,6l-2-3.1c-0.4-0.5-1.1-0.7-1.6-0.4c-0.6,0.3-0.7,1.1-0.4,1.6l3,4.7
		c0.2,0.3,0.6,0.5,1,0.5s0.8-0.2,1-0.5l5.7-8.8h4c4.9,0,8.9-3.9,8.9-8.8v-21C39.1,4,35.1,0.1,30.2,0.1z"/>
	
		<linearGradient id="SVGID_1_" gradientUnits="userSpaceOnUse" x1="31.2923" y1="11.2303" x2="31.2923" y2="42.8303" gradientTransform="matrix(1 0 0 -1 0 50)">
		<stop  offset="0" style="stop-color:#FFFFFF;stop-opacity:0"/>
		<stop  offset="9.245359e-002" style="stop-color:#F6F7F7;stop-opacity:9.245360e-002"/>
		<stop  offset="0.3065" style="stop-color:#E8E9EA;stop-opacity:0.3065"/>
		<stop  offset="0.5669" style="stop-color:#E0E1E2;stop-opacity:0.5669"/>
		<stop  offset="1" style="stop-color:#DDDFE0"/>
	</linearGradient>
	<path class="st1" d="M31.2,7.1L31.2,7.1c0.9,1,1.8,2.1,2.4,3.3c2.3,4.3,2.1,9.1-0.5,13.2l-9.7,15.1h6.8c4.9,0,8.9-3.9,8.9-8.8V15.6
		L31.2,7.1z"/>
</g>
</svg>
