<?xml version="1.0" encoding="utf-8"?>
<!-- Generator: Adobe Illustrator 21.1.0, SVG Export Plug-In . SVG Version: 6.00 Build 0)  -->
<svg version="1.1" id="Layer_1" xmlns="http://www.w3.org/2000/svg" xmlns:xlink="http://www.w3.org/1999/xlink" x="0px" y="0px"
	 viewBox="0 0 359.4 696.8" style="enable-background:new 0 0 359.4 696.8;" xml:space="preserve">
<style type="text/css">
	.st0{fill:none;}
	.st1{opacity:2.000000e-02;}
</style>
<rect x="-235.8" y="-145.1" class="st0" width="595.3" height="841.9"/>
<g class="st1">
	<path d="M39.7,522.3l113.7,174.5h62L84.1,495.2c-47.3-95.6-42-206.7,14.1-297.5C154.5,106.4,252.2,52,359.4,52V0
		C234.1,0,119.9,63.7,54,170.3C-12,277-17.8,407.6,38.2,519.7C38.7,520.6,39.2,521.4,39.7,522.3z"/>
	<path d="M359.4,466.6L359.4,466.6c-57.3,0-104-46.6-104-104s46.6-104,104-104h0v-52h0c-86,0-155.9,70-155.9,155.9
		s70,155.9,155.9,155.9h0V466.6z"/>
</g>
</svg>
