<?xml version="1.0" encoding="utf-8"?>
<!-- Generator: Adobe Illustrator 19.2.1, SVG Export Plug-In . SVG Version: 6.00 Build 0)  -->
<svg version="1.1" id="Isolation_Mode" xmlns="http://www.w3.org/2000/svg" xmlns:xlink="http://www.w3.org/1999/xlink" x="0px"
	 y="0px" viewBox="0 0 1022.9 535" style="enable-background:new 0 0 1022.9 535;" xml:space="preserve">
<style type="text/css">
	.st0{fill:#4EBFD8;}
	.st1{fill:#A7A6A6;}
	.st2{fill:#010101;}
	.st3{fill:#FFFFFF;}
	.st4{fill:#FFFFFF;stroke:#FFFFFF;stroke-width:0.2;stroke-miterlimit:10;}
	.st5{fill:url(#SVGID_1_);}
	.st6{fill:url(#SVGID_2_);}
	.st7{fill:url(#SVGID_3_);}
	.st8{fill:url(#SVGID_4_);}
	.st9{opacity:0.2;fill:#010101;enable-background:new    ;}
	.st10{opacity:0.12;fill:#010101;enable-background:new    ;}
	.st11{opacity:0.25;fill:#FFFFFF;enable-background:new    ;}
	.st12{fill:none;stroke:#8D9FA0;stroke-width:2;stroke-linecap:round;stroke-linejoin:round;stroke-miterlimit:10;}
	.st13{fill:#4D5253;}
</style>
<g>
	<g>
		<path class="st0" d="M905.4,39.6h-3.8v-1.9h3.8c2.6,0,4.8-2.2,4.8-4.9V15.7c0-2.7-2.1-4.9-4.8-4.9h-16.8c-2.6,0.1-4.8,2.2-4.8,4.9
			v17.1c0,2.7,2.1,4.9,4.8,4.9h3.7v1.9h-3.7c-3.6,0-6.6-3-6.6-6.7V15.7c0-3.7,3-6.7,6.6-6.7h16.8c3.6,0,6.6,3,6.6,6.7v17.1
			C912,36.6,909,39.6,905.4,39.6z"/>
	</g>
	<g>
		<g>
			<path class="st0" d="M897,32c-1.5,0-2.6-0.6-3.3-1.9l-4.2-7.1c-0.6-1-0.7-2.3-0.2-3.4c0.4-1.1,1.3-1.9,2.4-2.2
				c0.1,0,0.2,0,0.2-0.1c0.5-0.1,1,0.2,1.1,0.7s-0.2,1-0.7,1.1h-0.1c-0.5,0.2-1,0.6-1.2,1.1c-0.2,0.6-0.2,1.2,0.1,1.7l4.2,7.1
				c0.3,0.6,0.7,1,1.7,1c0.5,0,0.9,0.4,0.9,0.9C897.9,31.6,897.5,32,897,32z"/>
			<g>
				<ellipse class="st0" cx="893.4" cy="18.2" rx="1.1" ry="1.2"/>
				<path class="st0" d="M893.4,19.9c-0.9,0-1.7-0.8-1.7-1.7s0.8-1.7,1.7-1.7s1.7,0.8,1.7,1.7S894.3,19.9,893.4,19.9z M893.4,17.6
					c-0.3,0-0.6,0.3-0.6,0.6c0,0.3,0.3,0.6,0.6,0.6s0.6-0.3,0.6-0.6S893.7,17.6,893.4,17.6z"/>
			</g>
			<path class="st0" d="M897,32c-0.5,0-0.9-0.4-0.9-0.9s0.4-0.9,0.9-0.9c1,0,1.4-0.4,1.7-0.9l4.2-7.1c0.3-0.5,0.3-1.1,0.1-1.7
				s-0.7-1-1.2-1.1h-0.1c-0.5-0.1-0.8-0.6-0.7-1.1s0.6-0.8,1.1-0.7c0.1,0,0.2,0,0.2,0.1c1.1,0.3,1.9,1.1,2.4,2.2
				c0.4,1.1,0.3,2.3-0.2,3.3l-4.2,7.1C899.6,31.4,898.5,32,897,32z"/>
			<g>
				<ellipse class="st0" cx="900.6" cy="18.2" rx="1.1" ry="1.2"/>
				<path class="st0" d="M900.6,19.9c-0.9,0-1.7-0.8-1.7-1.7s0.8-1.7,1.7-1.7s1.7,0.8,1.7,1.7S901.6,19.9,900.6,19.9z M900.6,17.6
					c-0.3,0-0.6,0.3-0.6,0.6c0,0.3,0.3,0.6,0.6,0.6s0.6-0.3,0.6-0.6C901.2,17.9,900.9,17.6,900.6,17.6z"/>
			</g>
		</g>
		<path class="st0" d="M897,47c-0.3,0-0.6-0.2-0.8-0.4l-2.3-3.7c-0.3-0.4-0.1-1,0.3-1.3c0.4-0.3,1-0.1,1.3,0.3l1.5,2.5l10.4-16.7
			c2-3.3,2.2-7.1,0.4-10.4c-1.9-3.9-5.8-6.3-10.3-6.4c-0.3,0-0.6,0-0.9,0c-4.6,0.1-8.5,2.5-10.4,6.3c-1.8,3.4-1.6,7.2,0.4,10.4
			l6.5,10.6c0.3,0.4,0.1,1-0.3,1.3c-0.4,0.3-1,0.1-1.3-0.3L885,28.6c-2.3-3.8-2.5-8.4-0.5-12.3c2.3-4.4,6.8-7.1,12-7.3
			c0.3,0,0.7,0,1,0c5.2,0.2,9.6,2.9,11.9,7.3c2,3.9,1.9,8.5-0.5,12.3l-11.2,18C897.6,46.8,897.3,47,897,47z"/>
		<path class="st0" d="M892.3,39.6c-0.2,0-0.3,0-0.5-0.1c-0.4-0.3-0.5-0.8-0.3-1.3l4.7-7.6c0.3-0.4,0.8-0.6,1.3-0.3
			c0.4,0.3,0.5,0.8,0.3,1.3l-4.7,7.6C892.9,39.4,892.6,39.6,892.3,39.6z"/>
	</g>
</g>
<g>
	<path class="st1" d="M914.2,292H788.7c-2.6,0-4.7-2.1-4.7-4.7v-30.5c0-2.6,2.1-4.7,4.7-4.7h125.5c2.6,0,4.8,2.1,4.8,4.7v30.5
		C919,289.9,916.8,292,914.2,292L914.2,292z"/>
	<path class="st2" d="M918,287.3c0,2.1-1.7,3.8-3.8,3.8H788.7c-2.1,0-3.8-1.7-3.8-3.8v-30.5c0-2.1,1.7-3.8,3.8-3.8h125.5
		c2.1,0,3.8,1.7,3.8,3.8V287.3L918,287.3z"/>
	<g>
		<g>
			<path class="st3" d="M814.1,271.8c0-3.2,2.6-4.8,2.8-4.9c-1.5-2.2-3.9-2.5-4.7-2.5c-2-0.2-3.9,1.2-4.9,1.2s-2.6-1.2-4.2-1.1
				c-2.1,0-4.1,1.3-5.2,3.2c-2.3,3.9-0.6,9.7,1.6,12.9c1.1,1.6,2.4,3.3,4,3.2c1.6-0.1,2.2-1,4.2-1c1.9,0,2.5,1,4.2,1
				s2.8-1.6,3.9-3.1c1.3-1.8,1.8-3.5,1.8-3.6C817.5,276.9,814.2,275.6,814.1,271.8z"/>
			<path class="st3" d="M810.9,262.3c0.9-1.1,1.5-2.6,1.3-4.1c-1.3,0.1-2.8,0.9-3.8,1.9c-0.8,0.9-1.5,2.5-1.3,3.9
				C808.6,264.2,810,263.4,810.9,262.3z"/>
		</g>
	</g>
	<g>
		<path class="st3" d="M837.6,283.5h-2.3l-1.2-3.9h-4.3l-1.2,3.9h-2.2l4.3-13.3h2.6L837.6,283.5z M833.8,278l-1.1-3.5
			c-0.1-0.4-0.3-1.2-0.7-2.5l0,0c-0.1,0.6-0.3,1.4-0.6,2.5l-1.1,3.5H833.8z"/>
		<path class="st3" d="M848.7,278.6c0,1.6-0.4,2.9-1.3,3.9c-0.8,0.8-1.8,1.3-2.9,1.3c-1.3,0-2.2-0.5-2.7-1.4l0,0v5.1h-2.1v-10.3
			c0-1,0-2.1-0.1-3.2h1.9l0.1,1.5l0,0c0.7-1.1,1.8-1.7,3.2-1.7c1.1,0,2.1,0.4,2.8,1.3C848.3,275.9,848.7,277.1,848.7,278.6z
			 M846.5,278.7c0-0.9-0.2-1.7-0.6-2.3c-0.5-0.6-1.1-0.9-1.9-0.9c-0.5,0-1,0.2-1.4,0.5c-0.4,0.4-0.7,0.8-0.8,1.4
			c-0.1,0.3-0.1,0.5-0.1,0.7v1.6c0,0.7,0.2,1.3,0.6,1.8c0.4,0.5,1,0.7,1.7,0.7c0.8,0,1.4-0.3,1.9-0.9
			C846.3,280.5,846.5,279.7,846.5,278.7z"/>
		<path class="st3" d="M859.7,278.6c0,1.6-0.4,2.9-1.3,3.9c-0.8,0.8-1.8,1.3-2.9,1.3c-1.3,0-2.2-0.5-2.7-1.4l0,0v5.1h-2.1v-10.3
			c0-1,0-2.1-0.1-3.2h1.9l0.1,1.5l0,0c0.7-1.1,1.8-1.7,3.2-1.7c1.1,0,2.1,0.4,2.8,1.3C859.3,275.9,859.7,277.1,859.7,278.6z
			 M857.5,278.7c0-0.9-0.2-1.7-0.6-2.3c-0.5-0.6-1.1-0.9-1.9-0.9c-0.5,0-1,0.2-1.4,0.5c-0.4,0.4-0.7,0.8-0.8,1.4
			c-0.1,0.3-0.1,0.5-0.1,0.7v1.6c0,0.7,0.2,1.3,0.6,1.8c0.4,0.5,1,0.7,1.7,0.7c0.8,0,1.4-0.3,1.9-0.9
			C857.3,280.5,857.5,279.7,857.5,278.7z"/>
		<path class="st3" d="M872,279.8c0,1.1-0.4,2.1-1.2,2.8c-0.9,0.8-2.1,1.2-3.6,1.2c-1.4,0-2.6-0.3-3.4-0.8l0.5-1.8
			c0.9,0.6,2,0.9,3.1,0.9c0.8,0,1.4-0.2,1.9-0.5c0.4-0.4,0.7-0.8,0.7-1.5c0-0.5-0.2-1-0.6-1.4c-0.4-0.4-1-0.7-1.8-1
			c-2.3-0.9-3.5-2.1-3.5-3.8c0-1.1,0.4-2,1.2-2.7s1.9-1,3.3-1c1.2,0,2.2,0.2,3,0.6l-0.5,1.7c-0.8-0.4-1.6-0.6-2.5-0.6
			c-0.8,0-1.3,0.2-1.8,0.6c-0.4,0.3-0.5,0.7-0.5,1.2s0.2,1,0.6,1.3c0.4,0.3,1,0.7,1.9,1c1.1,0.5,2,1,2.5,1.6
			C871.8,278.1,872,278.9,872,279.8z"/>
		<path class="st3" d="M879.1,275.5h-2.4v4.7c0,1.2,0.4,1.8,1.2,1.8c0.4,0,0.7,0,0.9-0.1l0.1,1.6c-0.4,0.2-1,0.2-1.7,0.2
			c-0.8,0-1.5-0.3-2-0.8s-0.7-1.4-0.7-2.6v-4.8h-1.4v-1.6h1.4v-1.8l2.1-0.6v2.4h2.4v1.6H879.1z"/>
		<path class="st3" d="M889.7,278.6c0,1.5-0.4,2.7-1.3,3.6c-0.9,1-2.1,1.5-3.5,1.5s-2.5-0.5-3.4-1.4c-0.8-0.9-1.3-2.1-1.3-3.5
			c0-1.5,0.4-2.7,1.3-3.7c0.9-0.9,2-1.4,3.5-1.4c1.4,0,2.5,0.5,3.4,1.4C889.3,276,889.7,277.2,889.7,278.6z M887.5,278.7
			c0-0.9-0.2-1.6-0.6-2.3c-0.4-0.8-1.1-1.1-1.9-1.1c-0.9,0-1.5,0.4-2,1.1c-0.4,0.6-0.6,1.4-0.6,2.3s0.2,1.6,0.6,2.3
			c0.5,0.8,1.1,1.1,1.9,1.1c0.8,0,1.5-0.4,1.9-1.2C887.3,280.3,887.5,279.6,887.5,278.7z"/>
		<path class="st3" d="M896.6,275.8c-0.2,0-0.4-0.1-0.7-0.1c-0.8,0-1.3,0.3-1.7,0.9c-0.4,0.5-0.5,1.1-0.5,1.9v5h-2.1v-6.6
			c0-1.1,0-2.1-0.1-3h1.9l0.1,1.8h0.1c0.2-0.6,0.6-1.1,1.1-1.5c0.5-0.3,1-0.5,1.5-0.5c0.2,0,0.4,0,0.5,0L896.6,275.8z"/>
		<path class="st3" d="M906.2,278.3c0,0.4,0,0.7-0.1,1h-6.4c0,0.9,0.3,1.7,0.9,2.2c0.5,0.4,1.2,0.7,2.1,0.7c0.9,0,1.8-0.2,2.6-0.5
			l0.3,1.5c-0.9,0.4-2,0.6-3.2,0.6c-1.5,0-2.7-0.4-3.5-1.3s-1.3-2-1.3-3.5c0-1.4,0.4-2.7,1.2-3.6c0.8-1,1.9-1.5,3.4-1.5
			c1.4,0,2.4,0.5,3.1,1.5C905.9,276,906.2,277.1,906.2,278.3z M904.1,277.7c0-0.6-0.1-1.2-0.4-1.6c-0.4-0.6-0.9-0.9-1.7-0.9
			c-0.7,0-1.3,0.3-1.7,0.9c-0.4,0.5-0.6,1-0.6,1.7L904.1,277.7L904.1,277.7z"/>
	</g>
	<g>
		<g>
			<path class="st3" d="M833,262c0,1.2-0.4,2.1-1.1,2.7c-0.7,0.5-1.6,0.8-2.8,0.8c-0.6,0-1.1,0-1.5-0.1V259c0.6-0.1,1.2-0.1,1.8-0.1
				c1.1,0,2,0.2,2.6,0.7C832.7,260.2,833,261,833,262z M831.9,262c0-0.8-0.2-1.3-0.6-1.8c-0.4-0.4-1-0.6-1.8-0.6
				c-0.3,0-0.6,0-0.8,0.1v4.9c0.1,0,0.4,0,0.7,0c0.8,0,1.4-0.2,1.9-0.7C831.7,263.5,831.9,262.9,831.9,262z"/>
			<path class="st3" d="M838.9,263c0,0.7-0.2,1.3-0.6,1.8c-0.4,0.5-1,0.7-1.7,0.7s-1.2-0.2-1.7-0.7c-0.4-0.5-0.6-1-0.6-1.7
				s0.2-1.3,0.6-1.8c0.4-0.5,1-0.7,1.7-0.7s1.2,0.2,1.7,0.7C838.7,261.8,838.9,262.3,838.9,263z M837.8,263.1c0-0.4-0.1-0.8-0.3-1.1
				c-0.2-0.4-0.5-0.6-0.9-0.6s-0.7,0.2-1,0.6c-0.2,0.3-0.3,0.7-0.3,1.1s0.1,0.8,0.3,1.1c0.2,0.4,0.5,0.6,1,0.6
				c0.4,0,0.7-0.2,0.9-0.6C837.7,263.9,837.8,263.5,837.8,263.1z"/>
			<path class="st3" d="M846.8,260.7l-1.5,4.7h-1l-0.6-2c-0.2-0.5-0.3-1-0.4-1.5l0,0c-0.1,0.5-0.2,1-0.4,1.5l-0.6,2h-1l-1.4-4.7h1.1
				l0.5,2.2c0.1,0.5,0.2,1,0.3,1.5l0,0c0.1-0.4,0.2-0.9,0.4-1.5l0.7-2.3h0.9l0.6,2.2c0.2,0.5,0.3,1.1,0.4,1.6l0,0
				c0.1-0.5,0.2-1,0.3-1.6l0.6-2.2L846.8,260.7L846.8,260.7z"/>
			<path class="st3" d="M852.2,265.4h-1v-2.7c0-0.8-0.3-1.2-1-1.2c-0.3,0-0.6,0.1-0.8,0.3c-0.2,0.2-0.3,0.5-0.3,0.8v2.8h-1V262
				c0-0.4,0-0.9,0-1.3h0.9v0.7l0,0c0.1-0.2,0.3-0.4,0.5-0.6c0.3-0.2,0.6-0.3,0.9-0.3c0.4,0,0.8,0.1,1.1,0.4c0.4,0.3,0.5,0.9,0.5,1.6
				v2.9H852.2z"/>
			<path class="st3" d="M855.1,265.4h-1v-6.9h1V265.4z"/>
			<path class="st3" d="M861.3,263c0,0.7-0.2,1.3-0.6,1.8c-0.4,0.5-1,0.7-1.7,0.7s-1.2-0.2-1.7-0.7c-0.4-0.5-0.6-1-0.6-1.7
				s0.2-1.3,0.6-1.8c0.4-0.5,1-0.7,1.7-0.7s1.2,0.2,1.7,0.7C861.1,261.8,861.3,262.3,861.3,263z M860.2,263.1c0-0.4-0.1-0.8-0.3-1.1
				c-0.2-0.4-0.5-0.6-0.9-0.6s-0.7,0.2-1,0.6c-0.2,0.3-0.3,0.7-0.3,1.1s0.1,0.8,0.3,1.1c0.2,0.4,0.5,0.6,1,0.6
				c0.4,0,0.7-0.2,0.9-0.6C860.1,263.9,860.2,263.5,860.2,263.1z"/>
			<path class="st3" d="M866.3,265.4h-0.9l-0.1-0.5l0,0c-0.3,0.4-0.8,0.7-1.4,0.7c-0.4,0-0.8-0.1-1.1-0.4c-0.2-0.3-0.4-0.6-0.4-1
				c0-0.6,0.2-1,0.7-1.3s1.2-0.5,2-0.4v-0.1c0-0.6-0.3-0.9-1-0.9c-0.5,0-0.9,0.1-1.2,0.3l-0.2-0.7c0.4-0.3,1-0.4,1.6-0.4
				c1.2,0,1.9,0.7,1.9,2v1.7C866.3,264.8,866.3,265.2,866.3,265.4z M865.2,263.8v-0.7c-1.2,0-1.7,0.3-1.7,1c0,0.2,0.1,0.4,0.2,0.6
				c0.1,0.1,0.3,0.2,0.5,0.2s0.4-0.1,0.6-0.2c0.2-0.1,0.3-0.3,0.4-0.6C865.2,263.9,865.2,263.9,865.2,263.8z"/>
			<path class="st3" d="M872.3,265.4h-0.9v-0.8l0,0c-0.3,0.6-0.8,0.9-1.5,0.9c-0.6,0-1-0.2-1.4-0.7c-0.4-0.4-0.6-1-0.6-1.7
				c0-0.8,0.2-1.4,0.6-1.9c0.4-0.4,0.9-0.7,1.5-0.7s1.1,0.2,1.3,0.6l0,0v-2.7h1v5.6C872.2,264.6,872.3,265,872.3,265.4z
				 M871.2,263.4v-0.8c0-0.1,0-0.2,0-0.3c-0.1-0.3-0.2-0.5-0.4-0.6c-0.2-0.2-0.4-0.3-0.7-0.3c-0.4,0-0.7,0.2-0.9,0.5
				s-0.3,0.7-0.3,1.2s0.1,0.8,0.3,1.1c0.2,0.3,0.5,0.5,0.9,0.5c0.3,0,0.6-0.1,0.8-0.4C871.1,264.1,871.2,263.8,871.2,263.4z"/>
			<path class="st3" d="M881.2,263c0,0.7-0.2,1.3-0.6,1.8c-0.4,0.5-1,0.7-1.7,0.7s-1.2-0.2-1.7-0.7c-0.4-0.5-0.6-1-0.6-1.7
				s0.2-1.3,0.6-1.8c0.4-0.5,1-0.7,1.7-0.7s1.2,0.2,1.7,0.7C881,261.8,881.2,262.3,881.2,263z M880.2,263.1c0-0.4-0.1-0.8-0.3-1.1
				c-0.2-0.4-0.5-0.6-0.9-0.6s-0.7,0.2-1,0.6c-0.2,0.3-0.3,0.7-0.3,1.1s0.1,0.8,0.3,1.1c0.2,0.4,0.5,0.6,1,0.6
				c0.4,0,0.7-0.2,0.9-0.6C880.1,263.9,880.2,263.5,880.2,263.1z"/>
			<path class="st3" d="M886.9,265.4h-1v-2.7c0-0.8-0.3-1.2-1-1.2c-0.3,0-0.6,0.1-0.8,0.3c-0.2,0.2-0.3,0.5-0.3,0.8v2.8h-1V262
				c0-0.4,0-0.9,0-1.3h0.9v0.7l0,0c0.1-0.2,0.3-0.4,0.5-0.6c0.3-0.2,0.6-0.3,1-0.3s0.8,0.1,1.1,0.4c0.4,0.3,0.5,0.9,0.5,1.6
				L886.9,265.4L886.9,265.4z"/>
			<path class="st3" d="M893.9,261.5h-1.2v2.3c0,0.6,0.2,0.9,0.6,0.9c0.2,0,0.3,0,0.5,0v0.8c-0.2,0.1-0.5,0.1-0.8,0.1
				c-0.4,0-0.7-0.1-1-0.4c-0.2-0.3-0.4-0.7-0.4-1.3v-2.4h-0.7v-0.8h0.7v-0.9l1-0.3v1.2h1.2L893.9,261.5L893.9,261.5z"/>
			<path class="st3" d="M899.5,265.4h-1v-2.7c0-0.8-0.3-1.3-0.9-1.3c-0.5,0-0.8,0.2-1,0.7c0,0.1,0,0.2,0,0.4v2.8h-1v-6.9h1v2.8l0,0
				c0.3-0.5,0.8-0.8,1.4-0.8c0.4,0,0.8,0.1,1.1,0.4c0.4,0.4,0.5,0.9,0.5,1.6L899.5,265.4L899.5,265.4z"/>
			<path class="st3" d="M905.2,262.9c0,0.2,0,0.3,0,0.5H902c0,0.5,0.2,0.8,0.5,1.1c0.3,0.2,0.6,0.3,1,0.3c0.5,0,0.9-0.1,1.3-0.2
				l0.2,0.7c-0.4,0.2-1,0.3-1.6,0.3c-0.7,0-1.3-0.2-1.7-0.6s-0.6-1-0.6-1.7s0.2-1.3,0.6-1.8c0.4-0.5,1-0.8,1.6-0.8
				c0.7,0,1.2,0.3,1.5,0.8C905.1,261.8,905.2,262.3,905.2,262.9z M904.2,262.6c0-0.3-0.1-0.6-0.2-0.8c-0.2-0.3-0.5-0.4-0.8-0.4
				s-0.6,0.1-0.8,0.4c-0.2,0.2-0.3,0.5-0.3,0.8H904.2z"/>
		</g>
	</g>
</g>
<g>
	<g>
		<path d="M915,338H790c-2.8,0-5-2.3-5-5v-30c0-2.8,2.3-5,5-5h125c2.8,0,5,2.3,5,5v30C920,335.7,917.8,338,915,338z"/>
	</g>
	<g>
		<g>
			<path class="st1" d="M915,298.8c2.3,0,4.2,1.9,4.2,4.2v30c0,2.3-1.9,4.2-4.2,4.2H790c-2.3,0-4.2-1.9-4.2-4.2v-30
				c0-2.3,1.9-4.2,4.2-4.2H915 M915,298H790c-2.8,0-5,2.3-5,5v30c0,2.8,2.3,5,5,5h125c2.8,0,5-2.3,5-5v-30
				C920,300.3,917.8,298,915,298L915,298z"/>
		</g>
	</g>
	<g>
		<path class="st4" d="M832.4,308.2c0,0.8-0.2,1.5-0.7,2c-0.6,0.6-1.3,0.9-2.2,0.9s-1.6-0.3-2.2-0.9c-0.6-0.6-0.9-1.3-0.9-2.2
			c0-0.9,0.3-1.6,0.9-2.2c0.6-0.6,1.3-0.9,2.2-0.9c0.4,0,0.8,0.1,1.2,0.3c0.4,0.2,0.7,0.4,0.9,0.7l-0.5,0.5
			c-0.4-0.5-0.9-0.7-1.6-0.7c-0.6,0-1.2,0.2-1.6,0.7c-0.5,0.4-0.7,1-0.7,1.7s0.2,1.3,0.7,1.7c0.5,0.4,1,0.7,1.6,0.7
			c0.7,0,1.2-0.2,1.7-0.7c0.3-0.3,0.5-0.7,0.5-1.2h-2.2v-0.7h2.9C832.4,307.9,832.4,308.1,832.4,308.2z"/>
		<path class="st4" d="M837,305.7h-2.7v1.9h2.5v0.7h-2.5v1.9h2.7v0.7h-3.5v-6h3.5V305.7z"/>
		<path class="st4" d="M840.3,311h-0.8v-5.3h-1.7V305h4.1v0.7h-1.7v5.3H840.3z"/>
		<path class="st4" d="M844.9,311v-6h0.8v6H844.9z"/>
		<path class="st4" d="M849.1,311h-0.8v-5.3h-1.7V305h4.1v0.7H849v5.3H849.1z"/>
		<path class="st4" d="M858.6,310.2c-0.6,0.6-1.3,0.9-2.2,0.9s-1.6-0.3-2.2-0.9c-0.6-0.6-0.9-1.3-0.9-2.2s0.3-1.6,0.9-2.2
			c0.6-0.6,1.3-0.9,2.2-0.9s1.6,0.3,2.2,0.9c0.6,0.6,0.9,1.3,0.9,2.2C859.5,308.9,859.2,309.6,858.6,310.2z M854.8,309.7
			c0.4,0.4,1,0.7,1.6,0.7s1.2-0.2,1.6-0.7c0.4-0.4,0.7-1,0.7-1.7s-0.2-1.3-0.7-1.7c-0.4-0.4-1-0.7-1.6-0.7s-1.2,0.2-1.6,0.7
			c-0.4,0.4-0.7,1-0.7,1.7S854.3,309.3,854.8,309.7z"/>
		<path class="st4" d="M860.6,311v-6h0.9l2.9,4.7l0,0v-1.2V305h0.8v6h-0.8l-3.1-4.9l0,0v1.2v3.7L860.6,311L860.6,311z"/>
	</g>
	<path class="st3" d="M853.1,319.8c-2.4,0-4.3,1.8-4.3,4.3c0,2.4,1.9,4.3,4.3,4.3c2.4,0,4.3-1.8,4.3-4.3
		C857.4,321.5,855.5,319.8,853.1,319.8z M853.1,326.6c-1.3,0-2.4-1.1-2.4-2.6s1.1-2.6,2.4-2.6c1.3,0,2.4,1,2.4,2.6
		C855.5,325.5,854.4,326.6,853.1,326.6z M843.8,319.8c-2.4,0-4.3,1.8-4.3,4.3c0,2.4,1.9,4.3,4.3,4.3c2.4,0,4.3-1.8,4.3-4.3
		C848.1,321.5,846.2,319.8,843.8,319.8z M843.8,326.6c-1.3,0-2.4-1.1-2.4-2.6s1.1-2.6,2.4-2.6c1.3,0,2.4,1,2.4,2.6
		C846.2,325.5,845.1,326.6,843.8,326.6z M832.7,321.1v1.8h4.3c-0.1,1-0.5,1.8-1,2.3c-0.6,0.6-1.6,1.3-3.3,1.3
		c-2.7,0-4.7-2.1-4.7-4.8c0-2.7,2.1-4.8,4.7-4.8c1.4,0,2.5,0.6,3.3,1.3l1.3-1.3c-1.1-1-2.5-1.8-4.5-1.8c-3.6,0-6.7,3-6.7,6.6
		s3.1,6.6,6.7,6.6c2,0,3.4-0.6,4.6-1.9c1.2-1.2,1.6-2.9,1.6-4.2c0-0.4,0-0.8-0.1-1.1H832.7z M878.1,322.5c-0.4-1-1.4-2.7-3.6-2.7
		c-2.2,0-4,1.7-4,4.3c0,2.4,1.8,4.3,4.2,4.3c1.9,0,3.1-1.2,3.5-1.9l-1.4-1c-0.5,0.7-1.1,1.2-2.1,1.2s-1.6-0.4-2.1-1.3l5.7-2.4
		L878.1,322.5z M872.3,323.9c0-1.6,1.3-2.5,2.2-2.5c0.7,0,1.4,0.4,1.6,0.9L872.3,323.9z M867.6,328h1.9v-12.5h-1.9V328z
		 M864.6,320.7L864.6,320.7c-0.5-0.5-1.3-1-2.3-1c-2.1,0-4.1,1.9-4.1,4.3s1.9,4.2,4.1,4.2c1,0,1.8-0.5,2.2-1h0.1v0.6
		c0,1.6-0.9,2.5-2.3,2.5c-1.1,0-1.9-0.8-2.1-1.5l-1.6,0.7c0.5,1.1,1.7,2.5,3.8,2.5c2.2,0,4-1.3,4-4.4V320h-1.8L864.6,320.7
		L864.6,320.7z M862.4,326.6c-1.3,0-2.4-1.1-2.4-2.6s1.1-2.6,2.4-2.6c1.3,0,2.3,1.1,2.3,2.6S863.7,326.6,862.4,326.6z M886.8,315.5
		h-4.5V328h1.9v-4.7h2.6c2.1,0,4.1-1.5,4.1-3.9S888.9,315.5,886.8,315.5z M886.9,321.5h-2.7v-4.3h2.7c1.4,0,2.2,1.2,2.2,2.1
		C889,320.4,888.2,321.5,886.9,321.5z M898.4,319.7c-1.4,0-2.8,0.6-3.3,1.9l1.7,0.7c0.4-0.7,1-0.9,1.7-0.9c1,0,1.9,0.6,2,1.6v0.1
		c-0.3-0.2-1.1-0.5-1.9-0.5c-1.8,0-3.6,1-3.6,2.8c0,1.7,1.5,2.8,3.1,2.8c1.3,0,1.9-0.6,2.4-1.2h0.1v1h1.8v-4.8
		C902.2,321,900.5,319.7,898.4,319.7z M898.2,326.6c-0.6,0-1.5-0.3-1.5-1.1c0-1,1.1-1.3,2-1.3c0.8,0,1.2,0.2,1.7,0.4
		C900.2,325.8,899.2,326.6,898.2,326.6z M908.7,320l-2.1,5.4h-0.1l-2.2-5.4h-2l3.3,7.6l-1.9,4.2h1.9l5.1-11.8L908.7,320L908.7,320z
		 M891.9,328h1.9v-12.5h-1.9V328z"/>
	<g>
		
			<linearGradient id="SVGID_1_" gradientUnits="userSpaceOnUse" x1="806.77" y1="851.6556" x2="789.9876" y2="868.438" gradientTransform="matrix(1 0 0 1 0 -544.9756)">
			<stop  offset="0" style="stop-color:#4998D3"/>
			<stop  offset="6.574450e-003" style="stop-color:#4A99D3"/>
			<stop  offset="0.2601" style="stop-color:#42BAEB"/>
			<stop  offset="0.5122" style="stop-color:#41C7F2"/>
			<stop  offset="0.7604" style="stop-color:#56C9E9"/>
			<stop  offset="1" style="stop-color:#5BCAE8"/>
		</linearGradient>
		<path class="st5" d="M795.4,305.5c-0.3,0.3-0.5,0.8-0.5,1.4V329c0,0.6,0.2,1.1,0.5,1.4l0.1,0.1l12.4-12.4V318v-0.1L795.4,305.5
			L795.4,305.5z"/>
		
			<linearGradient id="SVGID_2_" gradientUnits="userSpaceOnUse" x1="818.8344" y1="863.0256" x2="794.6375" y2="863.0256" gradientTransform="matrix(1 0 0 1 0 -544.9756)">
			<stop  offset="0" style="stop-color:#FEE000"/>
			<stop  offset="0.4087" style="stop-color:#FEBD11"/>
			<stop  offset="0.7754" style="stop-color:#FAA51A"/>
			<stop  offset="1" style="stop-color:#F99B1C"/>
		</linearGradient>
		<path class="st6" d="M812,322.3l-4.1-4.1V318v-0.1l4.1-4.1l0.1,0.1l4.9,2.8c1.4,0.8,1.4,2.1,0,2.9L812,322.3L812,322.3z"/>
		
			<linearGradient id="SVGID_3_" gradientUnits="userSpaceOnUse" x1="809.8154" y1="865.2601" x2="787.0571" y2="888.0184" gradientTransform="matrix(1 0 0 1 0 -544.9756)">
			<stop  offset="0" style="stop-color:#EF4149"/>
			<stop  offset="1" style="stop-color:#C31E63"/>
		</linearGradient>
		<path class="st7" d="M812.1,322.2l-4.2-4.2l-12.5,12.5c0.5,0.5,1.2,0.5,2.1,0.1L812.1,322.2"/>
		
			<linearGradient id="SVGID_4_" gradientUnits="userSpaceOnUse" x1="792.2618" y1="843.1873" x2="802.4243" y2="853.3499" gradientTransform="matrix(1 0 0 1 0 -544.9756)">
			<stop  offset="0" style="stop-color:#32A072"/>
			<stop  offset="6.850000e-002" style="stop-color:#2CA772"/>
			<stop  offset="0.4762" style="stop-color:#4BBA71"/>
			<stop  offset="0.8009" style="stop-color:#5EBD6B"/>
			<stop  offset="1" style="stop-color:#66BE69"/>
		</linearGradient>
		<path class="st8" d="M812.1,313.8l-14.6-8.3c-0.9-0.5-1.6-0.4-2.1,0.1l12.5,12.5L812.1,313.8z"/>
		<g>
			<path class="st9" d="M812,322.1l-14.5,8.2c-0.8,0.5-1.5,0.4-2,0l0,0l-0.1,0.1l0,0l0.1,0.1l0,0c0.5,0.4,1.2,0.5,2,0L812,322.1
				L812,322.1z"/>
			<path class="st10" d="M795.4,330.3c-0.3-0.3-0.5-0.8-0.5-1.4v0.1c0,0.6,0.2,1.1,0.5,1.4V330.3L795.4,330.3z"/>
		</g>
		<path class="st10" d="M817,319.3l-5,2.8l0.1,0.1l4.9-2.8c0.7-0.4,1-0.9,1-1.4l0,0C818,318.5,817.6,318.9,817,319.3z"/>
		<path class="st11" d="M797.5,305.6l19.5,11.1c0.6,0.4,1,0.8,1,1.3l0,0c0-0.5-0.3-1-1-1.4l-19.5-11.1c-1.4-0.8-2.5-0.1-2.5,1.5v0.1
			C795,305.5,796.1,304.8,797.5,305.6z"/>
	</g>
</g>
<g>
	<line class="st12" x1="919" y1="484" x2="935" y2="500"/>
	<line class="st12" x1="919" y1="500" x2="935" y2="484"/>
</g>
<line class="st12" x1="393" y1="422" x2="409" y2="438"/>
<line class="st12" x1="393" y1="438" x2="409" y2="422"/>
<g>
	<g>
		<path class="st13" d="M944.3,39.6h-3.8v-1.9h3.8c2.6,0,4.8-2.2,4.8-4.9V15.7c0-2.7-2.1-4.9-4.8-4.9h-16.8
			c-2.6,0.1-4.8,2.2-4.8,4.9v17.1c0,2.7,2.1,4.9,4.8,4.9h3.7v1.9h-3.7c-3.6,0-6.6-3-6.6-6.7V15.7c0-3.7,3-6.7,6.6-6.7h16.8
			c3.6,0,6.6,3,6.6,6.7v17.1C950.9,36.6,947.9,39.6,944.3,39.6z"/>
	</g>
	<g>
		<g>
			<path class="st13" d="M935.9,32c-1.5,0-2.6-0.6-3.3-1.9l-4.2-7.1c-0.6-1-0.7-2.3-0.2-3.4c0.4-1.1,1.3-1.9,2.4-2.2
				c0.1,0,0.2,0,0.2-0.1c0.5-0.1,1,0.2,1.1,0.7s-0.2,1-0.7,1.1h-0.1c-0.5,0.2-1,0.6-1.2,1.1c-0.2,0.6-0.2,1.2,0.1,1.7l4.2,7.1
				c0.3,0.6,0.7,1,1.7,1c0.5,0,0.9,0.4,0.9,0.9C936.8,31.6,936.4,32,935.9,32z"/>
			<g>
				<ellipse class="st13" cx="932.3" cy="18.2" rx="1.1" ry="1.2"/>
				<path class="st13" d="M932.3,19.9c-0.9,0-1.7-0.8-1.7-1.7s0.8-1.7,1.7-1.7s1.7,0.8,1.7,1.7S933.2,19.9,932.3,19.9z M932.3,17.6
					c-0.3,0-0.6,0.3-0.6,0.6c0,0.3,0.3,0.6,0.6,0.6s0.6-0.3,0.6-0.6C932.9,17.9,932.6,17.6,932.3,17.6z"/>
			</g>
			<path class="st13" d="M935.9,32c-0.5,0-0.9-0.4-0.9-0.9s0.4-0.9,0.9-0.9c1,0,1.4-0.4,1.7-0.9l4.2-7.1c0.3-0.5,0.3-1.1,0.1-1.7
				s-0.7-1-1.2-1.1h-0.1c-0.5-0.1-0.8-0.6-0.7-1.1s0.6-0.8,1.1-0.7c0.1,0,0.2,0,0.2,0.1c1.1,0.3,1.9,1.1,2.4,2.2
				c0.4,1.1,0.3,2.3-0.2,3.3l-4.2,7.1C938.5,31.4,937.4,32,935.9,32z"/>
			<g>
				<ellipse class="st13" cx="939.5" cy="18.2" rx="1.1" ry="1.2"/>
				<path class="st13" d="M939.5,19.9c-0.9,0-1.7-0.8-1.7-1.7s0.8-1.7,1.7-1.7s1.7,0.8,1.7,1.7S940.5,19.9,939.5,19.9z M939.5,17.6
					c-0.3,0-0.6,0.3-0.6,0.6c0,0.3,0.3,0.6,0.6,0.6s0.6-0.3,0.6-0.6S939.8,17.6,939.5,17.6z"/>
			</g>
		</g>
		<path class="st13" d="M935.9,47c-0.3,0-0.6-0.2-0.8-0.4l-2.3-3.7c-0.3-0.4-0.1-1,0.3-1.3c0.4-0.3,1-0.1,1.3,0.3l1.5,2.5l10.4-16.7
			c2-3.3,2.2-7.1,0.4-10.4c-1.9-3.9-5.8-6.3-10.3-6.4c-0.3,0-0.6,0-0.9,0c-4.6,0.1-8.5,2.5-10.4,6.3c-1.8,3.4-1.6,7.2,0.4,10.4
			l6.5,10.6c0.3,0.4,0.1,1-0.3,1.3c-0.4,0.3-1,0.1-1.3-0.3l-6.5-10.6c-2.3-3.8-2.5-8.4-0.5-12.3c2.3-4.4,6.8-7.1,12-7.3
			c0.3,0,0.7,0,1,0c5.2,0.2,9.6,2.9,11.9,7.3c2,3.9,1.9,8.5-0.5,12.3l-11.2,18C936.5,46.8,936.2,47,935.9,47z"/>
		<path class="st13" d="M931.2,39.6c-0.2,0-0.3,0-0.5-0.1c-0.4-0.3-0.5-0.8-0.3-1.3l4.7-7.6c0.3-0.4,0.8-0.6,1.3-0.3
			c0.4,0.3,0.5,0.8,0.3,1.3l-4.7,7.6C931.8,39.4,931.5,39.6,931.2,39.6z"/>
	</g>
</g>
</svg>
